<svg width="25" height="25" viewBox="0 0 25 25" fill="none" xmlns="http://www.w3.org/2000/svg">
<path d="M12.5015 23.3805C14.0811 23.3805 15.3617 22.0999 15.3617 20.5203C15.3617 18.9407 14.0811 17.6602 12.5015 17.6602C10.9219 17.6602 9.64136 18.9407 9.64136 20.5203C9.64136 22.0999 10.9219 23.3805 12.5015 23.3805Z" fill="url(#paint0_radial_1473_2556)"/>
<path d="M12.5015 23.3805C14.0811 23.3805 15.3617 22.0999 15.3617 20.5203C15.3617 18.9407 14.0811 17.6602 12.5015 17.6602C10.9219 17.6602 9.64136 18.9407 9.64136 20.5203C9.64136 22.0999 10.9219 23.3805 12.5015 23.3805Z" fill="url(#paint1_linear_1473_2556)"/>
<path d="M12.5015 23.3805C14.0811 23.3805 15.3617 22.0999 15.3617 20.5203C15.3617 18.9407 14.0811 17.6602 12.5015 17.6602C10.9219 17.6602 9.64136 18.9407 9.64136 20.5203C9.64136 22.0999 10.9219 23.3805 12.5015 23.3805Z" fill="url(#paint2_radial_1473_2556)"/>
<g filter="url(#filter0_i_1473_2556)">
<path d="M13.4406 2.55C13.4406 2.03051 13.0194 1.60938 12.5 1.60938C11.9805 1.60938 11.5593 2.03051 11.5593 2.55V4.07578C11.5593 4.59527 11.9805 5.01641 12.5 5.01641C13.0194 5.01641 13.4406 4.59527 13.4406 4.07578V2.55Z" fill="url(#paint3_radial_1473_2556)"/>
</g>
<g filter="url(#filter1_iii_1473_2556)">
<path d="M6.23281 8.33907C6.51374 6.93229 7.27005 5.66497 8.37481 4.74984C9.47957 3.83471 10.8655 3.32748 12.3 3.31329H12.7008C14.1351 3.32766 15.5209 3.83497 16.6255 4.75008C17.7301 5.6652 18.4863 6.93242 18.7672 8.33907L20.2203 15.6172C20.3249 16.1406 20.5619 16.6285 20.9086 17.0344L21.8773 18.168C22.3602 18.734 22.6253 19.4537 22.625 20.1977V21.2336C22.625 21.389 22.5633 21.538 22.4534 21.6479C22.3435 21.7578 22.1945 21.8195 22.0391 21.8195H2.96094C2.80554 21.8195 2.6565 21.7578 2.54662 21.6479C2.43673 21.538 2.375 21.389 2.375 21.2336V20.1977C2.37466 19.4537 2.63977 18.734 3.12266 18.168L4.09141 17.0352C4.43794 16.629 4.67463 16.1408 4.77891 15.6172L6.23281 8.33907Z" fill="url(#paint4_linear_1473_2556)"/>
</g>
<path d="M6.23281 8.33907C6.51374 6.93229 7.27005 5.66497 8.37481 4.74984C9.47957 3.83471 10.8655 3.32748 12.3 3.31329H12.7008C14.1351 3.32766 15.5209 3.83497 16.6255 4.75008C17.7301 5.6652 18.4863 6.93242 18.7672 8.33907L20.2203 15.6172C20.3249 16.1406 20.5619 16.6285 20.9086 17.0344L21.8773 18.168C22.3602 18.734 22.6253 19.4537 22.625 20.1977V21.2336C22.625 21.389 22.5633 21.538 22.4534 21.6479C22.3435 21.7578 22.1945 21.8195 22.0391 21.8195H2.96094C2.80554 21.8195 2.6565 21.7578 2.54662 21.6479C2.43673 21.538 2.375 21.389 2.375 21.2336V20.1977C2.37466 19.4537 2.63977 18.734 3.12266 18.168L4.09141 17.0352C4.43794 16.629 4.67463 16.1408 4.77891 15.6172L6.23281 8.33907Z" fill="url(#paint5_linear_1473_2556)"/>
<path d="M6.23281 8.33907C6.51374 6.93229 7.27005 5.66497 8.37481 4.74984C9.47957 3.83471 10.8655 3.32748 12.3 3.31329H12.7008C14.1351 3.32766 15.5209 3.83497 16.6255 4.75008C17.7301 5.6652 18.4863 6.93242 18.7672 8.33907L20.2203 15.6172C20.3249 16.1406 20.5619 16.6285 20.9086 17.0344L21.8773 18.168C22.3602 18.734 22.6253 19.4537 22.625 20.1977V21.2336C22.625 21.389 22.5633 21.538 22.4534 21.6479C22.3435 21.7578 22.1945 21.8195 22.0391 21.8195H2.96094C2.80554 21.8195 2.6565 21.7578 2.54662 21.6479C2.43673 21.538 2.375 21.389 2.375 21.2336V20.1977C2.37466 19.4537 2.63977 18.734 3.12266 18.168L4.09141 17.0352C4.43794 16.629 4.67463 16.1408 4.77891 15.6172L6.23281 8.33907Z" fill="url(#paint6_radial_1473_2556)"/>
<g filter="url(#filter2_f_1473_2556)">
<path d="M5.84292 16.6508L4.62183 18.3109H21.0281L19.7101 16.6508H5.84292Z" fill="url(#paint7_linear_1473_2556)"/>
</g>
<g filter="url(#filter3_f_1473_2556)">
<path d="M13.1179 7.28594C13.118 6.85328 13.2767 6.43567 13.5639 6.11211C13.8511 5.78855 14.247 5.58149 14.6766 5.5301C15.1062 5.47871 15.5397 5.58656 15.8951 5.83324C16.2506 6.07992 16.5033 6.44833 16.6054 6.86875L18.9773 16.65H13.1179V7.28594Z" fill="url(#paint8_linear_1473_2556)"/>
</g>
<defs>
<filter id="filter0_i_1473_2556" x="11.5593" y="1.60938" width="2.08123" height="3.40704" filterUnits="userSpaceOnUse" color-interpolation-filters="sRGB">
<feFlood flood-opacity="0" result="BackgroundImageFix"/>
<feBlend mode="normal" in="SourceGraphic" in2="BackgroundImageFix" result="shape"/>
<feColorMatrix in="SourceAlpha" type="matrix" values="0 0 0 0 0 0 0 0 0 0 0 0 0 0 0 0 0 0 127 0" result="hardAlpha"/>
<feOffset dx="0.2"/>
<feGaussianBlur stdDeviation="0.25"/>
<feComposite in2="hardAlpha" operator="arithmetic" k2="-1" k3="1"/>
<feColorMatrix type="matrix" values="0 0 0 0 0.87451 0 0 0 0 0.564706 0 0 0 0 0.341176 0 0 0 1 0"/>
<feBlend mode="normal" in2="shape" result="effect1_innerShadow_1473_2556"/>
</filter>
<filter id="filter1_iii_1473_2556" x="-1.625" y="3.31329" width="25.25" height="18.5063" filterUnits="userSpaceOnUse" color-interpolation-filters="sRGB">
<feFlood flood-opacity="0" result="BackgroundImageFix"/>
<feBlend mode="normal" in="SourceGraphic" in2="BackgroundImageFix" result="shape"/>
<feColorMatrix in="SourceAlpha" type="matrix" values="0 0 0 0 0 0 0 0 0 0 0 0 0 0 0 0 0 0 127 0" result="hardAlpha"/>
<feOffset dx="-4"/>
<feGaussianBlur stdDeviation="2"/>
<feComposite in2="hardAlpha" operator="arithmetic" k2="-1" k3="1"/>
<feColorMatrix type="matrix" values="0 0 0 0 1 0 0 0 0 0.905882 0 0 0 0 0.392157 0 0 0 1 0"/>
<feBlend mode="normal" in2="shape" result="effect1_innerShadow_1473_2556"/>
<feColorMatrix in="SourceAlpha" type="matrix" values="0 0 0 0 0 0 0 0 0 0 0 0 0 0 0 0 0 0 127 0" result="hardAlpha"/>
<feOffset dx="-0.5"/>
<feGaussianBlur stdDeviation="0.5"/>
<feComposite in2="hardAlpha" operator="arithmetic" k2="-1" k3="1"/>
<feColorMatrix type="matrix" values="0 0 0 0 0.996078 0 0 0 0 0.866667 0 0 0 0 0.462745 0 0 0 1 0"/>
<feBlend mode="normal" in2="effect1_innerShadow_1473_2556" result="effect2_innerShadow_1473_2556"/>
<feColorMatrix in="SourceAlpha" type="matrix" values="0 0 0 0 0 0 0 0 0 0 0 0 0 0 0 0 0 0 127 0" result="hardAlpha"/>
<feOffset dx="1"/>
<feGaussianBlur stdDeviation="1"/>
<feComposite in2="hardAlpha" operator="arithmetic" k2="-1" k3="1"/>
<feColorMatrix type="matrix" values="0 0 0 0 0.917647 0 0 0 0 0.572549 0 0 0 0 0.32549 0 0 0 1 0"/>
<feBlend mode="normal" in2="effect2_innerShadow_1473_2556" result="effect3_innerShadow_1473_2556"/>
</filter>
<filter id="filter2_f_1473_2556" x="2.62183" y="14.6508" width="20.4062" height="5.66016" filterUnits="userSpaceOnUse" color-interpolation-filters="sRGB">
<feFlood flood-opacity="0" result="BackgroundImageFix"/>
<feBlend mode="normal" in="SourceGraphic" in2="BackgroundImageFix" result="shape"/>
<feGaussianBlur stdDeviation="1" result="effect1_foregroundBlur_1473_2556"/>
</filter>
<filter id="filter3_f_1473_2556" x="11.1179" y="3.51758" width="9.85938" height="15.1324" filterUnits="userSpaceOnUse" color-interpolation-filters="sRGB">
<feFlood flood-opacity="0" result="BackgroundImageFix"/>
<feBlend mode="normal" in="SourceGraphic" in2="BackgroundImageFix" result="shape"/>
<feGaussianBlur stdDeviation="1" result="effect1_foregroundBlur_1473_2556"/>
</filter>
<radialGradient id="paint0_radial_1473_2556" cx="0" cy="0" r="1" gradientUnits="userSpaceOnUse" gradientTransform="translate(13.8741 23.096) rotate(-126.512) scale(2.30856 3.18823)">
<stop stop-color="#FFC26D"/>
<stop offset="1" stop-color="#F68D61"/>
</radialGradient>
<linearGradient id="paint1_linear_1473_2556" x1="11.9218" y1="21.2156" x2="12.1171" y2="22.6078" gradientUnits="userSpaceOnUse">
<stop offset="0.186" stop-color="#E57356"/>
<stop offset="1" stop-color="#E57356" stop-opacity="0"/>
</linearGradient>
<radialGradient id="paint2_radial_1473_2556" cx="0" cy="0" r="1" gradientUnits="userSpaceOnUse" gradientTransform="translate(13.1914 20.8734) rotate(135) scale(3.17646 5.24145)">
<stop offset="0.441" stop-color="#EA8059" stop-opacity="0"/>
<stop offset="1" stop-color="#C27068"/>
</radialGradient>
<radialGradient id="paint3_radial_1473_2556" cx="0" cy="0" r="1" gradientUnits="userSpaceOnUse" gradientTransform="translate(13.1179 3.3125) rotate(-90) scale(1.70364 1.02539)">
<stop stop-color="#FFE957"/>
<stop offset="1" stop-color="#F7A630"/>
</radialGradient>
<linearGradient id="paint4_linear_1473_2556" x1="14.4273" y1="20.3852" x2="3.86406" y2="20.3852" gradientUnits="userSpaceOnUse">
<stop stop-color="#FCB949"/>
<stop offset="1" stop-color="#E28C37"/>
</linearGradient>
<linearGradient id="paint5_linear_1473_2556" x1="14.1438" y1="22.0219" x2="14.1438" y2="19.6781" gradientUnits="userSpaceOnUse">
<stop stop-color="#D7737D"/>
<stop offset="0.302" stop-color="#FCA162" stop-opacity="0"/>
</linearGradient>
<radialGradient id="paint6_radial_1473_2556" cx="0" cy="0" r="1" gradientUnits="userSpaceOnUse" gradientTransform="translate(17.2195 11.4258) rotate(146.139) scale(17.8773 17.1498)">
<stop offset="0.67" stop-color="#E69136" stop-opacity="0"/>
<stop offset="0.977" stop-color="#CF7D44"/>
</radialGradient>
<linearGradient id="paint7_linear_1473_2556" x1="4.86636" y1="18.3109" x2="20.5398" y2="18.3109" gradientUnits="userSpaceOnUse">
<stop offset="0.277" stop-color="#F5A43C"/>
<stop offset="1" stop-color="#FFE154"/>
</linearGradient>
<linearGradient id="paint8_linear_1473_2556" x1="19.6671" y1="14.5094" x2="12.1414" y2="14.5094" gradientUnits="userSpaceOnUse">
<stop offset="0.118" stop-color="#FFEF6D"/>
<stop offset="1" stop-color="#FFEF6D" stop-opacity="0"/>
</linearGradient>
</defs>
</svg>
