<svg width="22" height="23" viewBox="0 0 22 23" fill="none" xmlns="http://www.w3.org/2000/svg">
<g clip-path="url(#clip0_345_156)">
<path d="M6.77591 17.4521C6.77591 18.1545 6.20722 18.7239 5.50572 18.7239C4.80421 18.7239 4.23552 18.1545 4.23552 17.4521C4.23552 16.7498 4.80421 16.1804 5.50572 16.1804C6.20722 16.1804 6.77591 16.7498 6.77591 17.4521ZM3.11532 19.109C2.56141 19.109 2.11234 19.5586 2.11234 20.1132C2.11234 20.6678 2.56137 21.1174 3.11532 21.1174C3.66927 21.1174 4.1183 20.6678 4.1183 20.1132C4.1183 19.5586 3.66923 19.109 3.11532 19.109ZM17.6822 5.73802C17.294 5.73775 16.9076 5.79219 16.5346 5.89971C16.5935 5.61846 16.6232 5.33186 16.6231 5.0445C16.6231 2.75792 14.7717 0.904251 12.4878 0.904251C10.5773 0.904251 8.96964 2.20161 8.49505 3.96431C7.90363 3.01733 6.85347 2.38697 5.65568 2.38697C3.8072 2.38697 2.30867 3.88727 2.30867 5.73802C2.30801 6.3103 2.45447 6.87313 2.73397 7.37251C1.13988 7.9473 0 9.47471 0 11.2688C0 13.5554 1.85144 15.4091 4.13527 15.4091C5.10907 15.4091 6.00407 15.0719 6.7106 14.508C7.11898 15.3467 7.97852 15.9247 8.97312 15.9247C9.47868 15.9254 9.97261 15.773 10.3898 15.4873C11.0236 16.292 12.0053 16.8092 13.1084 16.8092C14.8462 16.8092 16.2845 15.5269 16.5318 13.856C16.9057 13.9641 17.293 14.0188 17.6822 14.0185C19.9661 14.0185 21.8175 12.1649 21.8175 9.87827C21.8175 7.59169 19.9661 5.73802 17.6822 5.73802Z" fill="#89CEFA"/>
</g>
<defs>
<clipPath id="clip0_345_156">
<rect width="22" height="22" fill="white" transform="translate(0 0.5)"/>
</clipPath>
</defs>
</svg>
