<svg width="22" height="23" viewBox="0 0 22 23" fill="none" xmlns="http://www.w3.org/2000/svg">
<path d="M11 4.16667C10.1491 4.16667 9.33302 4.50469 8.73135 5.10637C8.12967 5.70805 7.79165 6.5241 7.79165 7.37501H9.62498C9.62498 7.01033 9.76985 6.6606 10.0277 6.40273C10.2856 6.14487 10.6353 6.00001 11 6.00001C11.3647 6.00001 11.7144 6.14487 11.9723 6.40273C12.2301 6.6606 12.375 7.01033 12.375 7.37501C12.375 7.73968 12.2301 8.08941 11.9723 8.34728C11.7144 8.60514 11.3647 8.75001 11 8.75001C10.4958 8.75001 10.0833 9.16251 10.0833 9.66667V11.2708L2.19998 17.1833C2.04607 17.2988 1.93237 17.4597 1.87501 17.6434C1.81764 17.827 1.81951 18.024 1.88035 18.2065C1.94119 18.3891 2.05792 18.5478 2.214 18.6603C2.37007 18.7728 2.55759 18.8333 2.74998 18.8333H19.25C19.4424 18.8333 19.6299 18.7728 19.786 18.6603C19.942 18.5478 20.0588 18.3891 20.1196 18.2065C20.1804 18.024 20.1823 17.827 20.125 17.6434C20.0676 17.4597 19.9539 17.2988 19.8 17.1833L11.9166 11.2708V10.4458C12.5781 10.2486 13.1584 9.84331 13.5712 9.2901C13.9841 8.73689 14.2075 8.06528 14.2083 7.37501C14.2083 6.5241 13.8703 5.70805 13.2686 5.10637C12.6669 4.50469 11.8509 4.16667 11 4.16667ZM11 12.875L16.5 17H5.49998L11 12.875Z" fill="#89CEFA"/>
</svg>
