<svg width="22" height="23" viewBox="0 0 22 23" fill="none" xmlns="http://www.w3.org/2000/svg">
<path d="M21.3889 12.7222C21.3889 14.0722 20.2944 13.9445 18.9444 13.9445H3.05553C1.70558 13.9445 0.611084 14.0722 0.611084 12.7222L1.83331 5.3889C1.9097 4.2174 2.92781 2.94446 4.27775 2.94446H17.7222C19.0721 2.94446 20.0389 4.29379 20.1666 5.3889L21.3889 12.7222Z" fill="#36B1FF"/>
<path d="M17.1111 8.44445C17.1111 8.76861 16.9824 9.07948 16.7532 9.3087C16.5239 9.53791 16.2131 9.66668 15.8889 9.66668H6.11114C5.78698 9.66668 5.47611 9.53791 5.2469 9.3087C5.01769 9.07948 4.88892 8.76861 4.88892 8.44445V3.55557C4.88892 3.23141 5.01769 2.92054 5.2469 2.69132C5.47611 2.46211 5.78698 2.33334 6.11114 2.33334H15.8889C16.2131 2.33334 16.5239 2.46211 16.7532 2.69132C16.9824 2.92054 17.1111 3.23141 17.1111 3.55557V8.44445Z" fill="#CCD6DD"/>
<path d="M18.3334 10.8889C18.3334 11.213 18.2046 11.5239 17.9754 11.7531C17.7462 11.9823 17.4353 12.1111 17.1111 12.1111H4.88891C4.56476 12.1111 4.25388 11.9823 4.02467 11.7531C3.79546 11.5239 3.66669 11.213 3.66669 10.8889V5.99999C3.66669 5.67584 3.79546 5.36496 4.02467 5.13575C4.25388 4.90654 4.56476 4.77777 4.88891 4.77777H17.1111C17.4353 4.77777 17.7462 4.90654 17.9754 5.13575C18.2046 5.36496 18.3334 5.67584 18.3334 5.99999V10.8889Z" fill="#E1E8ED"/>
<path d="M19.5556 13.3333C19.5556 13.6575 19.4268 13.9684 19.1976 14.1976C18.9684 14.4268 18.6575 14.5556 18.3333 14.5556H3.66668C3.34253 14.5556 3.03165 14.4268 2.80244 14.1976C2.57323 13.9684 2.44446 13.6575 2.44446 13.3333V8.44445C2.44446 8.1203 2.57323 7.80942 2.80244 7.58021C3.03165 7.351 3.34253 7.22223 3.66668 7.22223H18.3333C18.6575 7.22223 18.9684 7.351 19.1976 7.58021C19.4268 7.80942 19.5556 8.1203 19.5556 8.44445V13.3333Z" fill="#F5F8FA"/>
<path d="M21.3889 19.4444C21.3889 20.0927 21.1313 20.7145 20.6729 21.1729C20.2145 21.6313 19.5927 21.8889 18.9444 21.8889H3.05553C2.40722 21.8889 1.78547 21.6313 1.32705 21.1729C0.868623 20.7145 0.611084 20.0927 0.611084 19.4444V12.7222C0.611084 12.0739 0.868623 11.4522 1.32705 10.9937C1.78547 10.5353 2.40722 10.2778 3.05553 10.2778H18.9444C19.5927 10.2778 20.2145 10.5353 20.6729 10.9937C21.1313 11.4522 21.3889 12.0739 21.3889 12.7222V19.4444Z" fill="#89CEFA"/>
<path d="M13.4445 1.11111H10.3889C10.0648 1.11111 9.75388 1.23988 9.52467 1.4691C9.29546 1.69831 9.16669 2.00918 9.16669 2.33334V2.94445H11.6111C11.9353 2.94445 12.2462 3.07322 12.4754 3.30243C12.7046 3.53164 12.8334 3.84252 12.8334 4.16667H13.4445C13.7686 4.16667 14.0795 4.0379 14.3087 3.80869C14.5379 3.57948 14.6667 3.2686 14.6667 2.94445V2.33334C14.6667 2.00918 14.5379 1.69831 14.3087 1.4691C14.0795 1.23988 13.7686 1.11111 13.4445 1.11111Z" fill="#FCAB40"/>
<path d="M11 3.55554H7.94445C7.6203 3.55554 7.30942 3.68431 7.08021 3.91352C6.851 4.14273 6.72223 4.45361 6.72223 4.77776V5.38888H9.16667C9.49083 5.38888 9.8017 5.51765 10.0309 5.74686C10.2601 5.97607 10.3889 6.28694 10.3889 6.6111H11C11.3242 6.6111 11.635 6.48233 11.8642 6.25312C12.0935 6.02391 12.2222 5.71303 12.2222 5.38888V4.77776C12.2222 4.45361 12.0935 4.14273 11.8642 3.91352C11.635 3.68431 11.3242 3.55554 11 3.55554Z" fill="#5DADEC"/>
<path d="M9.77777 7.83333C9.77777 8.15749 9.649 8.46836 9.41979 8.69757C9.19058 8.92679 8.8797 9.05556 8.55555 9.05556H5.49999C5.17584 9.05556 4.86496 8.92679 4.63575 8.69757C4.40654 8.46836 4.27777 8.15749 4.27777 7.83333V7.22222C4.27777 6.89807 4.40654 6.58719 4.63575 6.35798C4.86496 6.12877 5.17584 6 5.49999 6H8.55555C8.8797 6 9.19058 6.12877 9.41979 6.35798C9.649 6.58719 9.77777 6.89807 9.77777 7.22222V7.83333Z" fill="#E75A70"/>
<path d="M15.2778 17.6111C15.2778 17.9353 15.149 18.2462 14.9198 18.4754C14.6906 18.7046 14.3797 18.8333 14.0556 18.8333H7.94445C7.6203 18.8333 7.30942 18.7046 7.08021 18.4754C6.851 18.2462 6.72223 17.9353 6.72223 17.6111V14.5556C6.72223 14.2314 6.851 13.9205 7.08021 13.6913C7.30942 13.4621 7.6203 13.3333 7.94445 13.3333H14.0556C14.3797 13.3333 14.6906 13.4621 14.9198 13.6913C15.149 13.9205 15.2778 14.2314 15.2778 14.5556V17.6111Z" fill="#36B1FF"/>
<path d="M14.0556 17C14.0556 17.1621 13.9912 17.3175 13.8766 17.4321C13.762 17.5467 13.6065 17.6111 13.4445 17.6111H8.55557C8.39349 17.6111 8.23805 17.5467 8.12345 17.4321C8.00884 17.3175 7.94446 17.1621 7.94446 17V15.1667C7.94446 15.0046 8.00884 14.8491 8.12345 14.7345C8.23805 14.6199 8.39349 14.5555 8.55557 14.5555H13.4445C13.6065 14.5555 13.762 14.6199 13.8766 14.7345C13.9912 14.8491 14.0556 15.0046 14.0556 15.1667V17Z" fill="#E1E8ED"/>
</svg>
