<svg width="22" height="23" viewBox="0 0 22 23" fill="none" xmlns="http://www.w3.org/2000/svg">
<g clip-path="url(#clip0_345_143)">
<path d="M6.72222 1.72222C4.88889 1.72222 0 2.94444 0 4.16667C0 5.38889 0.611111 8.44444 1.22222 9.66667C1.83333 10.8889 6.11111 9.66667 6.72222 9.05556C7.33333 8.44444 7.94445 1.72222 6.72222 1.72222Z" fill="#89CEFA"/>
<path d="M0.611111 3.38261C0.215111 3.60933 0 3.90083 0 4.16667C0 5.38889 0.611111 8.44444 1.22222 9.66667C1.39394 10.0101 1.85717 10.1415 2.44444 10.1861C1.83333 8.44444 1.22222 6 0.611111 3.38261Z" fill="#55ACEE"/>
<path d="M15.2778 1.72222C17.1111 1.72222 22 2.94444 22 4.16667C22 5.38889 21.3889 8.44444 20.7778 9.66667C20.1667 10.8889 15.8889 9.66667 15.2778 9.05556C14.6667 8.44444 14.0556 1.72222 15.2778 1.72222Z" fill="#89CEFA"/>
<path d="M21.3889 3.38261C21.7849 3.60933 22 3.90083 22 4.16667C22 5.38889 21.3889 8.44444 20.7778 9.66667C20.606 10.0101 20.1428 10.1415 19.5555 10.1861C20.1667 8.44444 20.7778 6 21.3889 3.38261Z" fill="#55ACEE"/>
<path d="M15.2778 1.72222H14.6251C14.3703 2.75805 12.8461 3.55555 11 3.55555C9.15381 3.55555 7.6297 2.75805 7.37487 1.72222H6.7222C5.37226 1.72222 3.66665 2.81672 3.66665 4.16667C3.66665 4.16667 3.66665 16.3889 3.05553 18.8333C2.44442 21.2778 4.15003 21.2778 5.49998 21.2778H16.5C17.8499 21.2778 19.5555 21.2778 18.9444 18.8333C18.3333 16.3889 18.3333 4.16667 18.3333 4.16667C18.3333 2.81672 16.6277 1.72222 15.2778 1.72222Z" fill="#89CEFA"/>
<path d="M11 4.77778C13.3626 4.77778 15.2778 3.4095 15.2778 1.72222H14.6251C14.3703 2.75805 12.8462 3.55555 11 3.55555C9.15384 3.55555 7.62973 2.75805 7.3749 1.72222H6.72223C6.72223 3.4095 8.63745 4.77778 11 4.77778Z" fill="#55ACEE"/>
</g>
<defs>
<clipPath id="clip0_345_143">
<rect width="22" height="22" fill="white" transform="translate(0 0.5)"/>
</clipPath>
</defs>
</svg>
