<svg width="24" height="22" viewBox="0 0 24 22" fill="none" xmlns="http://www.w3.org/2000/svg">
<path d="M11.815 0C13.9512 0 15.927 0.415752 17.7423 1.24725C19.5576 2.07876 20.9927 3.20944 22.0476 4.63928C23.1025 6.06906 23.63 7.62869 23.63 9.31811C23.63 11.0075 23.1025 12.5693 22.0476 14.0036C20.9927 15.4378 19.5598 16.5707 17.7489 17.4022C15.9379 18.2336 13.96 18.6494 11.815 18.6494C11.1381 18.6494 10.4392 18.601 9.71836 18.5042C6.58877 20.6776 4.92293 21.7775 4.72074 21.8038C4.62403 21.839 4.5317 21.8346 4.4438 21.7907C4.40863 21.7643 4.38227 21.729 4.36468 21.685C4.34709 21.641 4.33832 21.6015 4.33832 21.5662V21.5135C4.39109 21.1703 4.79104 19.7405 5.53829 17.224C3.84163 16.3793 2.49442 15.2596 1.49666 13.865C0.498885 12.4704 0 10.9547 0 9.31811C0 7.62869 0.527456 6.06906 1.58237 4.63928C2.63728 3.20944 4.07239 2.07876 5.88772 1.24725C7.70304 0.415752 9.6788 0 11.815 0Z" fill="#4C232D"/>
</svg>
