<svg width="122" height="29" viewBox="0 0 122 29" fill="none" xmlns="http://www.w3.org/2000/svg">
<path d="M19.5 28.5C24.5683 28.5 29.176 26.9599 32.5279 24.4459C35.88 21.9319 38 18.4206 38 14.5C38 10.5794 35.88 7.06811 32.5279 4.55406C29.176 2.04012 24.5683 0.5 19.5 0.5C14.4317 0.5 9.824 2.04012 6.47208 4.55406C3.12001 7.06811 1 10.5794 1 14.5C1 18.4206 3.12001 21.9319 6.47208 24.4459C9.824 26.9599 14.4317 28.5 19.5 28.5Z" fill="#89CEFA" stroke="#7B7B7B"/>
<path d="M26 14.5C26 15.5322 25.3962 16.52 24.3116 17.2709C23.2289 18.0204 21.7061 18.5 20 18.5C18.2939 18.5 16.7711 18.0204 15.6884 17.2709C14.6038 16.52 14 15.5322 14 14.5C14 13.4678 14.6038 12.48 15.6884 11.7291C16.7711 10.9796 18.2939 10.5 20 10.5C21.7061 10.5 23.2289 10.9796 24.3116 11.7291C25.3962 12.48 26 13.4678 26 14.5Z" fill="white" stroke="#7B7B7B"/>
<path d="M44 1.5H79V27.5H48.5C46.0147 27.5 44 25.4853 44 23V1.5Z" fill="#89CEFA"/>
<path d="M44 1.5H79V27.5H48.5C46.0147 27.5 44 25.4853 44 23V1.5Z" stroke="#7B7B7B"/>
<rect x="56" y="11" width="11" height="7" fill="white" stroke="#7B7B7B"/>
<path d="M102.5 28.5C107.568 28.5 112.176 26.9599 115.528 24.4459C118.88 21.9319 121 18.4206 121 14.5C121 10.5794 118.88 7.06811 115.528 4.55406C112.176 2.04012 107.568 0.5 102.5 0.5C97.4317 0.5 92.824 2.04012 89.4721 4.55406C86.12 7.06811 84 10.5794 84 14.5C84 18.4206 86.12 21.9319 89.4721 24.4459C92.824 26.9599 97.4317 28.5 102.5 28.5Z" fill="#89CEFA" stroke="#7B7B7B"/>
<path d="M109 14.5C109 15.5322 108.396 16.52 107.312 17.2709C106.229 18.0204 104.706 18.5 103 18.5C101.294 18.5 99.7711 18.0204 98.6884 17.2709C97.6038 16.52 97 15.5322 97 14.5C97 13.4678 97.6038 12.48 98.6884 11.7291C99.7711 10.9796 101.294 10.5 103 10.5C104.706 10.5 106.229 10.9796 107.312 11.7291C108.396 12.48 109 13.4678 109 14.5Z" fill="white" stroke="#7B7B7B"/>
</svg>
