<svg width="40" height="40" viewBox="0 0 40 40" fill="none" xmlns="http://www.w3.org/2000/svg">
<g filter="url(#filter0_i_346_1719)">
<path fill-rule="evenodd" clip-rule="evenodd" d="M37.4975 19.9987C37.4975 24.83 36.04 29.2038 33.125 32.37V35.625L32.5 37.5H30.625L29.0925 35.4575C26.6112 36.7588 23.58 37.4975 19.9987 37.4975C18.7162 37.5014 17.4355 37.3985 16.17 37.19L15 38.75L13.125 39.375L12.5 38.75L11.25 37.5V35.6325C10.775 35.3975 10.3183 35.1425 9.88 34.8675L9.375 35.625L7.5 36.25L6.25 34.375V31.65C3.75 28.555 2.5 24.4725 2.5 19.9987C2.5 10.335 8.33 2.5 19.9987 2.5C31.6662 2.5 37.4975 10.335 37.4975 19.9987Z" fill="url(#paint0_radial_346_1719)"/>
</g>
<path d="M11.25 25C14.7018 25 17.5 22.2018 17.5 18.75C17.5 15.2982 14.7018 12.5 11.25 12.5C7.79822 12.5 5 15.2982 5 18.75C5 22.2018 7.79822 25 11.25 25Z" fill="url(#paint1_radial_346_1719)"/>
<path d="M24.375 25C27.4816 25 30 22.4816 30 19.375C30 16.2684 27.4816 13.75 24.375 13.75C21.2684 13.75 18.75 16.2684 18.75 19.375C18.75 22.4816 21.2684 25 24.375 25Z" fill="url(#paint2_radial_346_1719)"/>
<path d="M13.125 22.5C14.6168 22.5 16.0476 21.9074 17.1025 20.8525C18.1574 19.7976 18.75 18.3668 18.75 16.875C18.75 15.3832 18.1574 13.9524 17.1025 12.8975C16.0476 11.8426 14.6168 11.25 13.125 11.25C11.6332 11.25 10.2024 11.8426 9.14752 12.8975C8.09263 13.9524 7.5 15.3832 7.5 16.875C7.5 18.3668 8.09263 19.7976 9.14752 20.8525C10.2024 21.9074 11.6332 22.5 13.125 22.5ZM26.875 22.5C28.3668 22.5 29.7976 21.9074 30.8525 20.8525C31.9074 19.7976 32.5 18.3668 32.5 16.875C32.5 15.3832 31.9074 13.9524 30.8525 12.8975C29.7976 11.8426 28.3668 11.25 26.875 11.25C25.3832 11.25 23.9524 11.8426 22.8975 12.8975C21.8426 13.9524 21.25 15.3832 21.25 16.875C21.25 18.3668 21.8426 19.7976 22.8975 20.8525C23.9524 21.9074 25.3832 22.5 26.875 22.5Z" fill="white"/>
<path d="M15 20C15.663 20 16.2989 19.7366 16.7678 19.2678C17.2366 18.7989 17.5 18.163 17.5 17.5C17.5 16.837 17.2366 16.2011 16.7678 15.7322C16.2989 15.2634 15.663 15 15 15C14.337 15 13.7011 15.2634 13.2322 15.7322C12.7634 16.2011 12.5 16.837 12.5 17.5C12.5 18.163 12.7634 18.7989 13.2322 19.2678C13.7011 19.7366 14.337 20 15 20Z" fill="url(#paint3_linear_346_1719)"/>
<path d="M25 20C25.663 20 26.2989 19.7366 26.7678 19.2678C27.2366 18.7989 27.5 18.163 27.5 17.5C27.5 16.837 27.2366 16.2011 26.7678 15.7322C26.2989 15.2634 25.663 15 25 15C24.337 15 23.7011 15.2634 23.2322 15.7322C22.7634 16.2011 22.5 16.837 22.5 17.5C22.5 18.163 22.7634 18.7989 23.2322 19.2678C23.7011 19.7366 24.337 20 25 20Z" fill="url(#paint4_linear_346_1719)"/>
<path d="M37.3412 19.9987C37.3412 24.8 35.8925 29.1337 33.0087 32.2663C30.1262 35.3962 25.7962 37.3412 19.9987 37.3412C14.2012 37.3412 9.87125 35.3962 6.98875 32.2663C4.105 29.1337 2.65625 24.8 2.65625 19.9987C2.65625 15.1975 4.105 10.8625 6.98875 7.73125C9.87125 4.60125 14.2012 2.65625 19.9987 2.65625C25.7962 2.65625 30.1262 4.60125 33.0087 7.73125C35.8925 10.8625 37.3412 15.1975 37.3412 19.9987Z" fill="url(#paint5_linear_346_1719)" stroke="url(#paint6_radial_346_1719)" stroke-width="0.3125"/>
<path d="M25 23.75H15C12.9289 23.75 11.25 25.4289 11.25 27.5C11.25 29.5711 12.9289 31.25 15 31.25H25C27.0711 31.25 28.75 29.5711 28.75 27.5C28.75 25.4289 27.0711 23.75 25 23.75Z" fill="#3A3E67"/>
<path fill-rule="evenodd" clip-rule="evenodd" d="M25 23.75H15C14.3676 23.7499 13.7455 23.9097 13.1915 24.2146C12.6375 24.5195 12.1696 24.9595 11.8312 25.4938L12.0725 26.2188C12.1971 26.5919 12.4359 26.9165 12.7551 27.1464C13.0743 27.3763 13.4578 27.5001 13.8512 27.5H26.1487C26.5423 27.5 26.9259 27.3761 27.2451 27.1459C27.5644 26.9157 27.8031 26.5909 27.9275 26.2175L28.1687 25.4938C27.8304 24.9595 27.3625 24.5195 26.8085 24.2146C26.2545 23.9097 25.6323 23.7499 25 23.75Z" fill="url(#paint7_linear_346_1719)"/>
<path fill-rule="evenodd" clip-rule="evenodd" d="M15 31.25H25C25.3291 31.2492 25.6466 31.2083 25.9525 31.1275C26.2587 31.0112 26.5291 30.8167 26.7368 30.5634C26.9445 30.3101 27.0822 30.0068 27.1362 29.6838L27.3787 28.2275C27.3936 28.1379 27.3888 28.0461 27.3646 27.9586C27.3404 27.871 27.2975 27.7898 27.2387 27.7206C27.1799 27.6513 27.1067 27.5957 27.0243 27.5576C26.9418 27.5195 26.8521 27.4999 26.7612 27.5H13.2375C13.1469 27.5002 13.0574 27.5201 12.9752 27.5584C12.8931 27.5966 12.8202 27.6523 12.7617 27.7215C12.7032 27.7907 12.6605 27.8718 12.6364 27.9592C12.6124 28.0466 12.6076 28.1381 12.6225 28.2275L12.865 29.6838C12.9775 30.3563 13.44 30.8963 14.0462 31.1275C14.3521 31.2083 14.6704 31.2492 15.0012 31.25" fill="url(#paint8_linear_346_1719)"/>
<path d="M13.125 6.875C13.125 6.875 12.5 10.625 8.125 10.625" stroke="url(#paint9_linear_346_1719)" stroke-width="1.5625" stroke-linecap="round" stroke-linejoin="round"/>
<path d="M13.125 6.875C13.125 6.875 12.5 10.625 8.125 10.625" stroke="url(#paint10_radial_346_1719)" stroke-width="1.5625" stroke-linecap="round" stroke-linejoin="round"/>
<path d="M26.875 6.875C26.875 6.875 27.5 10.625 31.875 10.625" stroke="url(#paint11_radial_346_1719)" stroke-width="1.5625" stroke-linecap="round" stroke-linejoin="round"/>
<defs>
<filter id="filter0_i_346_1719" x="2.5" y="2.5" width="36.2475" height="39.375" filterUnits="userSpaceOnUse" color-interpolation-filters="sRGB">
<feFlood flood-opacity="0" result="BackgroundImageFix"/>
<feBlend mode="normal" in="SourceGraphic" in2="BackgroundImageFix" result="shape"/>
<feColorMatrix in="SourceAlpha" type="matrix" values="0 0 0 0 0 0 0 0 0 0 0 0 0 0 0 0 0 0 127 0" result="hardAlpha"/>
<feOffset dx="1.25" dy="2.5"/>
<feGaussianBlur stdDeviation="1.5625"/>
<feComposite in2="hardAlpha" operator="arithmetic" k2="-1" k3="1"/>
<feColorMatrix type="matrix" values="0 0 0 0 0 0 0 0 0 0 0 0 0 0 0 0 0 0 0.16 0"/>
<feBlend mode="normal" in2="shape" result="effect1_innerShadow_346_1719"/>
</filter>
<radialGradient id="paint0_radial_346_1719" cx="0" cy="0" r="1" gradientUnits="userSpaceOnUse" gradientTransform="translate(33.125 13.125) rotate(136.548) scale(32.7156 51.1685)">
<stop stop-color="#BCDFFF"/>
<stop offset="0.457" stop-color="#BDB5FF"/>
<stop offset="1" stop-color="#AE89FF"/>
</radialGradient>
<radialGradient id="paint1_radial_346_1719" cx="0" cy="0" r="1" gradientUnits="userSpaceOnUse" gradientTransform="translate(14.375 15) rotate(132.51) scale(10.1743 5.26586)">
<stop offset="0.309" stop-color="#765FD7"/>
<stop offset="1" stop-color="#765FD7" stop-opacity="0"/>
</radialGradient>
<radialGradient id="paint2_radial_346_1719" cx="0" cy="0" r="1" gradientUnits="userSpaceOnUse" gradientTransform="translate(27.1875 16) rotate(132.51) scale(9.15684 4.73927)">
<stop offset="0.053" stop-color="#765FD7"/>
<stop offset="1" stop-color="#765FD7" stop-opacity="0"/>
</radialGradient>
<linearGradient id="paint3_linear_346_1719" x1="25.7687" y1="15" x2="24.9087" y2="20.0375" gradientUnits="userSpaceOnUse">
<stop stop-color="#553B3E"/>
<stop offset="1" stop-color="#3D2432"/>
</linearGradient>
<linearGradient id="paint4_linear_346_1719" x1="25.7687" y1="15" x2="24.9087" y2="20.0375" gradientUnits="userSpaceOnUse">
<stop stop-color="#553B3E"/>
<stop offset="1" stop-color="#3D2432"/>
</linearGradient>
<linearGradient id="paint5_linear_346_1719" x1="19.9988" y1="2.5" x2="19.9988" y2="13.75" gradientUnits="userSpaceOnUse">
<stop stop-color="#5DA0FF"/>
<stop offset="1" stop-color="#5DA0FF" stop-opacity="0"/>
</linearGradient>
<radialGradient id="paint6_radial_346_1719" cx="0" cy="0" r="1" gradientUnits="userSpaceOnUse" gradientTransform="translate(20 35.625) rotate(-90) scale(19.375)">
<stop stop-color="#F4BCFF"/>
<stop offset="1" stop-color="#F4BCFF" stop-opacity="0"/>
</radialGradient>
<linearGradient id="paint7_linear_346_1719" x1="22.3337" y1="26.25" x2="22.3337" y2="27.5" gradientUnits="userSpaceOnUse">
<stop stop-color="#FFF2FF"/>
<stop offset="0.717" stop-color="#FFECFF"/>
<stop offset="0.988" stop-color="#383B64"/>
</linearGradient>
<linearGradient id="paint8_linear_346_1719" x1="22.4637" y1="27.5" x2="22.4637" y2="33.75" gradientUnits="userSpaceOnUse">
<stop stop-color="#FFF7FF"/>
<stop offset="1" stop-color="#FFE1FF"/>
</linearGradient>
<linearGradient id="paint9_linear_346_1719" x1="11.875" y1="6.25" x2="11.875" y2="8.125" gradientUnits="userSpaceOnUse">
<stop offset="0.03" stop-color="#524049"/>
<stop offset="1" stop-color="#4A2C42"/>
</linearGradient>
<radialGradient id="paint10_radial_346_1719" cx="0" cy="0" r="1" gradientUnits="userSpaceOnUse" gradientTransform="translate(8.75 6.25) rotate(54.4623) scale(5.37645)">
<stop offset="0.542" stop-color="#493032"/>
<stop offset="0.807" stop-color="#5E445A"/>
<stop offset="0.955" stop-color="#4A2C42"/>
</radialGradient>
<radialGradient id="paint11_radial_346_1719" cx="0" cy="0" r="1" gradientUnits="userSpaceOnUse" gradientTransform="translate(31.2494 6.25111) rotate(125.538) scale(5.37645)">
<stop stop-color="#C2B4B5"/>
<stop offset="0.887" stop-color="#462B45"/>
<stop offset="1" stop-color="#4A2C42"/>
</radialGradient>
</defs>
</svg>
