<svg width="40" height="40" viewBox="0 0 40 40" fill="none" xmlns="http://www.w3.org/2000/svg">
<path d="M19.9987 37.4975C31.6662 37.4975 37.4975 29.6625 37.4975 19.9975C37.4975 10.335 31.6663 2.5 19.9975 2.5C8.33125 2.5 2.5 10.335 2.5 19.9987C2.5 29.6625 8.33 37.4975 19.9987 37.4975Z" fill="url(#paint0_radial_346_1763)"/>
<path d="M19.9987 37.4975C31.6662 37.4975 37.4975 29.6625 37.4975 19.9975C37.4975 10.335 31.6663 2.5 19.9975 2.5C8.33125 2.5 2.5 10.335 2.5 19.9987C2.5 29.6625 8.33 37.4975 19.9987 37.4975Z" fill="url(#paint1_radial_346_1763)"/>
<path d="M19.9987 37.4975C31.6662 37.4975 37.4975 29.6625 37.4975 19.9975C37.4975 10.335 31.6663 2.5 19.9975 2.5C8.33125 2.5 2.5 10.335 2.5 19.9987C2.5 29.6625 8.33 37.4975 19.9987 37.4975Z" fill="url(#paint2_radial_346_1763)"/>
<path d="M19.9987 37.4975C31.6662 37.4975 37.4975 29.6625 37.4975 19.9975C37.4975 10.335 31.6663 2.5 19.9975 2.5C8.33125 2.5 2.5 10.335 2.5 19.9987C2.5 29.6625 8.33 37.4975 19.9987 37.4975Z" fill="url(#paint3_radial_346_1763)" fill-opacity="0.6"/>
<path d="M19.9987 37.4975C31.6662 37.4975 37.4975 29.6625 37.4975 19.9975C37.4975 10.335 31.6663 2.5 19.9975 2.5C8.33125 2.5 2.5 10.335 2.5 19.9987C2.5 29.6625 8.33 37.4975 19.9987 37.4975Z" fill="url(#paint4_radial_346_1763)"/>
<path d="M19.9987 37.4975C31.6662 37.4975 37.4975 29.6625 37.4975 19.9975C37.4975 10.335 31.6663 2.5 19.9975 2.5C8.33125 2.5 2.5 10.335 2.5 19.9987C2.5 29.6625 8.33 37.4975 19.9987 37.4975Z" fill="url(#paint5_radial_346_1763)"/>
<path d="M19.9987 37.4975C31.6662 37.4975 37.4975 29.6625 37.4975 19.9975C37.4975 10.335 31.6663 2.5 19.9975 2.5C8.33125 2.5 2.5 10.335 2.5 19.9987C2.5 29.6625 8.33 37.4975 19.9987 37.4975Z" fill="url(#paint6_radial_346_1763)"/>
<path d="M19.9987 37.4975C31.6662 37.4975 37.4975 29.6625 37.4975 19.9975C37.4975 10.335 31.6663 2.5 19.9975 2.5C8.33125 2.5 2.5 10.335 2.5 19.9987C2.5 29.6625 8.33 37.4975 19.9987 37.4975Z" fill="url(#paint7_radial_346_1763)"/>
<path d="M11.2712 22.6176C14.4973 22.6176 17.1125 20.0023 17.1125 16.7763C17.1125 13.5503 14.4973 10.9351 11.2712 10.9351C8.04521 10.9351 5.42999 13.5503 5.42999 16.7763C5.42999 20.0023 8.04521 22.6176 11.2712 22.6176Z" fill="url(#paint8_radial_346_1763)"/>
<path d="M24.055 22.7338C26.9849 22.7338 29.36 20.3586 29.36 17.4288C29.36 14.4989 26.9849 12.1238 24.055 12.1238C21.1251 12.1238 18.75 14.4989 18.75 17.4288C18.75 20.3586 21.1251 22.7338 24.055 22.7338Z" fill="url(#paint9_radial_346_1763)"/>
<path d="M13.025 20.28C13.7222 20.2908 14.4145 20.1627 15.0617 19.9034C15.7089 19.644 16.2981 19.2585 16.7949 18.7693C17.2917 18.2801 17.6863 17.6969 17.9556 17.0538C18.2249 16.4107 18.3636 15.7204 18.3636 15.0231C18.3636 14.3259 18.2249 13.6356 17.9556 12.9925C17.6863 12.3493 17.2917 11.7662 16.7949 11.277C16.2981 10.7878 15.7089 10.4023 15.0617 10.1429C14.4145 9.88354 13.7222 9.75551 13.025 9.76627C11.6448 9.78755 10.3284 10.3508 9.35991 11.3343C8.39142 12.3178 7.84857 13.6428 7.84857 15.0231C7.84857 16.4035 8.39142 17.7284 9.35991 18.712C10.3284 19.6955 11.6448 20.2587 13.025 20.28ZM26.96 20.3763C28.3671 20.3763 29.7167 19.8173 30.7117 18.8223C31.7066 17.8273 32.2656 16.4778 32.2656 15.0706C32.2656 13.6635 31.7066 12.314 30.7117 11.319C29.7167 10.324 28.3671 9.76501 26.96 9.76501C25.5527 9.76501 24.203 10.3241 23.2079 11.3192C22.2128 12.3143 21.6538 13.664 21.6538 15.0713C21.6538 16.4786 22.2128 17.8282 23.2079 18.8233C24.203 19.8185 25.5527 20.3763 26.96 20.3763Z" fill="white"/>
<path d="M13.75 18.75C14.7446 18.75 15.6984 18.3549 16.4017 17.6517C17.1049 16.9484 17.5 15.9946 17.5 15C17.5 14.0054 17.1049 13.0516 16.4017 12.3483C15.6984 11.6451 14.7446 11.25 13.75 11.25C12.7554 11.25 11.8016 11.6451 11.0983 12.3483C10.3951 13.0516 10 14.0054 10 15C10 15.9946 10.3951 16.9484 11.0983 17.6517C11.8016 18.3549 12.7554 18.75 13.75 18.75Z" fill="url(#paint10_linear_346_1763)"/>
<path d="M26.25 18.75C27.2446 18.75 28.1984 18.3549 28.9017 17.6517C29.6049 16.9484 30 15.9946 30 15C30 14.0054 29.6049 13.0516 28.9017 12.3483C28.1984 11.6451 27.2446 11.25 26.25 11.25C25.2554 11.25 24.3016 11.6451 23.5983 12.3483C22.8951 13.0516 22.5 14.0054 22.5 15C22.5 15.9946 22.8951 16.9484 23.5983 17.6517C24.3016 18.3549 25.2554 18.75 26.25 18.75Z" fill="url(#paint11_linear_346_1763)"/>
<path d="M19.9988 32.5C11.2488 32.5 11.2488 23.75 11.2488 23.75H28.7488C28.7488 23.75 28.7488 32.5 19.9988 32.5Z" fill="url(#paint12_radial_346_1763)"/>
<path d="M20.02 36.25C25.27 36.25 26.1075 31 26.27 29.6875C26.395 28.625 25.8325 28.0875 25.22 27.725C24.6075 27.3625 22.77 27.025 20.02 27.025C17.27 27.025 15.445 27.3625 14.82 27.725C14.195 28.0875 13.6325 28.625 13.77 29.6875C13.9325 31 14.77 36.25 20.02 36.25Z" fill="url(#paint13_radial_346_1763)"/>
<g opacity="0.5" filter="url(#filter0_f_346_1763)">
<path d="M22.5 33.125C23.75 32.5 25 31.25 25 29.375" stroke="white" stroke-width="1.25"/>
</g>
<path d="M28.5738 25.5375C28.6863 24.9625 28.7488 24.3625 28.7488 23.75H11.2488C11.2488 24.3625 11.3113 24.95 11.4238 25.5375H28.5738Z" fill="url(#paint14_linear_346_1763)"/>
<defs>
<filter id="filter0_f_346_1763" x="20.9705" y="28.125" width="5.90448" height="6.80896" filterUnits="userSpaceOnUse" color-interpolation-filters="sRGB">
<feFlood flood-opacity="0" result="BackgroundImageFix"/>
<feBlend mode="normal" in="SourceGraphic" in2="BackgroundImageFix" result="shape"/>
<feGaussianBlur stdDeviation="0.625" result="effect1_foregroundBlur_346_1763"/>
</filter>
<radialGradient id="paint0_radial_346_1763" cx="0" cy="0" r="1" gradientUnits="userSpaceOnUse" gradientTransform="translate(31.8752 11.2495) rotate(132.839) scale(46.8791)">
<stop stop-color="#FFF478"/>
<stop offset="0.475" stop-color="#FFB02E"/>
<stop offset="1" stop-color="#F70A8D"/>
</radialGradient>
<radialGradient id="paint1_radial_346_1763" cx="0" cy="0" r="1" gradientUnits="userSpaceOnUse" gradientTransform="translate(31.8735 11.2508) rotate(131.878) scale(48.6859)">
<stop stop-color="#FFF478"/>
<stop offset="0.475" stop-color="#FFB02E"/>
<stop offset="1" stop-color="#F70A8D"/>
</radialGradient>
<radialGradient id="paint2_radial_346_1763" cx="0" cy="0" r="1" gradientUnits="userSpaceOnUse" gradientTransform="translate(19.9991 15.6247) rotate(101.31) scale(22.3082 28.5726)">
<stop offset="0.788" stop-color="#F59639" stop-opacity="0"/>
<stop offset="0.973" stop-color="#FF7DCE"/>
</radialGradient>
<radialGradient id="paint3_radial_346_1763" cx="0" cy="0" r="1" gradientUnits="userSpaceOnUse" gradientTransform="translate(22.5 17.5) rotate(135) scale(51.2652)">
<stop offset="0.315" stop-opacity="0"/>
<stop offset="1"/>
</radialGradient>
<radialGradient id="paint4_radial_346_1763" cx="0" cy="0" r="1" gradientUnits="userSpaceOnUse" gradientTransform="translate(19.9999 21.2509) rotate(77.692) scale(35.1836)">
<stop offset="0.508" stop-color="#7D6133" stop-opacity="0"/>
<stop offset="1" stop-color="#715B32"/>
</radialGradient>
<radialGradient id="paint5_radial_346_1763" cx="0" cy="0" r="1" gradientUnits="userSpaceOnUse" gradientTransform="translate(20.625 20.625) rotate(55.713) scale(16.6419 12.0629)">
<stop stop-color="#FFB849"/>
<stop offset="1" stop-color="#FFB847" stop-opacity="0"/>
</radialGradient>
<radialGradient id="paint6_radial_346_1763" cx="0" cy="0" r="1" gradientUnits="userSpaceOnUse" gradientTransform="translate(25.625 22.5) rotate(9.86582) scale(14.5907)">
<stop stop-color="#FFA64B"/>
<stop offset="0.9" stop-color="#FFAE46" stop-opacity="0"/>
</radialGradient>
<radialGradient id="paint7_radial_346_1763" cx="0" cy="0" r="1" gradientUnits="userSpaceOnUse" gradientTransform="translate(21.8751 18.7503) rotate(43.971) scale(73.8161)">
<stop offset="0.185" stop-opacity="0"/>
<stop offset="1" stop-opacity="0.4"/>
</radialGradient>
<radialGradient id="paint8_radial_346_1763" cx="0" cy="0" r="1" gradientUnits="userSpaceOnUse" gradientTransform="translate(15.8163 12.2312) rotate(135) scale(11.3822 5.89106)">
<stop stop-color="#392108"/>
<stop offset="1" stop-color="#C87928" stop-opacity="0"/>
</radialGradient>
<radialGradient id="paint9_radial_346_1763" cx="0" cy="0" r="1" gradientUnits="userSpaceOnUse" gradientTransform="translate(28.1822 13.3016) rotate(135) scale(9.5871 5.41207)">
<stop stop-color="#392108"/>
<stop offset="1" stop-color="#C87928" stop-opacity="0"/>
</radialGradient>
<linearGradient id="paint10_linear_346_1763" x1="20.625" y1="10" x2="19.375" y2="18.75" gradientUnits="userSpaceOnUse">
<stop stop-color="#553B3E"/>
<stop offset="1" stop-color="#3D2432"/>
</linearGradient>
<linearGradient id="paint11_linear_346_1763" x1="20.625" y1="10" x2="19.375" y2="18.75" gradientUnits="userSpaceOnUse">
<stop stop-color="#553B3E"/>
<stop offset="1" stop-color="#3D2432"/>
</linearGradient>
<radialGradient id="paint12_radial_346_1763" cx="0" cy="0" r="1" gradientUnits="userSpaceOnUse" gradientTransform="translate(19.9988 34.445) rotate(-90) scale(10.6944 21.3889)">
<stop stop-color="#F70A8D"/>
<stop offset="1" stop-color="#89029C"/>
</radialGradient>
<radialGradient id="paint13_radial_346_1763" cx="0" cy="0" r="1" gradientUnits="userSpaceOnUse" gradientTransform="translate(20.625 37.5) rotate(-93.0128) scale(11.8914 20.6724)">
<stop stop-color="#FF1C4A"/>
<stop offset="0.766" stop-color="#FF2B8F"/>
<stop offset="0.864" stop-color="#BB0773"/>
<stop offset="0.886" stop-color="#9F0762"/>
</radialGradient>
<linearGradient id="paint14_linear_346_1763" x1="19.9988" y1="23.75" x2="19.9988" y2="25.5375" gradientUnits="userSpaceOnUse">
<stop stop-color="#ECCDFF"/>
<stop offset="1" stop-color="white"/>
</linearGradient>
</defs>
</svg>
