<svg width="40" height="40" viewBox="0 0 40 40" fill="none" xmlns="http://www.w3.org/2000/svg">
<g filter="url(#filter0_i_346_1735)">
<path d="M19.9987 37.4975C31.6662 37.4975 37.4975 29.6625 37.4975 19.9975C37.4975 10.335 31.6663 2.5 19.9975 2.5C8.33125 2.5 2.5 10.335 2.5 19.9987C2.5 29.6625 8.33 37.4975 19.9987 37.4975Z" fill="url(#paint0_radial_346_1735)"/>
</g>
<path d="M19.9987 37.4975C31.6662 37.4975 37.4975 29.6625 37.4975 19.9975C37.4975 10.335 31.6663 2.5 19.9975 2.5C8.33125 2.5 2.5 10.335 2.5 19.9987C2.5 29.6625 8.33 37.4975 19.9987 37.4975Z" fill="url(#paint1_radial_346_1735)"/>
<path d="M19.9987 37.4975C31.6662 37.4975 37.4975 29.6625 37.4975 19.9975C37.4975 10.335 31.6663 2.5 19.9975 2.5C8.33125 2.5 2.5 10.335 2.5 19.9987C2.5 29.6625 8.33 37.4975 19.9987 37.4975Z" fill="url(#paint2_radial_346_1735)"/>
<g opacity="0.9" filter="url(#filter1_f_346_1735)">
<path d="M28.1442 9.35824L28.1433 9.35912C27.4194 10.0831 27.4194 11.2568 28.1433 11.9807L30.566 14.4034C31.29 15.1274 32.4637 15.1274 33.1876 14.4034L33.1885 14.4026C33.9125 13.6786 33.9125 12.5049 33.1885 11.781L30.7658 9.35824C30.0419 8.6343 28.8681 8.6343 28.1442 9.35824Z" fill="url(#paint3_radial_346_1735)"/>
</g>
<path d="M10 28.125C10 26.3991 8.60089 25 6.875 25C5.14911 25 3.75 26.3991 3.75 28.125V30.625C3.75 32.3509 5.14911 33.75 6.875 33.75C8.60089 33.75 10 32.3509 10 30.625V28.125Z" fill="url(#paint4_radial_346_1735)"/>
<path d="M37.5 8.125C37.5 6.39911 36.1009 5 34.375 5C32.6491 5 31.25 6.39911 31.25 8.125V10.625C31.25 12.3509 32.6491 13.75 34.375 13.75C36.1009 13.75 37.5 12.3509 37.5 10.625V8.125Z" fill="url(#paint5_radial_346_1735)"/>
<g filter="url(#filter2_f_346_1735)">
<path fill-rule="evenodd" clip-rule="evenodd" d="M10.5612 14.8887C10.5365 14.6832 10.5944 14.4763 10.7221 14.3134C10.8499 14.1505 11.037 14.045 11.2425 14.02C12.765 13.835 13.5125 13.1162 13.9025 12.4887C14.1193 12.1345 14.2689 11.7434 14.3437 11.335L14.3525 11.27V11.26C14.3699 11.0534 14.4686 10.8623 14.627 10.7285C14.7853 10.5948 14.9903 10.5294 15.1969 10.5468C15.4034 10.5642 15.5946 10.663 15.7283 10.8213C15.862 10.9797 15.9274 11.1847 15.91 11.3912V11.4L15.9087 11.4137C15.9028 11.471 15.8949 11.5282 15.885 11.585C15.7784 12.1974 15.5556 12.7837 15.2287 13.3125C14.61 14.3112 13.46 15.325 11.43 15.5712C11.2243 15.5959 11.0172 15.5379 10.8543 15.4099C10.6914 15.2819 10.586 15.0944 10.5612 14.8887Z" fill="url(#paint6_radial_346_1735)" fill-opacity="0.75"/>
</g>
<path d="M14.2076 10.5475C14.2076 10.5475 14.2076 13.8475 10.5551 14.16" stroke="url(#paint7_radial_346_1735)" stroke-width="1.5625" stroke-linecap="round" stroke-linejoin="round"/>
<g filter="url(#filter3_f_346_1735)">
<path fill-rule="evenodd" clip-rule="evenodd" d="M29.7662 14.8887C29.7909 14.683 29.7329 14.4759 29.6049 14.313C29.4769 14.1501 29.2894 14.0447 29.0837 14.02C27.5625 13.835 26.815 13.1162 26.425 12.4887C26.2082 12.1345 26.0586 11.7434 25.9837 11.335L25.975 11.27L25.9737 11.26C25.9563 11.0534 25.8576 10.8623 25.6992 10.7285C25.5409 10.5948 25.3359 10.5294 25.1293 10.5468C24.9228 10.5642 24.7316 10.663 24.5979 10.8213C24.4642 10.9797 24.3988 11.1847 24.4162 11.3912V11.4L24.4187 11.4137C24.4242 11.471 24.4317 11.5281 24.4412 11.585C24.5478 12.1974 24.7706 12.7837 25.0975 13.3125C25.7175 14.3112 26.8675 15.325 28.8975 15.5712C29.1032 15.5959 29.3103 15.5379 29.4732 15.4099C29.6361 15.2819 29.7415 15.0944 29.7662 14.8887Z" fill="url(#paint8_radial_346_1735)" fill-opacity="0.75"/>
</g>
<path d="M25.79 10.5475C25.79 10.5475 25.79 13.8475 29.4425 14.16" stroke="url(#paint9_radial_346_1735)" stroke-width="1.5625" stroke-linecap="round" stroke-linejoin="round"/>
<g filter="url(#filter4_f_346_1735)">
<path d="M24.2125 16.8163C23.4196 17.2296 22.7548 17.8521 22.2903 18.6162C21.8259 19.3804 21.5794 20.2571 21.5775 21.1513C21.5775 23.8588 23.795 26.055 26.5313 26.055C29.2675 26.055 31.4838 23.8588 31.4838 21.1513C31.4837 20.4634 31.3382 19.7834 31.0566 19.1558C30.775 18.5282 30.3638 17.9674 29.85 17.51C29.1975 17.7225 28.5 17.835 27.7738 17.835C26.5139 17.8385 25.2788 17.4853 24.2113 16.8163" fill="#FB6E27" fill-opacity="0.75"/>
</g>
<g filter="url(#filter5_f_346_1735)">
<path d="M14.8775 16.8163C15.6704 17.2296 16.3352 17.8521 16.7996 18.6162C17.2641 19.3804 17.5106 20.2571 17.5125 21.1513C17.5125 23.8588 15.2937 26.055 12.5587 26.055C9.82373 26.055 7.60498 23.8588 7.60498 21.1513C7.60498 19.7063 8.23498 18.4075 9.23873 17.51C9.89123 17.7225 10.5887 17.835 11.315 17.835C12.6287 17.835 13.8525 17.4613 14.8775 16.8163Z" fill="#B24B35"/>
</g>
<path d="M24.3924 15.5663C23.3978 16.0931 22.5969 16.9232 22.1063 17.9362C21.6156 18.9492 21.4607 20.0922 21.6639 21.1992C21.8672 22.3063 22.4181 23.3197 23.2367 24.0922C24.0552 24.8648 25.0987 25.3563 26.2156 25.4953C27.3326 25.6344 28.4647 25.4137 29.4477 24.8654C30.4306 24.3171 31.2132 23.4697 31.6817 22.4462C32.1502 21.4228 32.2802 20.2767 32.0528 19.1743C31.8255 18.072 31.2526 17.0708 30.4174 16.3163C29.701 16.5495 28.9521 16.6677 28.1987 16.6663C26.8511 16.6696 25.5305 16.288 24.3924 15.5663Z" fill="white"/>
<path d="M24.9262 22.7737C26.2745 22.7737 27.3675 21.6808 27.3675 20.3325C27.3675 18.9842 26.2745 17.8912 24.9262 17.8912C23.578 17.8912 22.485 18.9842 22.485 20.3325C22.485 21.6808 23.578 22.7737 24.9262 22.7737Z" fill="#402931"/>
<path d="M15.605 15.5663C16.5997 16.0931 17.4005 16.9232 17.8912 17.9362C18.3819 18.9492 18.5368 20.0922 18.3335 21.1992C18.1303 22.3063 17.5794 23.3197 16.7608 24.0922C15.9423 24.8648 14.8988 25.3563 13.7818 25.4953C12.6649 25.6344 11.5328 25.4137 10.5498 24.8654C9.56684 24.3171 8.78428 23.4697 8.3158 22.4462C7.84733 21.4228 7.71732 20.2767 7.94467 19.1743C8.17201 18.072 8.74488 17.0708 9.58005 16.3163C10.2965 16.5495 11.0454 16.6677 11.7988 16.6663C13.1464 16.6696 14.467 16.288 15.605 15.5663Z" fill="white"/>
<path d="M15.07 22.7737C13.7217 22.7737 12.6287 21.6808 12.6287 20.3325C12.6287 18.9842 13.7217 17.8912 15.07 17.8912C16.4182 17.8912 17.5112 18.9842 17.5112 20.3325C17.5112 21.6808 16.4182 22.7737 15.07 22.7737Z" fill="#402931"/>
<path d="M21.4687 26.1913H18.5275C16.5945 26.1913 15.0275 27.7583 15.0275 29.6913V29.8013C15.0275 31.7343 16.5945 33.3013 18.5275 33.3013H21.4687C23.4017 33.3013 24.9687 31.7343 24.9687 29.8013V29.6913C24.9687 27.7583 23.4017 26.1913 21.4687 26.1913Z" fill="url(#paint10_linear_346_1735)"/>
<path d="M20 35.6251C23.81 35.6251 24.4174 32.3201 24.5362 31.3676C24.6262 30.5963 24.2187 29.7013 23.7737 29.4376C23.3287 29.1751 21.9962 28.9301 19.9987 28.9301C18.0037 28.9301 16.68 29.1751 16.2262 29.4376C15.7725 29.7001 15.3637 30.5963 15.4637 31.3676C15.5825 32.3201 16.1887 35.6251 20 35.6251Z" fill="url(#paint11_radial_346_1735)"/>
<g opacity="0.5" filter="url(#filter6_f_346_1735)">
<path d="M21.8 33.3575C22.7075 32.9038 23.615 31.9963 23.615 30.635" stroke="white" stroke-width="1.25"/>
</g>
<defs>
<filter id="filter0_i_346_1735" x="2.5" y="0" width="37.4976" height="37.4976" filterUnits="userSpaceOnUse" color-interpolation-filters="sRGB">
<feFlood flood-opacity="0" result="BackgroundImageFix"/>
<feBlend mode="normal" in="SourceGraphic" in2="BackgroundImageFix" result="shape"/>
<feColorMatrix in="SourceAlpha" type="matrix" values="0 0 0 0 0 0 0 0 0 0 0 0 0 0 0 0 0 0 127 0" result="hardAlpha"/>
<feOffset dx="2.5" dy="-2.5"/>
<feGaussianBlur stdDeviation="2.5"/>
<feComposite in2="hardAlpha" operator="arithmetic" k2="-1" k3="1"/>
<feColorMatrix type="matrix" values="0 0 0 0 0 0 0 0 0 0 0 0 0 0 0 0 0 0 0.08 0"/>
<feBlend mode="normal" in2="shape" result="effect1_innerShadow_346_1735"/>
</filter>
<filter id="filter1_f_346_1735" x="26.3503" y="7.56531" width="8.6311" height="8.6311" filterUnits="userSpaceOnUse" color-interpolation-filters="sRGB">
<feFlood flood-opacity="0" result="BackgroundImageFix"/>
<feBlend mode="normal" in="SourceGraphic" in2="BackgroundImageFix" result="shape"/>
<feGaussianBlur stdDeviation="0.625" result="effect1_foregroundBlur_346_1735"/>
</filter>
<filter id="filter2_f_346_1735" x="9.93066" y="9.91907" width="6.60706" height="6.28271" filterUnits="userSpaceOnUse" color-interpolation-filters="sRGB">
<feFlood flood-opacity="0" result="BackgroundImageFix"/>
<feBlend mode="normal" in="SourceGraphic" in2="BackgroundImageFix" result="shape"/>
<feGaussianBlur stdDeviation="0.3125" result="effect1_foregroundBlur_346_1735"/>
</filter>
<filter id="filter3_f_346_1735" x="23.7885" y="9.91907" width="6.60828" height="6.28271" filterUnits="userSpaceOnUse" color-interpolation-filters="sRGB">
<feFlood flood-opacity="0" result="BackgroundImageFix"/>
<feBlend mode="normal" in="SourceGraphic" in2="BackgroundImageFix" result="shape"/>
<feGaussianBlur stdDeviation="0.3125" result="effect1_foregroundBlur_346_1735"/>
</filter>
<filter id="filter4_f_346_1735" x="19.0775" y="14.3163" width="14.9062" height="14.2388" filterUnits="userSpaceOnUse" color-interpolation-filters="sRGB">
<feFlood flood-opacity="0" result="BackgroundImageFix"/>
<feBlend mode="normal" in="SourceGraphic" in2="BackgroundImageFix" result="shape"/>
<feGaussianBlur stdDeviation="1.25" result="effect1_foregroundBlur_346_1735"/>
</filter>
<filter id="filter5_f_346_1735" x="5.10498" y="14.3163" width="14.9075" height="14.2388" filterUnits="userSpaceOnUse" color-interpolation-filters="sRGB">
<feFlood flood-opacity="0" result="BackgroundImageFix"/>
<feBlend mode="normal" in="SourceGraphic" in2="BackgroundImageFix" result="shape"/>
<feGaussianBlur stdDeviation="1.25" result="effect1_foregroundBlur_346_1735"/>
</filter>
<filter id="filter6_f_346_1735" x="20.2705" y="29.385" width="5.21948" height="5.78149" filterUnits="userSpaceOnUse" color-interpolation-filters="sRGB">
<feFlood flood-opacity="0" result="BackgroundImageFix"/>
<feBlend mode="normal" in="SourceGraphic" in2="BackgroundImageFix" result="shape"/>
<feGaussianBlur stdDeviation="0.625" result="effect1_foregroundBlur_346_1735"/>
</filter>
<radialGradient id="paint0_radial_346_1735" cx="0" cy="0" r="1" gradientUnits="userSpaceOnUse" gradientTransform="translate(31.8752 11.2495) rotate(132.839) scale(46.8791)">
<stop stop-color="#FFF478"/>
<stop offset="0.475" stop-color="#FFB02E"/>
<stop offset="1" stop-color="#F70A8D"/>
</radialGradient>
<radialGradient id="paint1_radial_346_1735" cx="0" cy="0" r="1" gradientUnits="userSpaceOnUse" gradientTransform="translate(20 15.625) rotate(90) scale(22.3567)">
<stop offset="0.824" stop-color="#F59639" stop-opacity="0"/>
<stop offset="1" stop-color="#FF63C4"/>
</radialGradient>
<radialGradient id="paint2_radial_346_1735" cx="0" cy="0" r="1" gradientUnits="userSpaceOnUse" gradientTransform="translate(19.9988 43.985) rotate(-90) scale(38.3594 84.3941)">
<stop offset="0.344" stop-color="#F59639" stop-opacity="0"/>
<stop offset="1" stop-color="#E73550"/>
</radialGradient>
<radialGradient id="paint3_radial_346_1735" cx="0" cy="0" r="1" gradientUnits="userSpaceOnUse" gradientTransform="translate(29.6368 11.1077) rotate(50.589) scale(8.02546 2.84076)">
<stop stop-color="#993D29"/>
<stop offset="1" stop-color="#B14B35" stop-opacity="0"/>
</radialGradient>
<radialGradient id="paint4_radial_346_1735" cx="0" cy="0" r="1" gradientUnits="userSpaceOnUse" gradientTransform="translate(8.95875 25.3975) rotate(108.861) scale(9.66677 4.52473)">
<stop stop-color="#5C98FF"/>
<stop offset="0.806" stop-color="#3D5BF1"/>
<stop offset="0.962" stop-color="#6065CA"/>
</radialGradient>
<radialGradient id="paint5_radial_346_1735" cx="0" cy="0" r="1" gradientUnits="userSpaceOnUse" gradientTransform="translate(36.4588 5.3975) rotate(108.861) scale(9.66677 4.52473)">
<stop stop-color="#5C98FF"/>
<stop offset="0.806" stop-color="#3D5BF1"/>
<stop offset="0.962" stop-color="#6065CA"/>
</radialGradient>
<radialGradient id="paint6_radial_346_1735" cx="0" cy="0" r="1" gradientUnits="userSpaceOnUse" gradientTransform="translate(13.493 13.9598) rotate(-78.661) scale(5.74375 4.04369)">
<stop offset="0.255" stop-color="#993D29"/>
<stop offset="1" stop-color="#B14B35" stop-opacity="0"/>
</radialGradient>
<radialGradient id="paint7_radial_346_1735" cx="0" cy="0" r="1" gradientUnits="userSpaceOnUse" gradientTransform="translate(11.3376 12.3437) rotate(49.8812) scale(5.03153 11.9634)">
<stop offset="0.138" stop-color="#694F62"/>
<stop offset="0.398" stop-color="#482641"/>
</radialGradient>
<radialGradient id="paint8_radial_346_1735" cx="0" cy="0" r="1" gradientUnits="userSpaceOnUse" gradientTransform="translate(26.8356 13.961) rotate(-101.339) scale(5.74375 4.04369)">
<stop offset="0.255" stop-color="#993D29"/>
<stop offset="1" stop-color="#B14B35" stop-opacity="0"/>
</radialGradient>
<radialGradient id="paint9_radial_346_1735" cx="0" cy="0" r="1" gradientUnits="userSpaceOnUse" gradientTransform="translate(28.6606 12.3441) rotate(130.119) scale(5.03153 11.9634)">
<stop offset="0.138" stop-color="#694F62"/>
<stop offset="0.398" stop-color="#482641"/>
</radialGradient>
<linearGradient id="paint10_linear_346_1735" x1="19.9987" y1="26.1913" x2="19.9987" y2="33.3013" gradientUnits="userSpaceOnUse">
<stop stop-color="#6D014D"/>
<stop offset="1" stop-color="#750C3F"/>
</linearGradient>
<radialGradient id="paint11_radial_346_1735" cx="0" cy="0" r="1" gradientUnits="userSpaceOnUse" gradientTransform="translate(19.9862 36.7576) rotate(-90) scale(8.84391 15.3745)">
<stop offset="0.135" stop-color="#FF1C4A"/>
<stop offset="0.62" stop-color="#FF2B8F"/>
<stop offset="0.755" stop-color="#BB0773"/>
<stop offset="0.87" stop-color="#9F0762"/>
</radialGradient>
</defs>
</svg>
