<svg width="40" height="40" viewBox="0 0 40 40" fill="none" xmlns="http://www.w3.org/2000/svg">
<g clip-path="url(#clip0_346_1571)">
<mask id="mask0_346_1571" style="mask-type:luminance" maskUnits="userSpaceOnUse" x="0" y="0" width="40" height="40">
<path d="M0 0H40V40H0V0Z" fill="white"/>
</mask>
<g mask="url(#mask0_346_1571)">
<path d="M19.9987 37.4975C31.6662 37.4975 37.4975 29.6625 37.4975 19.9975C37.4975 10.335 31.6663 2.5 19.9975 2.5C8.33125 2.5 2.5 10.335 2.5 19.9987C2.5 29.6625 8.33 37.4975 19.9987 37.4975Z" fill="url(#paint0_radial_346_1571)"/>
<path d="M19.9987 37.4975C31.6662 37.4975 37.4975 29.6625 37.4975 19.9975C37.4975 10.335 31.6663 2.5 19.9975 2.5C8.33125 2.5 2.5 10.335 2.5 19.9987C2.5 29.6625 8.33 37.4975 19.9987 37.4975Z" fill="url(#paint1_radial_346_1571)"/>
<path d="M19.9987 37.4975C31.6662 37.4975 37.4975 29.6625 37.4975 19.9975C37.4975 10.335 31.6663 2.5 19.9975 2.5C8.33125 2.5 2.5 10.335 2.5 19.9987C2.5 29.6625 8.33 37.4975 19.9987 37.4975Z" fill="url(#paint2_radial_346_1571)"/>
<path d="M19.9987 37.4975C31.6662 37.4975 37.4975 29.6625 37.4975 19.9975C37.4975 10.335 31.6663 2.5 19.9975 2.5C8.33125 2.5 2.5 10.335 2.5 19.9987C2.5 29.6625 8.33 37.4975 19.9987 37.4975Z" fill="url(#paint3_radial_346_1571)" fill-opacity="0.6"/>
<path d="M19.9987 37.4975C31.6662 37.4975 37.4975 29.6625 37.4975 19.9975C37.4975 10.335 31.6663 2.5 19.9975 2.5C8.33125 2.5 2.5 10.335 2.5 19.9987C2.5 29.6625 8.33 37.4975 19.9987 37.4975Z" fill="url(#paint4_radial_346_1571)"/>
<path d="M19.9987 37.4975C31.6662 37.4975 37.4975 29.6625 37.4975 19.9975C37.4975 10.335 31.6663 2.5 19.9975 2.5C8.33125 2.5 2.5 10.335 2.5 19.9987C2.5 29.6625 8.33 37.4975 19.9987 37.4975Z" fill="url(#paint5_radial_346_1571)"/>
<path d="M19.9987 37.4975C31.6662 37.4975 37.4975 29.6625 37.4975 19.9975C37.4975 10.335 31.6663 2.5 19.9975 2.5C8.33125 2.5 2.5 10.335 2.5 19.9987C2.5 29.6625 8.33 37.4975 19.9987 37.4975Z" fill="url(#paint6_radial_346_1571)"/>
<path d="M19.9987 37.4975C31.6662 37.4975 37.4975 29.6625 37.4975 19.9975C37.4975 10.335 31.6663 2.5 19.9975 2.5C8.33125 2.5 2.5 10.335 2.5 19.9987C2.5 29.6625 8.33 37.4975 19.9987 37.4975Z" fill="url(#paint7_radial_346_1571)"/>
<path d="M3.74999 1.37504C5.26624 0.925043 6.87499 1.87504 7.49999 2.50004C8.12499 1.87504 10.21 0.210043 12.1875 2.18754C13.7812 3.78129 13.125 6.25004 11.875 8.12504C11.1387 9.22879 9.22999 10.965 7.69124 12.1375C6.88624 12.75 5.76624 12.5688 5.08374 11.8213C3.92874 10.555 2.46624 8.93129 1.74999 7.50004C0.499989 5.00004 1.74999 1.96879 3.74999 1.37504Z" fill="url(#paint8_linear_346_1571)"/>
<g opacity="0.5" filter="url(#filter0_f_346_1571)">
<path d="M9.375 14.375C9.375 14.375 9.6875 11.875 12.5 11.875C15.3125 11.875 15.625 14.375 15.625 14.375" stroke="#9A4609" stroke-width="2.5" stroke-linecap="round"/>
</g>
<g opacity="0.5" filter="url(#filter1_f_346_1571)">
<path d="M23.125 14.375C23.125 14.375 23.75 11.875 26.25 11.875C28.75 11.875 29.375 14.375 29.375 14.375" stroke="#9A4609" stroke-width="2.5" stroke-linecap="round"/>
</g>
<path d="M10 13.75C10 13.75 10.3125 11.25 13.125 11.25C15.9375 11.25 16.25 13.75 16.25 13.75" stroke="#43273B" stroke-width="2.5" stroke-linecap="round" stroke-linejoin="round"/>
<g opacity="0.26" filter="url(#filter2_f_346_1571)">
<path d="M10.3125 13.4375C10.3125 13.4375 10.625 10.9375 13.4375 10.9375C16.25 10.9375 16.5625 13.4375 16.5625 13.4375" stroke="white" stroke-width="0.9375" stroke-linecap="round" stroke-linejoin="round"/>
</g>
<path d="M23.75 13.75C23.75 13.75 24.375 11.25 26.875 11.25C29.375 11.25 30 13.75 30 13.75" stroke="#43273B" stroke-width="2.5" stroke-linecap="round" stroke-linejoin="round"/>
<g opacity="0.26" filter="url(#filter3_f_346_1571)">
<path d="M24.0625 13.4375C24.0625 13.4375 24.375 10.9375 27.1875 10.9375C30 10.9375 30.3125 13.4375 30.3125 13.4375" stroke="white" stroke-width="0.9375" stroke-linecap="round" stroke-linejoin="round"/>
</g>
<path d="M4.99995 35.0001C3.60245 33.6026 3.12495 31.2501 4.37495 30.0001C5.62495 28.7501 8.12495 29.3751 8.12495 29.3751C8.12495 29.3751 8.74995 27.8126 10.6249 28.1251C13.1249 28.4376 13.4374 31.2501 12.8124 33.1251C12.3349 34.5576 11.1787 36.0863 10.3375 37.0701C9.7987 37.7026 8.8787 37.7951 8.1912 37.3251C7.03495 36.5376 5.39495 35.3951 4.99995 35.0001Z" fill="url(#paint9_linear_346_1571)"/>
<g filter="url(#filter4_f_346_1571)">
<path d="M26.25 22.6251C28.125 22.0001 30.2087 23.7501 30.625 24.3751C30.8337 23.7501 31.75 22.5001 33.75 22.5001C36.25 22.5001 34.4462 25.1338 33.75 26.8751C32.9687 28.8276 31.7 31.2251 30.8575 32.7476C30.7625 32.92 30.6269 33.0667 30.4625 33.175C30.2981 33.2832 30.1098 33.3499 29.9138 33.3691C29.7179 33.3883 29.5203 33.3595 29.338 33.2852C29.1556 33.2109 28.9942 33.0933 28.8675 32.9426C27.625 31.4838 25.715 29.1976 25 28.1251C23.75 26.2501 23.8787 23.4163 26.25 22.6251Z" fill="#E4694E"/>
</g>
<path d="M28.75 21.3751C30.625 20.7501 32.7087 22.5001 33.125 23.1251C33.3337 22.5001 34.25 21.2501 36.25 21.2501C38.75 21.2501 39.4462 23.8838 38.75 25.6251C37.8375 27.9076 34.925 30.7951 33.42 32.1876C33.301 32.2972 33.161 32.3814 33.0085 32.4353C32.856 32.4892 32.6942 32.5115 32.5328 32.501C32.3714 32.4905 32.2138 32.4473 32.0696 32.3741C31.9254 32.3009 31.7975 32.1992 31.6937 32.0751C30.49 30.6676 28.2812 28.0476 27.5 26.8751C26.25 25.0001 26.3787 22.1663 28.75 21.3751Z" fill="url(#paint10_linear_346_1571)"/>
<path d="M15 20C15 21.6662 16 25 20 25C24 25 25 21.6662 25 20" stroke="url(#paint11_radial_346_1571)" stroke-width="2.5" stroke-linecap="round"/>
<g opacity="0.8" filter="url(#filter5_f_346_1571)">
<path d="M11.875 3.125L8.75 6.25" stroke="white" stroke-width="1.25"/>
</g>
<g opacity="0.8" filter="url(#filter6_f_346_1571)">
<path d="M31.25 23.125L34.375 26.875L36.875 23.75" stroke="white" stroke-width="1.25"/>
</g>
<g filter="url(#filter7_f_346_1571)">
<path d="M10.625 31.875C11.3154 31.875 11.875 31.3154 11.875 30.625C11.875 29.9346 11.3154 29.375 10.625 29.375C9.93464 29.375 9.375 29.9346 9.375 30.625C9.375 31.3154 9.93464 31.875 10.625 31.875Z" fill="white"/>
</g>
<g opacity="0.6" filter="url(#filter8_f_346_1571)">
<path d="M9.375 36.875L11.25 32.5" stroke="#F944A5" stroke-width="2.5"/>
</g>
<g filter="url(#filter9_f_346_1571)">
<path d="M33.125 30.625L28.75 25" stroke="#F944A5" stroke-width="1.25"/>
</g>
<g filter="url(#filter10_f_346_1571)">
<path d="M6.875 10.625L10 7.5" stroke="#F944A5" stroke-width="1.25"/>
</g>
</g>
</g>
<defs>
<filter id="filter0_f_346_1571" x="6.24988" y="8.75" width="12.5002" height="8.75012" filterUnits="userSpaceOnUse" color-interpolation-filters="sRGB">
<feFlood flood-opacity="0" result="BackgroundImageFix"/>
<feBlend mode="normal" in="SourceGraphic" in2="BackgroundImageFix" result="shape"/>
<feGaussianBlur stdDeviation="0.9375" result="effect1_foregroundBlur_346_1571"/>
</filter>
<filter id="filter1_f_346_1571" x="19.9998" y="8.75" width="12.5005" height="8.75024" filterUnits="userSpaceOnUse" color-interpolation-filters="sRGB">
<feFlood flood-opacity="0" result="BackgroundImageFix"/>
<feBlend mode="normal" in="SourceGraphic" in2="BackgroundImageFix" result="shape"/>
<feGaussianBlur stdDeviation="0.9375" result="effect1_foregroundBlur_346_1571"/>
</filter>
<filter id="filter2_f_346_1571" x="7.96875" y="8.59375" width="10.9375" height="7.1875" filterUnits="userSpaceOnUse" color-interpolation-filters="sRGB">
<feFlood flood-opacity="0" result="BackgroundImageFix"/>
<feBlend mode="normal" in="SourceGraphic" in2="BackgroundImageFix" result="shape"/>
<feGaussianBlur stdDeviation="0.9375" result="effect1_foregroundBlur_346_1571"/>
</filter>
<filter id="filter3_f_346_1571" x="21.7188" y="8.59375" width="10.9375" height="7.1875" filterUnits="userSpaceOnUse" color-interpolation-filters="sRGB">
<feFlood flood-opacity="0" result="BackgroundImageFix"/>
<feBlend mode="normal" in="SourceGraphic" in2="BackgroundImageFix" result="shape"/>
<feGaussianBlur stdDeviation="0.9375" result="effect1_foregroundBlur_346_1571"/>
</filter>
<filter id="filter4_f_346_1571" x="21.717" y="19.9923" width="15.8156" height="15.8826" filterUnits="userSpaceOnUse" color-interpolation-filters="sRGB">
<feFlood flood-opacity="0" result="BackgroundImageFix"/>
<feBlend mode="normal" in="SourceGraphic" in2="BackgroundImageFix" result="shape"/>
<feGaussianBlur stdDeviation="1.25" result="effect1_foregroundBlur_346_1571"/>
</filter>
<filter id="filter5_f_346_1571" x="5.80811" y="0.183105" width="9.00879" height="9.00879" filterUnits="userSpaceOnUse" color-interpolation-filters="sRGB">
<feFlood flood-opacity="0" result="BackgroundImageFix"/>
<feBlend mode="normal" in="SourceGraphic" in2="BackgroundImageFix" result="shape"/>
<feGaussianBlur stdDeviation="1.25" result="effect1_foregroundBlur_346_1571"/>
</filter>
<filter id="filter6_f_346_1571" x="28.2699" y="20.2249" width="11.5931" height="10.1383" filterUnits="userSpaceOnUse" color-interpolation-filters="sRGB">
<feFlood flood-opacity="0" result="BackgroundImageFix"/>
<feBlend mode="normal" in="SourceGraphic" in2="BackgroundImageFix" result="shape"/>
<feGaussianBlur stdDeviation="1.25" result="effect1_foregroundBlur_346_1571"/>
</filter>
<filter id="filter7_f_346_1571" x="6.875" y="26.875" width="7.5" height="7.5" filterUnits="userSpaceOnUse" color-interpolation-filters="sRGB">
<feFlood flood-opacity="0" result="BackgroundImageFix"/>
<feBlend mode="normal" in="SourceGraphic" in2="BackgroundImageFix" result="shape"/>
<feGaussianBlur stdDeviation="1.25" result="effect1_foregroundBlur_346_1571"/>
</filter>
<filter id="filter8_f_346_1571" x="6.97607" y="30.7576" width="6.67285" height="7.85986" filterUnits="userSpaceOnUse" color-interpolation-filters="sRGB">
<feFlood flood-opacity="0" result="BackgroundImageFix"/>
<feBlend mode="normal" in="SourceGraphic" in2="BackgroundImageFix" result="shape"/>
<feGaussianBlur stdDeviation="0.625" result="effect1_foregroundBlur_346_1571"/>
</filter>
<filter id="filter9_f_346_1571" x="25.7567" y="22.1163" width="10.3616" height="11.3923" filterUnits="userSpaceOnUse" color-interpolation-filters="sRGB">
<feFlood flood-opacity="0" result="BackgroundImageFix"/>
<feBlend mode="normal" in="SourceGraphic" in2="BackgroundImageFix" result="shape"/>
<feGaussianBlur stdDeviation="1.25" result="effect1_foregroundBlur_346_1571"/>
</filter>
<filter id="filter10_f_346_1571" x="3.93311" y="4.55811" width="9.00879" height="9.00879" filterUnits="userSpaceOnUse" color-interpolation-filters="sRGB">
<feFlood flood-opacity="0" result="BackgroundImageFix"/>
<feBlend mode="normal" in="SourceGraphic" in2="BackgroundImageFix" result="shape"/>
<feGaussianBlur stdDeviation="1.25" result="effect1_foregroundBlur_346_1571"/>
</filter>
<radialGradient id="paint0_radial_346_1571" cx="0" cy="0" r="1" gradientUnits="userSpaceOnUse" gradientTransform="translate(31.8752 11.2495) rotate(132.839) scale(46.8791)">
<stop stop-color="#FFF478"/>
<stop offset="0.475" stop-color="#FFB02E"/>
<stop offset="1" stop-color="#F70A8D"/>
</radialGradient>
<radialGradient id="paint1_radial_346_1571" cx="0" cy="0" r="1" gradientUnits="userSpaceOnUse" gradientTransform="translate(31.8735 11.2508) rotate(131.878) scale(48.6859)">
<stop stop-color="#FFF478"/>
<stop offset="0.475" stop-color="#FFB02E"/>
<stop offset="1" stop-color="#F70A8D"/>
</radialGradient>
<radialGradient id="paint2_radial_346_1571" cx="0" cy="0" r="1" gradientUnits="userSpaceOnUse" gradientTransform="translate(19.9991 15.6247) rotate(101.31) scale(22.3082 28.5726)">
<stop offset="0.788" stop-color="#F59639" stop-opacity="0"/>
<stop offset="0.973" stop-color="#FF7DCE"/>
</radialGradient>
<radialGradient id="paint3_radial_346_1571" cx="0" cy="0" r="1" gradientUnits="userSpaceOnUse" gradientTransform="translate(22.5 17.5) rotate(135) scale(51.2652)">
<stop offset="0.315" stop-opacity="0"/>
<stop offset="1"/>
</radialGradient>
<radialGradient id="paint4_radial_346_1571" cx="0" cy="0" r="1" gradientUnits="userSpaceOnUse" gradientTransform="translate(19.9999 21.2509) rotate(77.692) scale(35.1836)">
<stop offset="0.508" stop-color="#7D6133" stop-opacity="0"/>
<stop offset="1" stop-color="#715B32"/>
</radialGradient>
<radialGradient id="paint5_radial_346_1571" cx="0" cy="0" r="1" gradientUnits="userSpaceOnUse" gradientTransform="translate(20.625 20.625) rotate(55.713) scale(16.6419 12.0629)">
<stop stop-color="#FFB849"/>
<stop offset="1" stop-color="#FFB847" stop-opacity="0"/>
</radialGradient>
<radialGradient id="paint6_radial_346_1571" cx="0" cy="0" r="1" gradientUnits="userSpaceOnUse" gradientTransform="translate(25.625 22.5) rotate(9.86582) scale(14.5907)">
<stop stop-color="#FFA64B"/>
<stop offset="0.9" stop-color="#FFAE46" stop-opacity="0"/>
</radialGradient>
<radialGradient id="paint7_radial_346_1571" cx="0" cy="0" r="1" gradientUnits="userSpaceOnUse" gradientTransform="translate(21.8751 18.7503) rotate(43.971) scale(73.8161)">
<stop offset="0.185" stop-opacity="0"/>
<stop offset="1" stop-opacity="0.4"/>
</radialGradient>
<linearGradient id="paint8_linear_346_1571" x1="5.62499" y1="4.37504" x2="10.17" y2="10.3463" gradientUnits="userSpaceOnUse">
<stop stop-color="#DC2E50"/>
<stop offset="1" stop-color="#F70A8D"/>
</linearGradient>
<linearGradient id="paint9_linear_346_1571" x1="7.49995" y1="30.6251" x2="11.6774" y2="37.3838" gradientUnits="userSpaceOnUse">
<stop stop-color="#CA0B4A"/>
<stop offset="1" stop-color="#F70A8D"/>
</linearGradient>
<linearGradient id="paint10_linear_346_1571" x1="36.3737" y1="22.5463" x2="32.345" y2="31.7851" gradientUnits="userSpaceOnUse">
<stop stop-color="#CA0B4A"/>
<stop offset="1" stop-color="#F70A8D"/>
</linearGradient>
<radialGradient id="paint11_radial_346_1571" cx="0" cy="0" r="1" gradientUnits="userSpaceOnUse" gradientTransform="translate(20 15) rotate(90) scale(13.125 8.03589)">
<stop offset="0.556" stop-color="#584343"/>
<stop offset="0.74" stop-color="#66525E"/>
<stop offset="1" stop-color="#522C57"/>
</radialGradient>
<clipPath id="clip0_346_1571">
<rect width="40" height="40" fill="white"/>
</clipPath>
</defs>
</svg>
