<svg width="40" height="40" viewBox="0 0 40 40" fill="none" xmlns="http://www.w3.org/2000/svg">
<g clip-path="url(#clip0_346_1700)">
<mask id="mask0_346_1700" style="mask-type:luminance" maskUnits="userSpaceOnUse" x="0" y="0" width="40" height="40">
<path d="M0 0H40V40H0V0Z" fill="white"/>
</mask>
<g mask="url(#mask0_346_1700)">
<path d="M19.9987 37.4975C31.6662 37.4975 37.4975 29.6625 37.4975 19.9975C37.4975 10.335 31.6663 2.5 19.9975 2.5C8.33125 2.5 2.5 10.335 2.5 19.9987C2.5 29.6625 8.33 37.4975 19.9987 37.4975Z" fill="url(#paint0_radial_346_1700)"/>
<path d="M19.9987 37.4975C31.6662 37.4975 37.4975 29.6625 37.4975 19.9975C37.4975 10.335 31.6663 2.5 19.9975 2.5C8.33125 2.5 2.5 10.335 2.5 19.9987C2.5 29.6625 8.33 37.4975 19.9987 37.4975Z" fill="url(#paint1_radial_346_1700)"/>
<path d="M19.9987 37.4975C31.6662 37.4975 37.4975 29.6625 37.4975 19.9975C37.4975 10.335 31.6663 2.5 19.9975 2.5C8.33125 2.5 2.5 10.335 2.5 19.9987C2.5 29.6625 8.33 37.4975 19.9987 37.4975Z" fill="url(#paint2_radial_346_1700)"/>
<path d="M19.9987 37.4975C31.6662 37.4975 37.4975 29.6625 37.4975 19.9975C37.4975 10.335 31.6663 2.5 19.9975 2.5C8.33125 2.5 2.5 10.335 2.5 19.9987C2.5 29.6625 8.33 37.4975 19.9987 37.4975Z" fill="url(#paint3_radial_346_1700)" fill-opacity="0.6"/>
<path d="M19.9987 37.4975C31.6662 37.4975 37.4975 29.6625 37.4975 19.9975C37.4975 10.335 31.6663 2.5 19.9975 2.5C8.33125 2.5 2.5 10.335 2.5 19.9987C2.5 29.6625 8.33 37.4975 19.9987 37.4975Z" fill="url(#paint4_radial_346_1700)"/>
<path d="M19.9987 37.4975C31.6662 37.4975 37.4975 29.6625 37.4975 19.9975C37.4975 10.335 31.6663 2.5 19.9975 2.5C8.33125 2.5 2.5 10.335 2.5 19.9987C2.5 29.6625 8.33 37.4975 19.9987 37.4975Z" fill="url(#paint5_radial_346_1700)"/>
<path d="M19.9987 37.4975C31.6662 37.4975 37.4975 29.6625 37.4975 19.9975C37.4975 10.335 31.6663 2.5 19.9975 2.5C8.33125 2.5 2.5 10.335 2.5 19.9987C2.5 29.6625 8.33 37.4975 19.9987 37.4975Z" fill="url(#paint6_radial_346_1700)"/>
<path d="M19.9987 37.4975C31.6662 37.4975 37.4975 29.6625 37.4975 19.9975C37.4975 10.335 31.6663 2.5 19.9975 2.5C8.33125 2.5 2.5 10.335 2.5 19.9987C2.5 29.6625 8.33 37.4975 19.9987 37.4975Z" fill="url(#paint7_radial_346_1700)"/>
<path fill-rule="evenodd" clip-rule="evenodd" d="M7.5 19.375C7.5 19.1633 7.51125 18.955 7.53375 18.75H18.7162C18.7387 18.955 18.75 19.1633 18.75 19.375C18.75 20.1137 18.6045 20.8451 18.3218 21.5276C18.0391 22.2101 17.6248 22.8301 17.1025 23.3525C16.5801 23.8748 15.9601 24.2891 15.2776 24.5718C14.5951 24.8545 13.8637 25 13.125 25C12.3863 25 11.6549 24.8545 10.9724 24.5718C10.2899 24.2891 9.66985 23.8748 9.14752 23.3525C8.62519 22.8301 8.21086 22.2101 7.92818 21.5276C7.6455 20.8451 7.5 20.1137 7.5 19.375ZM21.25 19.375C21.25 19.1633 21.2613 18.955 21.2838 18.75H32.4662C32.4887 18.955 32.5 19.1633 32.5 19.375C32.5 20.8668 31.9074 22.2976 30.8525 23.3525C29.7976 24.4074 28.3668 25 26.875 25C25.3832 25 23.9524 24.4074 22.8975 23.3525C21.8426 22.2976 21.25 20.8668 21.25 19.375Z" fill="white"/>
<path fill-rule="evenodd" clip-rule="evenodd" d="M12.5 19.0625C12.5 18.9567 12.5058 18.8525 12.5175 18.75H18.1075C18.12 18.8525 18.1258 18.9567 18.125 19.0625C18.125 19.8084 17.8287 20.5238 17.3012 21.0512C16.7738 21.5787 16.0584 21.875 15.3125 21.875C14.5676 21.8717 13.8541 21.5743 13.3274 21.0476C12.8007 20.5209 12.5033 19.8074 12.5 19.0625ZM26.25 19.0625C26.25 18.9567 26.2558 18.8525 26.2675 18.75H31.8575C31.87 18.8525 31.8758 18.9567 31.875 19.0625C31.875 19.8084 31.5787 20.5238 31.0512 21.0512C30.5238 21.5787 29.8084 21.875 29.0625 21.875C28.3176 21.8717 27.6041 21.5743 27.0774 21.0476C26.5507 20.5209 26.2533 19.8074 26.25 19.0625Z" fill="url(#paint8_linear_346_1700)"/>
<path d="M8.125 14.375C8.54125 13.125 10.125 10.625 13.125 10.625" stroke="url(#paint9_linear_346_1700)" stroke-width="1.25" stroke-linecap="round" stroke-linejoin="round"/>
<path d="M31.875 14.375C31.4587 13.125 29.875 10.625 26.875 10.625" stroke="url(#paint10_linear_346_1700)" stroke-width="1.25" stroke-linecap="round" stroke-linejoin="round"/>
<path d="M15 31.25C15.4163 30.4163 17 28.75 20 28.75C23 28.75 24.5837 30.4163 25 31.25" stroke="url(#paint11_linear_346_1700)" stroke-width="2.5" stroke-linecap="round"/>
</g>
</g>
<defs>
<radialGradient id="paint0_radial_346_1700" cx="0" cy="0" r="1" gradientUnits="userSpaceOnUse" gradientTransform="translate(31.8752 11.2495) rotate(132.839) scale(46.8791)">
<stop stop-color="#FFF478"/>
<stop offset="0.475" stop-color="#FFB02E"/>
<stop offset="1" stop-color="#F70A8D"/>
</radialGradient>
<radialGradient id="paint1_radial_346_1700" cx="0" cy="0" r="1" gradientUnits="userSpaceOnUse" gradientTransform="translate(31.8735 11.2508) rotate(131.878) scale(48.6859)">
<stop stop-color="#FFF478"/>
<stop offset="0.475" stop-color="#FFB02E"/>
<stop offset="1" stop-color="#F70A8D"/>
</radialGradient>
<radialGradient id="paint2_radial_346_1700" cx="0" cy="0" r="1" gradientUnits="userSpaceOnUse" gradientTransform="translate(19.9991 15.6247) rotate(101.31) scale(22.3082 28.5726)">
<stop offset="0.788" stop-color="#F59639" stop-opacity="0"/>
<stop offset="0.973" stop-color="#FF7DCE"/>
</radialGradient>
<radialGradient id="paint3_radial_346_1700" cx="0" cy="0" r="1" gradientUnits="userSpaceOnUse" gradientTransform="translate(22.5 17.5) rotate(135) scale(51.2652)">
<stop offset="0.315" stop-opacity="0"/>
<stop offset="1"/>
</radialGradient>
<radialGradient id="paint4_radial_346_1700" cx="0" cy="0" r="1" gradientUnits="userSpaceOnUse" gradientTransform="translate(19.9999 21.2509) rotate(77.692) scale(35.1836)">
<stop offset="0.508" stop-color="#7D6133" stop-opacity="0"/>
<stop offset="1" stop-color="#715B32"/>
</radialGradient>
<radialGradient id="paint5_radial_346_1700" cx="0" cy="0" r="1" gradientUnits="userSpaceOnUse" gradientTransform="translate(20.625 20.625) rotate(55.713) scale(16.6419 12.0629)">
<stop stop-color="#FFB849"/>
<stop offset="1" stop-color="#FFB847" stop-opacity="0"/>
</radialGradient>
<radialGradient id="paint6_radial_346_1700" cx="0" cy="0" r="1" gradientUnits="userSpaceOnUse" gradientTransform="translate(25.625 22.5) rotate(9.86582) scale(14.5907)">
<stop stop-color="#FFA64B"/>
<stop offset="0.9" stop-color="#FFAE46" stop-opacity="0"/>
</radialGradient>
<radialGradient id="paint7_radial_346_1700" cx="0" cy="0" r="1" gradientUnits="userSpaceOnUse" gradientTransform="translate(21.8751 18.7503) rotate(43.971) scale(73.8161)">
<stop offset="0.185" stop-opacity="0"/>
<stop offset="1" stop-opacity="0.4"/>
</radialGradient>
<linearGradient id="paint8_linear_346_1700" x1="29.64" y1="18.75" x2="29.3737" y2="21.9687" gradientUnits="userSpaceOnUse">
<stop stop-color="#553B3E"/>
<stop offset="1" stop-color="#3D2432"/>
</linearGradient>
<linearGradient id="paint9_linear_346_1700" x1="8.54125" y1="15.5" x2="8.54125" y2="13.25" gradientUnits="userSpaceOnUse">
<stop offset="0.03" stop-color="#524049"/>
<stop offset="1" stop-color="#4A2C42"/>
</linearGradient>
<linearGradient id="paint10_linear_346_1700" x1="31.4587" y1="15.5" x2="31.4587" y2="13.25" gradientUnits="userSpaceOnUse">
<stop offset="0.03" stop-color="#524049"/>
<stop offset="1" stop-color="#4A2C42"/>
</linearGradient>
<linearGradient id="paint11_linear_346_1700" x1="20" y1="27.5" x2="20" y2="30" gradientUnits="userSpaceOnUse">
<stop stop-color="#4F3C43"/>
<stop offset="1" stop-color="#512756"/>
</linearGradient>
<clipPath id="clip0_346_1700">
<rect width="40" height="40" fill="white"/>
</clipPath>
</defs>
</svg>
