<svg width="121" height="121" viewBox="0 0 121 121" fill="none" xmlns="http://www.w3.org/2000/svg">
<path d="M46.475 66.665C50.493 66.665 54.3464 65.0688 57.1876 62.2277C60.0288 59.3865 61.6249 55.533 61.6249 51.515C61.6249 47.497 60.0288 43.6435 57.1876 40.8023C54.3464 37.9611 50.493 36.365 46.475 36.365C42.4569 36.365 38.6035 37.9611 35.7623 40.8023C32.9211 43.6435 31.325 47.497 31.325 51.515C31.325 55.533 32.9211 59.3865 35.7623 62.2277C38.6035 65.0688 42.4569 66.665 46.475 66.665Z" fill="url(#paint0_radial_348_72)"/>
<path d="M46.475 66.665C50.493 66.665 54.3464 65.0688 57.1876 62.2277C60.0288 59.3865 61.6249 55.533 61.6249 51.515C61.6249 47.497 60.0288 43.6435 57.1876 40.8023C54.3464 37.9611 50.493 36.365 46.475 36.365C42.4569 36.365 38.6035 37.9611 35.7623 40.8023C32.9211 43.6435 31.325 47.497 31.325 51.515C31.325 55.533 32.9211 59.3865 35.7623 62.2277C38.6035 65.0688 42.4569 66.665 46.475 66.665Z" fill="url(#paint1_radial_348_72)"/>
<g filter="url(#filter0_i_348_72)">
<path d="M102.838 36.35C89.4988 23.3488 68.1575 23.5738 55.1563 36.9125C51.8058 40.3392 49.2235 44.4402 47.5813 48.9425C47.5281 49.084 47.4437 49.2116 47.3343 49.3159C47.225 49.4203 47.0935 49.4986 46.9497 49.5451C46.8059 49.5916 46.6535 49.605 46.5038 49.5845C46.3541 49.5639 46.2109 49.5098 46.085 49.4263C44.915 48.647 43.6746 47.9791 42.38 47.4313C38.6832 45.7352 34.6193 44.9957 30.562 45.2808C26.5047 45.5659 22.5842 46.8663 19.1608 49.0627C15.7375 51.259 12.9213 54.2807 10.971 57.85C9.02079 61.4192 7.99913 65.4215 8 69.4888C8.0011 74.9906 9.86921 80.3292 13.2988 84.6313C15.5752 87.6243 18.5133 90.0501 21.8832 91.7187C25.2531 93.3874 28.9634 94.2538 32.7238 94.25H80.405C85.4281 94.2543 90.3792 93.0558 94.8443 90.7547C99.3093 88.4537 103.159 85.1171 106.07 81.0238C116.289 67.6475 115.201 48.41 102.838 36.3463" fill="#D5D4DA"/>
<path d="M102.838 36.35C89.4988 23.3488 68.1575 23.5738 55.1563 36.9125C51.8058 40.3392 49.2235 44.4402 47.5813 48.9425C47.5281 49.084 47.4437 49.2116 47.3343 49.3159C47.225 49.4203 47.0935 49.4986 46.9497 49.5451C46.8059 49.5916 46.6535 49.605 46.5038 49.5845C46.3541 49.5639 46.2109 49.5098 46.085 49.4263C44.915 48.647 43.6746 47.9791 42.38 47.4313C38.6832 45.7352 34.6193 44.9957 30.562 45.2808C26.5047 45.5659 22.5842 46.8663 19.1608 49.0627C15.7375 51.259 12.9213 54.2807 10.971 57.85C9.02079 61.4192 7.99913 65.4215 8 69.4888C8.0011 74.9906 9.86921 80.3292 13.2988 84.6313C15.5752 87.6243 18.5133 90.0501 21.8832 91.7187C25.2531 93.3874 28.9634 94.2538 32.7238 94.25H80.405C85.4281 94.2543 90.3792 93.0558 94.8443 90.7547C99.3093 88.4537 103.159 85.1171 106.07 81.0238C116.289 67.6475 115.201 48.41 102.838 36.3463" fill="url(#paint2_linear_348_72)"/>
</g>
<path d="M102.838 36.35C89.4988 23.3488 68.1575 23.5738 55.1563 36.9125C51.8058 40.3392 49.2235 44.4402 47.5813 48.9425C47.5281 49.084 47.4437 49.2116 47.3343 49.3159C47.225 49.4203 47.0935 49.4986 46.9497 49.5451C46.8059 49.5916 46.6535 49.605 46.5038 49.5845C46.3541 49.5639 46.2109 49.5098 46.085 49.4263C44.915 48.647 43.6746 47.9791 42.38 47.4313C38.6832 45.7352 34.6193 44.9957 30.562 45.2808C26.5047 45.5659 22.5842 46.8663 19.1608 49.0627C15.7375 51.259 12.9213 54.2807 10.971 57.85C9.02079 61.4192 7.99913 65.4215 8 69.4888C8.0011 74.9906 9.86921 80.3292 13.2988 84.6313C15.5752 87.6243 18.5133 90.0501 21.8832 91.7187C25.2531 93.3874 28.9634 94.2538 32.7238 94.25H80.405C85.4281 94.2543 90.3792 93.0558 94.8443 90.7547C99.3093 88.4537 103.159 85.1171 106.07 81.0238C116.289 67.6475 115.201 48.41 102.838 36.3463" fill="url(#paint3_radial_348_72)"/>
<path d="M102.838 36.35C89.4988 23.3488 68.1575 23.5738 55.1563 36.9125C51.8058 40.3392 49.2235 44.4402 47.5813 48.9425C47.5281 49.084 47.4437 49.2116 47.3343 49.3159C47.225 49.4203 47.0935 49.4986 46.9497 49.5451C46.8059 49.5916 46.6535 49.605 46.5038 49.5845C46.3541 49.5639 46.2109 49.5098 46.085 49.4263C44.915 48.647 43.6746 47.9791 42.38 47.4313C38.6832 45.7352 34.6193 44.9957 30.562 45.2808C26.5047 45.5659 22.5842 46.8663 19.1608 49.0627C15.7375 51.259 12.9213 54.2807 10.971 57.85C9.02079 61.4192 7.99913 65.4215 8 69.4888C8.0011 74.9906 9.86921 80.3292 13.2988 84.6313C15.5752 87.6243 18.5133 90.0501 21.8832 91.7187C25.2531 93.3874 28.9634 94.2538 32.7238 94.25H80.405C85.4281 94.2543 90.3792 93.0558 94.8443 90.7547C99.3093 88.4537 103.159 85.1171 106.07 81.0238C116.289 67.6475 115.201 48.41 102.838 36.3463" fill="url(#paint4_radial_348_72)"/>
<path d="M102.838 36.35C89.4988 23.3488 68.1575 23.5738 55.1563 36.9125C51.8058 40.3392 49.2235 44.4402 47.5813 48.9425C47.5281 49.084 47.4437 49.2116 47.3343 49.3159C47.225 49.4203 47.0935 49.4986 46.9497 49.5451C46.8059 49.5916 46.6535 49.605 46.5038 49.5845C46.3541 49.5639 46.2109 49.5098 46.085 49.4263C44.915 48.647 43.6746 47.9791 42.38 47.4313C38.6832 45.7352 34.6193 44.9957 30.562 45.2808C26.5047 45.5659 22.5842 46.8663 19.1608 49.0627C15.7375 51.259 12.9213 54.2807 10.971 57.85C9.02079 61.4192 7.99913 65.4215 8 69.4888C8.0011 74.9906 9.86921 80.3292 13.2988 84.6313C15.5752 87.6243 18.5133 90.0501 21.8832 91.7187C25.2531 93.3874 28.9634 94.2538 32.7238 94.25H80.405C85.4281 94.2543 90.3792 93.0558 94.8443 90.7547C99.3093 88.4537 103.159 85.1171 106.07 81.0238C116.289 67.6475 115.201 48.41 102.838 36.3463" fill="url(#paint5_radial_348_72)"/>
<path d="M102.838 36.35C89.4988 23.3488 68.1575 23.5738 55.1563 36.9125C51.8058 40.3392 49.2235 44.4402 47.5813 48.9425C47.5281 49.084 47.4437 49.2116 47.3343 49.3159C47.225 49.4203 47.0935 49.4986 46.9497 49.5451C46.8059 49.5916 46.6535 49.605 46.5038 49.5845C46.3541 49.5639 46.2109 49.5098 46.085 49.4263C44.915 48.647 43.6746 47.9791 42.38 47.4313C38.6832 45.7352 34.6193 44.9957 30.562 45.2808C26.5047 45.5659 22.5842 46.8663 19.1608 49.0627C15.7375 51.259 12.9213 54.2807 10.971 57.85C9.02079 61.4192 7.99913 65.4215 8 69.4888C8.0011 74.9906 9.86921 80.3292 13.2988 84.6313C15.5752 87.6243 18.5133 90.0501 21.8832 91.7187C25.2531 93.3874 28.9634 94.2538 32.7238 94.25H80.405C85.4281 94.2543 90.3792 93.0558 94.8443 90.7547C99.3093 88.4537 103.159 85.1171 106.07 81.0238C116.289 67.6475 115.201 48.41 102.838 36.3463" fill="url(#paint6_radial_348_72)"/>
<defs>
<filter id="filter0_i_348_72" x="8" y="26.0016" width="105" height="68.2484" filterUnits="userSpaceOnUse" color-interpolation-filters="sRGB">
<feFlood flood-opacity="0" result="BackgroundImageFix"/>
<feBlend mode="normal" in="SourceGraphic" in2="BackgroundImageFix" result="shape"/>
<feColorMatrix in="SourceAlpha" type="matrix" values="0 0 0 0 0 0 0 0 0 0 0 0 0 0 0 0 0 0 127 0" result="hardAlpha"/>
<feOffset dy="-0.75"/>
<feGaussianBlur stdDeviation="0.75"/>
<feComposite in2="hardAlpha" operator="arithmetic" k2="-1" k3="1"/>
<feColorMatrix type="matrix" values="0 0 0 0 0.815686 0 0 0 0 0.784314 0 0 0 0 0.956863 0 0 0 1 0"/>
<feBlend mode="normal" in2="shape" result="effect1_innerShadow_348_72"/>
</filter>
<radialGradient id="paint0_radial_348_72" cx="0" cy="0" r="1" gradientUnits="userSpaceOnUse" gradientTransform="translate(51.9373 45.8956) rotate(-172.463) scale(20.7917)">
<stop offset="0.309" stop-color="#E8E8E9"/>
<stop offset="1" stop-color="#D2D2D2"/>
</radialGradient>
<radialGradient id="paint1_radial_348_72" cx="0" cy="0" r="1" gradientUnits="userSpaceOnUse" gradientTransform="translate(48.0949 50.2325) rotate(-141.242) scale(11.2871 10.3416)">
<stop stop-color="#CDCDCE"/>
<stop offset="1" stop-color="#CDCDCE" stop-opacity="0"/>
</radialGradient>
<linearGradient id="paint2_linear_348_72" x1="71.225" y1="90.62" x2="71.225" y2="62.4463" gradientUnits="userSpaceOnUse">
<stop stop-color="#DED7FA"/>
<stop offset="1" stop-color="#DED7FA" stop-opacity="0"/>
</linearGradient>
<radialGradient id="paint3_radial_348_72" cx="0" cy="0" r="1" gradientUnits="userSpaceOnUse" gradientTransform="translate(99.3998 49.4455) rotate(136.5) scale(41.8279 44.8688)">
<stop offset="0.179" stop-color="#FCFBFE"/>
<stop offset="1" stop-color="#FCFBFE" stop-opacity="0"/>
</radialGradient>
<radialGradient id="paint4_radial_348_72" cx="0" cy="0" r="1" gradientUnits="userSpaceOnUse" gradientTransform="translate(32.9676 65.4796) rotate(144.444) scale(25.6611 26.8889)">
<stop stop-color="#FCFBFE"/>
<stop offset="1" stop-color="#FCFBFE" stop-opacity="0"/>
</radialGradient>
<radialGradient id="paint5_radial_348_72" cx="0" cy="0" r="1" gradientUnits="userSpaceOnUse" gradientTransform="translate(95.0488 58.4975) rotate(166.654) scale(89.4664 70.4576)">
<stop offset="0.815" stop-color="#CECCD7" stop-opacity="0"/>
<stop offset="1" stop-color="#CECCD7"/>
</radialGradient>
<radialGradient id="paint6_radial_348_72" cx="0" cy="0" r="1" gradientUnits="userSpaceOnUse" gradientTransform="translate(21.665 98.0713) rotate(-46.79) scale(24.238 33.4491)">
<stop stop-color="#D0C9EE"/>
<stop offset="1" stop-color="#D0C9EE" stop-opacity="0"/>
</radialGradient>
</defs>
</svg>
