<svg width="121" height="121" viewBox="0 0 121 121" fill="none" xmlns="http://www.w3.org/2000/svg">
<path d="M46.8763 46.6362C50.8883 46.6362 54.7361 45.0424 57.573 42.2055C60.41 39.3685 62.0038 35.5208 62.0038 31.5087C62.0038 27.4967 60.41 23.6489 57.573 20.812C54.7361 17.975 50.8883 16.3812 46.8763 16.3812C42.8642 16.3812 39.0165 17.975 36.1795 20.812C33.3426 23.6489 31.7488 27.4967 31.7488 31.5087C31.7488 35.5208 33.3426 39.3685 36.1795 42.2055C39.0165 45.0424 42.8642 46.6362 46.8763 46.6362Z" fill="url(#paint0_radial_348_111)"/>
<path d="M46.8763 46.6362C50.8883 46.6362 54.7361 45.0424 57.573 42.2055C60.41 39.3685 62.0038 35.5208 62.0038 31.5087C62.0038 27.4967 60.41 23.6489 57.573 20.812C54.7361 17.975 50.8883 16.3812 46.8763 16.3812C42.8642 16.3812 39.0165 17.975 36.1795 20.812C33.3426 23.6489 31.7488 27.4967 31.7488 31.5087C31.7488 35.5208 33.3426 39.3685 36.1795 42.2055C39.0165 45.0424 42.8642 46.6362 46.8763 46.6362Z" fill="url(#paint1_radial_348_111)"/>
<g filter="url(#filter0_ii_348_111)">
<path d="M33.4588 86.7275L24.4963 98.99C23.9719 99.7098 23.3107 100.319 22.5504 100.783C21.7901 101.247 20.9459 101.556 20.0659 101.693C19.1859 101.83 18.2876 101.792 17.4224 101.581C16.5571 101.37 15.742 100.99 15.0238 100.464C14.305 99.9394 13.6967 99.2785 13.2336 98.5189C12.7704 97.7593 12.4616 96.9158 12.3247 96.0368C12.1879 95.1577 12.2256 94.2602 12.4359 93.3958C12.6461 92.5313 13.0247 91.7168 13.55 90.9987L22.5125 78.7362C23.0366 78.0161 23.6977 77.4065 24.4578 76.9424C25.2179 76.4783 26.0621 76.1687 26.9421 76.0314C27.8221 75.8942 28.7205 75.9319 29.5859 76.1425C30.4512 76.3531 31.2665 76.7324 31.985 77.2587C35.0113 79.4337 35.6713 83.7012 33.4588 86.7275Z" fill="#3239FF"/>
<path d="M33.4588 86.7275L24.4963 98.99C23.9719 99.7098 23.3107 100.319 22.5504 100.783C21.7901 101.247 20.9459 101.556 20.0659 101.693C19.1859 101.83 18.2876 101.792 17.4224 101.581C16.5571 101.37 15.742 100.99 15.0238 100.464C14.305 99.9394 13.6967 99.2785 13.2336 98.5189C12.7704 97.7593 12.4616 96.9158 12.3247 96.0368C12.1879 95.1577 12.2256 94.2602 12.4359 93.3958C12.6461 92.5313 13.0247 91.7168 13.55 90.9987L22.5125 78.7362C23.0366 78.0161 23.6977 77.4065 24.4578 76.9424C25.2179 76.4783 26.0621 76.1687 26.9421 76.0314C27.8221 75.8942 28.7205 75.9319 29.5859 76.1425C30.4512 76.3531 31.2665 76.7324 31.985 77.2587C35.0113 79.4337 35.6713 83.7012 33.4588 86.7275Z" fill="url(#paint2_radial_348_111)"/>
</g>
<g filter="url(#filter1_ii_348_111)">
<path d="M58.0063 86.7275L49.0438 98.99C48.5195 99.7093 47.8584 100.318 47.0985 100.782C46.3385 101.245 45.4946 101.554 44.6151 101.691C43.7356 101.828 42.8377 101.79 41.9729 101.579C41.108 101.369 40.2932 100.99 39.575 100.464C38.8563 99.9394 38.248 99.2786 37.7848 98.519C37.3217 97.7593 37.0129 96.9159 36.876 96.0368C36.7391 95.1577 36.7769 94.2603 36.9871 93.3958C37.1974 92.5313 37.576 91.7168 38.1013 90.9988L47.0638 78.7363C47.5879 78.0167 48.2487 77.4076 49.0085 76.9438C49.7683 76.48 50.6121 76.1706 51.4917 76.0333C52.3712 75.8961 53.2692 75.9337 54.1342 76.144C54.9992 76.3542 55.8142 76.7331 56.5325 77.2588C59.5588 79.4338 60.2188 83.7013 58.0063 86.7275Z" fill="#3239FF"/>
<path d="M58.0063 86.7275L49.0438 98.99C48.5195 99.7093 47.8584 100.318 47.0985 100.782C46.3385 101.245 45.4946 101.554 44.6151 101.691C43.7356 101.828 42.8377 101.79 41.9729 101.579C41.108 101.369 40.2932 100.99 39.575 100.464C38.8563 99.9394 38.248 99.2786 37.7848 98.519C37.3217 97.7593 37.0129 96.9159 36.876 96.0368C36.7391 95.1577 36.7769 94.2603 36.9871 93.3958C37.1974 92.5313 37.576 91.7168 38.1013 90.9988L47.0638 78.7363C47.5879 78.0167 48.2487 77.4076 49.0085 76.9438C49.7683 76.48 50.6121 76.1706 51.4917 76.0333C52.3712 75.8961 53.2692 75.9337 54.1342 76.144C54.9992 76.3542 55.8142 76.7331 56.5325 77.2588C59.5588 79.4338 60.2188 83.7013 58.0063 86.7275Z" fill="url(#paint3_radial_348_111)"/>
</g>
<g filter="url(#filter2_ii_348_111)">
<path d="M82.5538 86.7275L73.5913 98.99C73.0669 99.7093 72.4059 100.318 71.6459 100.782C70.886 101.245 70.0421 101.554 69.1626 101.691C68.2831 101.828 67.3852 101.79 66.5203 101.579C65.6555 101.369 64.8407 100.99 64.1225 100.464C63.4038 99.9394 62.7954 99.2786 62.3323 98.519C61.8692 97.7593 61.5604 96.9159 61.4235 96.0368C61.2866 95.1577 61.3244 94.2603 61.5346 93.3958C61.7449 92.5313 62.1235 91.7168 62.6488 90.9988L71.6113 78.7363C72.1353 78.0167 72.7962 77.4076 73.556 76.9438C74.3158 76.48 75.1596 76.1706 76.0392 76.0333C76.9187 75.8961 77.8167 75.9337 78.6817 76.144C79.5466 76.3542 80.3617 76.7331 81.08 77.2588C84.1063 79.4338 84.7663 83.7013 82.5538 86.7275Z" fill="url(#paint4_linear_348_111)"/>
<path d="M82.5538 86.7275L73.5913 98.99C73.0669 99.7093 72.4059 100.318 71.6459 100.782C70.886 101.245 70.0421 101.554 69.1626 101.691C68.2831 101.828 67.3852 101.79 66.5203 101.579C65.6555 101.369 64.8407 100.99 64.1225 100.464C63.4038 99.9394 62.7954 99.2786 62.3323 98.519C61.8692 97.7593 61.5604 96.9159 61.4235 96.0368C61.2866 95.1577 61.3244 94.2603 61.5346 93.3958C61.7449 92.5313 62.1235 91.7168 62.6488 90.9988L71.6113 78.7363C72.1353 78.0167 72.7962 77.4076 73.556 76.9438C74.3158 76.48 75.1596 76.1706 76.0392 76.0333C76.9187 75.8961 77.8167 75.9337 78.6817 76.144C79.5466 76.3542 80.3617 76.7331 81.08 77.2588C84.1063 79.4338 84.7663 83.7013 82.5538 86.7275Z" fill="url(#paint5_radial_348_111)"/>
</g>
<g filter="url(#filter3_i_348_111)">
<path d="M102.508 17.5625C89.2175 4.61001 67.9475 4.83501 54.995 18.125C51.6489 21.5335 49.0734 25.6206 47.4425 30.11C47.3896 30.2512 47.3056 30.3787 47.1967 30.483C47.0878 30.5873 46.9568 30.6658 46.8135 30.7126C46.6701 30.7595 46.5181 30.7734 46.3686 30.7535C46.2191 30.7336 46.0761 30.6803 45.95 30.5975C44.7845 29.8216 43.5492 29.1563 42.26 28.61C38.5763 26.9195 34.5266 26.1822 30.4835 26.466C26.4403 26.7498 22.5334 28.0455 19.1219 30.2341C15.7104 32.4226 12.904 35.4337 10.9605 38.9905C9.01706 42.5473 7.99902 46.5356 8 50.5888C8.00172 56.0713 9.86314 61.3912 13.28 65.6788C15.5467 68.6636 18.4742 71.0827 21.8327 72.7464C25.1912 74.41 28.8895 75.2729 32.6375 75.2675H80.1538C85.1594 75.2718 90.0933 74.0773 94.5427 71.7841C98.9921 69.4909 102.828 66.1656 105.729 62.0863C115.914 48.755 114.789 29.585 102.508 17.5663" fill="#E0D3FF"/>
</g>
<g filter="url(#filter4_ii_348_111)">
<path d="M102.508 17.5625C89.2175 4.61001 67.9475 4.83501 54.995 18.125C51.6489 21.5335 49.0734 25.6206 47.4425 30.11C47.3896 30.2512 47.3056 30.3787 47.1967 30.483C47.0878 30.5873 46.9568 30.6658 46.8135 30.7126C46.6701 30.7595 46.5181 30.7734 46.3686 30.7535C46.2191 30.7336 46.0761 30.6803 45.95 30.5975C44.7845 29.8216 43.5492 29.1563 42.26 28.61C38.5763 26.9195 34.5266 26.1822 30.4835 26.466C26.4403 26.7498 22.5334 28.0455 19.1219 30.2341C15.7104 32.4226 12.904 35.4337 10.9605 38.9905C9.01706 42.5473 7.99902 46.5356 8 50.5888C8.00172 56.0713 9.86314 61.3912 13.28 65.6788C15.5467 68.6636 18.4742 71.0827 21.8327 72.7464C25.1912 74.41 28.8895 75.2729 32.6375 75.2675H80.1538C85.1594 75.2718 90.0933 74.0773 94.5427 71.7841C98.9921 69.4909 102.828 66.1656 105.729 62.0863C115.914 48.755 114.789 29.585 102.508 17.5663" fill="#E0D3FF"/>
<path d="M102.508 17.5625C89.2175 4.61001 67.9475 4.83501 54.995 18.125C51.6489 21.5335 49.0734 25.6206 47.4425 30.11C47.3896 30.2512 47.3056 30.3787 47.1967 30.483C47.0878 30.5873 46.9568 30.6658 46.8135 30.7126C46.6701 30.7595 46.5181 30.7734 46.3686 30.7535C46.2191 30.7336 46.0761 30.6803 45.95 30.5975C44.7845 29.8216 43.5492 29.1563 42.26 28.61C38.5763 26.9195 34.5266 26.1822 30.4835 26.466C26.4403 26.7498 22.5334 28.0455 19.1219 30.2341C15.7104 32.4226 12.904 35.4337 10.9605 38.9905C9.01706 42.5473 7.99902 46.5356 8 50.5888C8.00172 56.0713 9.86314 61.3912 13.28 65.6788C15.5467 68.6636 18.4742 71.0827 21.8327 72.7464C25.1912 74.41 28.8895 75.2729 32.6375 75.2675H80.1538C85.1594 75.2718 90.0933 74.0773 94.5427 71.7841C98.9921 69.4909 102.828 66.1656 105.729 62.0863C115.914 48.755 114.789 29.5813 102.508 17.5625Z" fill="url(#paint6_radial_348_111)"/>
<path d="M102.508 17.5625C89.2175 4.61001 67.9475 4.83501 54.995 18.125C51.6489 21.5335 49.0734 25.6206 47.4425 30.11C47.3896 30.2512 47.3056 30.3787 47.1967 30.483C47.0878 30.5873 46.9568 30.6658 46.8135 30.7126C46.6701 30.7595 46.5181 30.7734 46.3686 30.7535C46.2191 30.7336 46.0761 30.6803 45.95 30.5975C44.7845 29.8216 43.5492 29.1563 42.26 28.61C38.5763 26.9195 34.5266 26.1822 30.4835 26.466C26.4403 26.7498 22.5334 28.0455 19.1219 30.2341C15.7104 32.4226 12.904 35.4337 10.9605 38.9905C9.01706 42.5473 7.99902 46.5356 8 50.5888C8.00172 56.0713 9.86314 61.3912 13.28 65.6788C15.5467 68.6636 18.4742 71.0827 21.8327 72.7464C25.1912 74.41 28.8895 75.2729 32.6375 75.2675H80.1538C85.1594 75.2718 90.0933 74.0773 94.5427 71.7841C98.9921 69.4909 102.828 66.1656 105.729 62.0863C115.914 48.755 114.789 29.5813 102.508 17.5625Z" fill="url(#paint7_radial_348_111)"/>
<path d="M102.508 17.5625C89.2175 4.61001 67.9475 4.83501 54.995 18.125C51.6489 21.5335 49.0734 25.6206 47.4425 30.11C47.3896 30.2512 47.3056 30.3787 47.1967 30.483C47.0878 30.5873 46.9568 30.6658 46.8135 30.7126C46.6701 30.7595 46.5181 30.7734 46.3686 30.7535C46.2191 30.7336 46.0761 30.6803 45.95 30.5975C44.7845 29.8216 43.5492 29.1563 42.26 28.61C38.5763 26.9195 34.5266 26.1822 30.4835 26.466C26.4403 26.7498 22.5334 28.0455 19.1219 30.2341C15.7104 32.4226 12.904 35.4337 10.9605 38.9905C9.01706 42.5473 7.99902 46.5356 8 50.5888C8.00172 56.0713 9.86314 61.3912 13.28 65.6788C15.5467 68.6636 18.4742 71.0827 21.8327 72.7464C25.1912 74.41 28.8895 75.2729 32.6375 75.2675H80.1538C85.1594 75.2718 90.0933 74.0773 94.5427 71.7841C98.9921 69.4909 102.828 66.1656 105.729 62.0863C115.914 48.755 114.789 29.5813 102.508 17.5625Z" fill="url(#paint8_radial_348_111)"/>
<path d="M102.508 17.5625C89.2175 4.61001 67.9475 4.83501 54.995 18.125C51.6489 21.5335 49.0734 25.6206 47.4425 30.11C47.3896 30.2512 47.3056 30.3787 47.1967 30.483C47.0878 30.5873 46.9568 30.6658 46.8135 30.7126C46.6701 30.7595 46.5181 30.7734 46.3686 30.7535C46.2191 30.7336 46.0761 30.6803 45.95 30.5975C44.7845 29.8216 43.5492 29.1563 42.26 28.61C38.5763 26.9195 34.5266 26.1822 30.4835 26.466C26.4403 26.7498 22.5334 28.0455 19.1219 30.2341C15.7104 32.4226 12.904 35.4337 10.9605 38.9905C9.01706 42.5473 7.99902 46.5356 8 50.5888C8.00172 56.0713 9.86314 61.3912 13.28 65.6788C15.5467 68.6636 18.4742 71.0827 21.8327 72.7464C25.1912 74.41 28.8895 75.2729 32.6375 75.2675H80.1538C85.1594 75.2718 90.0933 74.0773 94.5427 71.7841C98.9921 69.4909 102.828 66.1656 105.729 62.0863C115.914 48.755 114.789 29.5813 102.508 17.5625Z" fill="url(#paint9_radial_348_111)"/>
</g>
<defs>
<filter id="filter0_ii_348_111" x="12.2441" y="75.8756" width="22.9732" height="25.9726" filterUnits="userSpaceOnUse" color-interpolation-filters="sRGB">
<feFlood flood-opacity="0" result="BackgroundImageFix"/>
<feBlend mode="normal" in="SourceGraphic" in2="BackgroundImageFix" result="shape"/>
<feColorMatrix in="SourceAlpha" type="matrix" values="0 0 0 0 0 0 0 0 0 0 0 0 0 0 0 0 0 0 127 0" result="hardAlpha"/>
<feOffset dx="0.45" dy="-0.075"/>
<feGaussianBlur stdDeviation="0.5625"/>
<feComposite in2="hardAlpha" operator="arithmetic" k2="-1" k3="1"/>
<feColorMatrix type="matrix" values="0 0 0 0 0.196078 0 0 0 0 0.152941 0 0 0 0 0.972549 0 0 0 1 0"/>
<feBlend mode="normal" in2="shape" result="effect1_innerShadow_348_111"/>
<feColorMatrix in="SourceAlpha" type="matrix" values="0 0 0 0 0 0 0 0 0 0 0 0 0 0 0 0 0 0 127 0" result="hardAlpha"/>
<feOffset dx="0.075" dy="0.075"/>
<feGaussianBlur stdDeviation="0.1875"/>
<feComposite in2="hardAlpha" operator="arithmetic" k2="-1" k3="1"/>
<feColorMatrix type="matrix" values="0 0 0 0 0.65098 0 0 0 0 0.529412 0 0 0 0 0.87451 0 0 0 1 0"/>
<feBlend mode="normal" in2="effect1_innerShadow_348_111" result="effect2_innerShadow_348_111"/>
</filter>
<filter id="filter1_ii_348_111" x="36.7954" y="75.8774" width="22.9695" height="25.9691" filterUnits="userSpaceOnUse" color-interpolation-filters="sRGB">
<feFlood flood-opacity="0" result="BackgroundImageFix"/>
<feBlend mode="normal" in="SourceGraphic" in2="BackgroundImageFix" result="shape"/>
<feColorMatrix in="SourceAlpha" type="matrix" values="0 0 0 0 0 0 0 0 0 0 0 0 0 0 0 0 0 0 127 0" result="hardAlpha"/>
<feOffset dx="0.45" dy="-0.075"/>
<feGaussianBlur stdDeviation="0.5625"/>
<feComposite in2="hardAlpha" operator="arithmetic" k2="-1" k3="1"/>
<feColorMatrix type="matrix" values="0 0 0 0 0.196078 0 0 0 0 0.152941 0 0 0 0 0.972549 0 0 0 1 0"/>
<feBlend mode="normal" in2="shape" result="effect1_innerShadow_348_111"/>
<feColorMatrix in="SourceAlpha" type="matrix" values="0 0 0 0 0 0 0 0 0 0 0 0 0 0 0 0 0 0 127 0" result="hardAlpha"/>
<feOffset dx="0.075" dy="0.075"/>
<feGaussianBlur stdDeviation="0.1875"/>
<feComposite in2="hardAlpha" operator="arithmetic" k2="-1" k3="1"/>
<feColorMatrix type="matrix" values="0 0 0 0 0.65098 0 0 0 0 0.529412 0 0 0 0 0.87451 0 0 0 1 0"/>
<feBlend mode="normal" in2="effect1_innerShadow_348_111" result="effect2_innerShadow_348_111"/>
</filter>
<filter id="filter2_ii_348_111" x="61.3429" y="75.8774" width="22.9695" height="25.9691" filterUnits="userSpaceOnUse" color-interpolation-filters="sRGB">
<feFlood flood-opacity="0" result="BackgroundImageFix"/>
<feBlend mode="normal" in="SourceGraphic" in2="BackgroundImageFix" result="shape"/>
<feColorMatrix in="SourceAlpha" type="matrix" values="0 0 0 0 0 0 0 0 0 0 0 0 0 0 0 0 0 0 127 0" result="hardAlpha"/>
<feOffset dx="0.45" dy="-0.075"/>
<feGaussianBlur stdDeviation="0.5625"/>
<feComposite in2="hardAlpha" operator="arithmetic" k2="-1" k3="1"/>
<feColorMatrix type="matrix" values="0 0 0 0 0.196078 0 0 0 0 0.152941 0 0 0 0 0.972549 0 0 0 1 0"/>
<feBlend mode="normal" in2="shape" result="effect1_innerShadow_348_111"/>
<feColorMatrix in="SourceAlpha" type="matrix" values="0 0 0 0 0 0 0 0 0 0 0 0 0 0 0 0 0 0 127 0" result="hardAlpha"/>
<feOffset dx="0.075" dy="0.075"/>
<feGaussianBlur stdDeviation="0.1875"/>
<feComposite in2="hardAlpha" operator="arithmetic" k2="-1" k3="1"/>
<feColorMatrix type="matrix" values="0 0 0 0 0.65098 0 0 0 0 0.529412 0 0 0 0 0.87451 0 0 0 1 0"/>
<feBlend mode="normal" in2="effect1_innerShadow_348_111" result="effect2_innerShadow_348_111"/>
</filter>
<filter id="filter3_i_348_111" x="8" y="8.00061" width="104.622" height="67.267" filterUnits="userSpaceOnUse" color-interpolation-filters="sRGB">
<feFlood flood-opacity="0" result="BackgroundImageFix"/>
<feBlend mode="normal" in="SourceGraphic" in2="BackgroundImageFix" result="shape"/>
<feColorMatrix in="SourceAlpha" type="matrix" values="0 0 0 0 0 0 0 0 0 0 0 0 0 0 0 0 0 0 127 0" result="hardAlpha"/>
<feOffset/>
<feGaussianBlur stdDeviation="1.5"/>
<feComposite in2="hardAlpha" operator="arithmetic" k2="-1" k3="1"/>
<feColorMatrix type="matrix" values="0 0 0 0 0.701961 0 0 0 0 0.698039 0 0 0 0 0.992157 0 0 0 1 0"/>
<feBlend mode="normal" in2="shape" result="effect1_innerShadow_348_111"/>
</filter>
<filter id="filter4_ii_348_111" x="8" y="8.00061" width="104.622" height="67.267" filterUnits="userSpaceOnUse" color-interpolation-filters="sRGB">
<feFlood flood-opacity="0" result="BackgroundImageFix"/>
<feBlend mode="normal" in="SourceGraphic" in2="BackgroundImageFix" result="shape"/>
<feColorMatrix in="SourceAlpha" type="matrix" values="0 0 0 0 0 0 0 0 0 0 0 0 0 0 0 0 0 0 127 0" result="hardAlpha"/>
<feOffset/>
<feGaussianBlur stdDeviation="2.625"/>
<feComposite in2="hardAlpha" operator="arithmetic" k2="-1" k3="1"/>
<feColorMatrix type="matrix" values="0 0 0 0 0.701961 0 0 0 0 0.698039 0 0 0 0 0.992157 0 0 0 1 0"/>
<feBlend mode="normal" in2="shape" result="effect1_innerShadow_348_111"/>
<feColorMatrix in="SourceAlpha" type="matrix" values="0 0 0 0 0 0 0 0 0 0 0 0 0 0 0 0 0 0 127 0" result="hardAlpha"/>
<feOffset/>
<feGaussianBlur stdDeviation="0.9375"/>
<feComposite in2="hardAlpha" operator="arithmetic" k2="-1" k3="1"/>
<feColorMatrix type="matrix" values="0 0 0 0 0.701961 0 0 0 0 0.698039 0 0 0 0 0.992157 0 0 0 1 0"/>
<feBlend mode="normal" in2="effect1_innerShadow_348_111" result="effect2_innerShadow_348_111"/>
</filter>
<radialGradient id="paint0_radial_348_111" cx="0" cy="0" r="1" gradientUnits="userSpaceOnUse" gradientTransform="translate(45.8384 28.9261) rotate(-110.468) scale(13.3884 13.0036)">
<stop offset="0.307" stop-color="#CECDFF"/>
<stop offset="1" stop-color="#B7B6FA"/>
</radialGradient>
<radialGradient id="paint1_radial_348_111" cx="0" cy="0" r="1" gradientUnits="userSpaceOnUse" gradientTransform="translate(51.5188 25.5612) rotate(-148.811) scale(5.4281 18.0503)">
<stop offset="0.401" stop-color="#B8B7FF"/>
<stop offset="1" stop-color="#B8B7FF" stop-opacity="0"/>
</radialGradient>
<radialGradient id="paint2_radial_348_111" cx="0" cy="0" r="1" gradientUnits="userSpaceOnUse" gradientTransform="translate(36.3337 78.2936) rotate(142.938) scale(11.3893 9.93446)">
<stop stop-color="#627AFE"/>
<stop offset="1" stop-color="#627AFE" stop-opacity="0"/>
</radialGradient>
<radialGradient id="paint3_radial_348_111" cx="0" cy="0" r="1" gradientUnits="userSpaceOnUse" gradientTransform="translate(60.8788 78.2862) rotate(142.938) scale(11.3893 9.93446)">
<stop stop-color="#627AFE"/>
<stop offset="1" stop-color="#627AFE" stop-opacity="0"/>
</radialGradient>
<linearGradient id="paint4_linear_348_111" x1="83.8625" y1="78.7738" x2="64.4975" y2="104.555" gradientUnits="userSpaceOnUse">
<stop stop-color="#3364FE"/>
<stop offset="1" stop-color="#3749FF"/>
</linearGradient>
<radialGradient id="paint5_radial_348_111" cx="0" cy="0" r="1" gradientUnits="userSpaceOnUse" gradientTransform="translate(85.4283 78.2923) rotate(142.938) scale(11.3893 9.93446)">
<stop stop-color="#627AFE"/>
<stop offset="1" stop-color="#627AFE" stop-opacity="0"/>
</radialGradient>
<radialGradient id="paint6_radial_348_111" cx="0" cy="0" r="1" gradientUnits="userSpaceOnUse" gradientTransform="translate(61.9813 50.2888) rotate(-106.955) scale(48.6472 27.3323)">
<stop stop-color="#D6CCFF"/>
<stop offset="1" stop-color="#D6CCFF" stop-opacity="0"/>
</radialGradient>
<radialGradient id="paint7_radial_348_111" cx="0" cy="0" r="1" gradientUnits="userSpaceOnUse" gradientTransform="translate(106.531 27.3057) rotate(147.006) scale(45.3311 50.6355)">
<stop offset="0.19" stop-color="#F2F0FF"/>
<stop offset="1" stop-color="#F2F0FF" stop-opacity="0"/>
</radialGradient>
<radialGradient id="paint8_radial_348_111" cx="0" cy="0" r="1" gradientUnits="userSpaceOnUse" gradientTransform="translate(34.46 39.5108) rotate(147.319) scale(35.7327 43.5431)">
<stop stop-color="#F2F0FF"/>
<stop offset="0.696" stop-color="#F2F0FF" stop-opacity="0"/>
</radialGradient>
<radialGradient id="paint9_radial_348_111" cx="0" cy="0" r="1" gradientUnits="userSpaceOnUse" gradientTransform="translate(42.6875 24.47) rotate(71.9061) scale(30.1483 11.2394)">
<stop stop-color="#F2F0FF"/>
<stop offset="1" stop-color="#F2F0FF" stop-opacity="0"/>
</radialGradient>
</defs>
</svg>
