<svg width="121" height="121" viewBox="0 0 121 121" fill="none" xmlns="http://www.w3.org/2000/svg">
<g filter="url(#filter0_i_345_237)">
<path d="M17.1875 24.95C16.9416 24.953 16.6978 24.9045 16.4717 24.8076C16.2457 24.7107 16.0424 24.5676 15.875 24.3875C15.125 23.6375 15.125 22.475 15.875 21.725C24.7625 12.875 36.5375 8 49.1 8C53.7125 8 58.325 8.675 62.7125 10.025C63.183 10.1721 63.5766 10.4985 63.8082 10.9336C64.0398 11.3688 64.0908 11.8776 63.95 12.35C63.65 13.3625 62.6 13.925 61.625 13.5875C57.5596 12.3779 53.3415 11.7591 49.1 11.75C37.55 11.75 26.675 16.25 18.5375 24.425C18.1625 24.8 17.675 24.95 17.1875 24.95Z" fill="url(#paint0_radial_345_237)"/>
</g>
<g filter="url(#filter1_i_345_237)">
<path d="M9.875 62.2999C8.825 62.2999 8 61.4749 8 60.4249C8 37.7749 26.45 19.325 49.1 19.325C50.15 19.325 50.975 20.15 50.975 21.2C50.975 22.25 50.15 23.075 49.1 23.075C28.5125 23.075 11.75 39.8374 11.75 60.4249C11.75 61.4749 10.925 62.2999 9.875 62.2999Z" fill="url(#paint1_linear_345_237)"/>
</g>
<path d="M19.25 60.5375V71.3C19.25 94.3625 37.9625 113.075 61.025 113.075H89.675C92.2625 113.075 94.3625 110.975 94.3625 108.387V106.025C94.3625 82.9625 75.65 64.25 52.5875 64.25H23L19.25 60.5375Z" fill="url(#paint2_linear_345_237)"/>
<path d="M19.25 60.5375V71.3C19.25 94.3625 37.9625 113.075 61.025 113.075H89.675C92.2625 113.075 94.3625 110.975 94.3625 108.387V106.025C94.3625 82.9625 75.65 64.25 52.5875 64.25H23L19.25 60.5375Z" fill="url(#paint3_linear_345_237)"/>
<g filter="url(#filter2_f_345_237)">
<path d="M24.1812 65.3824V74.1574C24.1812 92.9674 40.4375 108.23 60.47 108.23H85.3587C87.6087 108.23 89.4312 106.516 89.4312 104.405V102.481C89.4312 83.6712 73.175 68.4087 53.1425 68.4087H27.44L24.1812 65.3824Z" fill="url(#paint4_linear_345_237)"/>
</g>
<g filter="url(#filter3_f_345_237)">
<path d="M68.4538 99.8L28.8425 77.6C27.7674 77.0132 26.9694 76.0233 26.6241 74.8482C26.2788 73.673 26.4145 72.4088 27.0013 71.3337C27.588 70.2586 28.5779 69.4606 29.753 69.1153C30.9282 68.77 32.1924 68.9057 33.2675 69.4925L73.3775 90.7737C73.9702 91.097 74.4934 91.5339 74.9172 92.0594C75.341 92.5849 75.6572 93.1887 75.8477 93.8364C76.0382 94.4841 76.0992 95.1629 76.0273 95.8342C75.9555 96.5055 75.7521 97.156 75.4288 97.7487C75.1055 98.3414 74.6686 98.8646 74.1431 99.2884C73.6176 99.7122 73.0138 100.028 72.3661 100.219C71.7184 100.409 71.0395 100.47 70.3683 100.399C69.697 100.327 69.0464 100.123 68.4538 99.8Z" fill="url(#paint5_linear_345_237)"/>
</g>
<g filter="url(#filter4_i_345_237)">
<path d="M86.0375 63.9876C84.9875 63.9876 84.1625 63.1625 84.1625 62.1126C84.1625 61.0625 84.9875 60.2376 86.0375 60.2376C90.8375 60.2376 95.45 58.7751 99.3875 56.0375C102.429 53.8765 104.911 51.0205 106.626 47.7071C108.342 44.3937 109.241 40.7187 109.25 36.9875C109.25 35.9375 110.075 35.1125 111.125 35.1125C112.175 35.1125 113 35.975 113 36.9875C113 45.7625 108.725 54.0125 101.525 59.075C97.0005 62.2862 91.5858 64.0037 86.0375 63.9876Z" fill="url(#paint6_linear_345_237)"/>
</g>
<g filter="url(#filter5_i_345_237)">
<path d="M105.5 17.3V24.6125C105.5 28.3306 104.768 32.0122 103.345 35.4473C101.922 38.8823 99.8365 42.0034 97.2075 44.6325C91.8978 49.9421 84.6965 52.925 77.1875 52.925H57.725C56.8796 52.925 56.0689 52.5892 55.4711 51.9915C54.8733 51.3937 54.5375 50.5829 54.5375 49.7375V48.125C54.5375 32.4875 67.2125 19.25 82.85 19.25H102.913L105.5 17.3Z" fill="url(#paint7_linear_345_237)"/>
</g>
<g filter="url(#filter6_f_345_237)">
<path d="M102.755 21.3875L100.494 25.91C100.494 38.8362 90.0162 50.0712 77.0937 50.0712H59.9187C59.5721 50.0727 59.2287 50.0055 58.9081 49.8736C58.5876 49.7416 58.2964 49.5475 58.0513 49.3024C57.8062 49.0573 57.6121 48.7661 57.4801 48.4456C57.3482 48.125 57.281 47.7816 57.2825 47.4349V46.1037C57.2825 33.1812 68.8512 22.2387 81.7737 22.2387L100.494 22.55L102.755 21.3875Z" fill="url(#paint8_linear_345_237)"/>
</g>
<g filter="url(#filter7_f_345_237)">
<path d="M69.7512 25.1675C65.2587 27.5487 56.2138 35.1275 55.6888 50.5362" stroke="url(#paint9_linear_345_237)" stroke-width="0.15" stroke-linecap="round"/>
</g>
<g filter="url(#filter8_f_345_237)">
<path d="M85.4488 48.2375C92.4425 44.8737 102.684 36.1025 102.23 23.2925" stroke="url(#paint10_linear_345_237)" stroke-width="0.45" stroke-linecap="round"/>
</g>
<path d="M69.6125 43.2874C69.9125 43.2874 70.25 43.2125 70.5125 43.0625L100.813 26.525C103.7 24.9125 105.5 21.9125 105.5 18.6125V9.98745C105.5 8.93745 104.638 8.07495 103.588 8.07495C102.538 8.07495 101.675 8.93745 101.675 9.98745V18.575C101.675 20.4875 100.625 22.2125 98.975 23.15L68.675 39.6875C67.7375 40.175 67.4 41.3375 67.925 42.275C68.2625 42.9125 68.9375 43.2874 69.6125 43.2874Z" fill="url(#paint11_linear_345_237)"/>
<path d="M69.6125 43.2874C69.9125 43.2874 70.25 43.2125 70.5125 43.0625L100.813 26.525C103.7 24.9125 105.5 21.9125 105.5 18.6125V9.98745C105.5 8.93745 104.638 8.07495 103.588 8.07495C102.538 8.07495 101.675 8.93745 101.675 9.98745V18.575C101.675 20.4875 100.625 22.2125 98.975 23.15L68.675 39.6875C67.7375 40.175 67.4 41.3375 67.925 42.275C68.2625 42.9125 68.9375 43.2874 69.6125 43.2874Z" fill="url(#paint12_radial_345_237)"/>
<path d="M69.6125 43.2874C69.9125 43.2874 70.25 43.2125 70.5125 43.0625L100.813 26.525C103.7 24.9125 105.5 21.9125 105.5 18.6125V9.98745C105.5 8.93745 104.638 8.07495 103.588 8.07495C102.538 8.07495 101.675 8.93745 101.675 9.98745V18.575C101.675 20.4875 100.625 22.2125 98.975 23.15L68.675 39.6875C67.7375 40.175 67.4 41.3375 67.925 42.275C68.2625 42.9125 68.9375 43.2874 69.6125 43.2874Z" fill="url(#paint13_radial_345_237)"/>
<g filter="url(#filter9_f_345_237)">
<path d="M70.7263 41.6337L100.43 25.19C101.602 24.5415 102.58 23.5908 103.26 22.4367C103.941 21.2827 104.3 19.9673 104.3 18.6275V9.875" stroke="url(#paint14_linear_345_237)" stroke-width="0.1875" stroke-linecap="round"/>
</g>
<g filter="url(#filter10_f_345_237)">
<path d="M111.95 37.0062C112.1 41.5025 109.501 53.2362 99.275 58.7937" stroke="url(#paint15_linear_345_237)" stroke-width="0.15" stroke-linecap="round"/>
</g>
<g filter="url(#filter11_f_345_237)">
<path d="M85.3775 62.5775C88.835 62.675 96.9313 61.4037 102.684 56.72" stroke="url(#paint16_linear_345_237)" stroke-width="0.15" stroke-linecap="round"/>
</g>
<g filter="url(#filter12_f_345_237)">
<path d="M63.1812 69.5413C72.5187 71.8663 91.2275 82.8538 91.3437 108.23" stroke="url(#paint17_linear_345_237)" stroke-width="0.375" stroke-linecap="round"/>
</g>
<g filter="url(#filter13_f_345_237)">
<path d="M25.925 78.8824C27.1625 86.3449 34.6137 102.271 54.5375 106.302" stroke="url(#paint18_radial_345_237)" stroke-width="0.375" stroke-linecap="round"/>
</g>
<g filter="url(#filter14_ii_345_237)">
<path fill-rule="evenodd" clip-rule="evenodd" d="M23.375 46.1488C24.469 46.1488 25.5182 46.5834 26.2918 47.357C27.0654 48.1306 27.5 49.1798 27.5 50.2738V63.8638C27.5004 64.4573 27.6573 65.0403 27.9549 65.5538C28.2525 66.0674 28.6802 66.4934 29.195 66.7888L75.0837 93.0913C75.5671 93.3535 75.9932 93.7097 76.3369 94.1389C76.6806 94.5682 76.9351 95.0618 77.0852 95.5908C77.2354 96.1198 77.2783 96.6735 77.2114 97.2193C77.1444 97.7651 76.969 98.292 76.6955 98.7691C76.422 99.2461 76.0558 99.6637 75.6186 99.9972C75.1814 100.331 74.6818 100.573 74.1494 100.711C73.617 100.849 73.0625 100.878 72.5184 100.799C71.9743 100.719 71.4517 100.531 70.9813 100.246L25.1 73.9476C23.3229 72.9303 21.8459 71.4617 20.8187 69.6904C19.7914 67.919 19.2503 65.9077 19.25 63.8601V50.2738C19.25 49.1798 19.6846 48.1306 20.4582 47.357C21.2318 46.5834 22.281 46.1488 23.375 46.1488Z" fill="url(#paint19_linear_345_237)"/>
</g>
<path fill-rule="evenodd" clip-rule="evenodd" d="M23.375 46.1488C24.469 46.1488 25.5182 46.5834 26.2918 47.357C27.0654 48.1306 27.5 49.1798 27.5 50.2738V63.8638C27.5004 64.4573 27.6573 65.0403 27.9549 65.5538C28.2525 66.0674 28.6802 66.4934 29.195 66.7888L75.0837 93.0913C75.5671 93.3535 75.9932 93.7097 76.3369 94.1389C76.6806 94.5682 76.9351 95.0618 77.0852 95.5908C77.2354 96.1198 77.2783 96.6735 77.2114 97.2193C77.1444 97.7651 76.969 98.292 76.6955 98.7691C76.422 99.2461 76.0558 99.6637 75.6186 99.9972C75.1814 100.331 74.6818 100.573 74.1494 100.711C73.617 100.849 73.0625 100.878 72.5184 100.799C71.9743 100.719 71.4517 100.531 70.9813 100.246L25.1 73.9476C23.3229 72.9303 21.8459 71.4617 20.8187 69.6904C19.7914 67.919 19.2503 65.9077 19.25 63.8601V50.2738C19.25 49.1798 19.6846 48.1306 20.4582 47.357C21.2318 46.5834 22.281 46.1488 23.375 46.1488Z" fill="url(#paint20_linear_345_237)"/>
<path fill-rule="evenodd" clip-rule="evenodd" d="M23.375 46.1488C24.469 46.1488 25.5182 46.5834 26.2918 47.357C27.0654 48.1306 27.5 49.1798 27.5 50.2738V63.8638C27.5004 64.4573 27.6573 65.0403 27.9549 65.5538C28.2525 66.0674 28.6802 66.4934 29.195 66.7888L75.0837 93.0913C75.5671 93.3535 75.9932 93.7097 76.3369 94.1389C76.6806 94.5682 76.9351 95.0618 77.0852 95.5908C77.2354 96.1198 77.2783 96.6735 77.2114 97.2193C77.1444 97.7651 76.969 98.292 76.6955 98.7691C76.422 99.2461 76.0558 99.6637 75.6186 99.9972C75.1814 100.331 74.6818 100.573 74.1494 100.711C73.617 100.849 73.0625 100.878 72.5184 100.799C71.9743 100.719 71.4517 100.531 70.9813 100.246L25.1 73.9476C23.3229 72.9303 21.8459 71.4617 20.8187 69.6904C19.7914 67.919 19.2503 65.9077 19.25 63.8601V50.2738C19.25 49.1798 19.6846 48.1306 20.4582 47.357C21.2318 46.5834 22.281 46.1488 23.375 46.1488Z" fill="url(#paint21_radial_345_237)"/>
<path fill-rule="evenodd" clip-rule="evenodd" d="M23.375 46.1488C24.469 46.1488 25.5182 46.5834 26.2918 47.357C27.0654 48.1306 27.5 49.1798 27.5 50.2738V63.8638C27.5004 64.4573 27.6573 65.0403 27.9549 65.5538C28.2525 66.0674 28.6802 66.4934 29.195 66.7888L75.0837 93.0913C75.5671 93.3535 75.9932 93.7097 76.3369 94.1389C76.6806 94.5682 76.9351 95.0618 77.0852 95.5908C77.2354 96.1198 77.2783 96.6735 77.2114 97.2193C77.1444 97.7651 76.969 98.292 76.6955 98.7691C76.422 99.2461 76.0558 99.6637 75.6186 99.9972C75.1814 100.331 74.6818 100.573 74.1494 100.711C73.617 100.849 73.0625 100.878 72.5184 100.799C71.9743 100.719 71.4517 100.531 70.9813 100.246L25.1 73.9476C23.3229 72.9303 21.8459 71.4617 20.8187 69.6904C19.7914 67.919 19.2503 65.9077 19.25 63.8601V50.2738C19.25 49.1798 19.6846 48.1306 20.4582 47.357C21.2318 46.5834 22.281 46.1488 23.375 46.1488Z" fill="url(#paint22_radial_345_237)"/>
<g filter="url(#filter15_f_345_237)">
<path d="M24.8637 50.2738V63.4551C24.8639 64.8028 25.2272 66.1257 25.9154 67.2845C26.6037 68.4432 27.5915 69.3951 28.775 70.0401L74.8175 95.1126" stroke="url(#paint23_radial_345_237)" stroke-width="0.375" stroke-linecap="round"/>
<path d="M24.8637 50.2738V63.4551C24.8639 64.8028 25.2272 66.1257 25.9154 67.2845C26.6037 68.4432 27.5915 69.3951 28.775 70.0401L74.8175 95.1126" stroke="url(#paint24_linear_345_237)" stroke-width="0.375" stroke-linecap="round"/>
<path d="M24.8637 50.2738V63.4551C24.8639 64.8028 25.2272 66.1257 25.9154 67.2845C26.6037 68.4432 27.5915 69.3951 28.775 70.0401L74.8175 95.1126" stroke="url(#paint25_linear_345_237)" stroke-width="0.375" stroke-linecap="round"/>
</g>
<g filter="url(#filter16_f_345_237)">
<path d="M10.2537 60.35C10.1562 54.035 12.86 38.33 23.2737 30.2225" stroke="url(#paint26_linear_345_237)" stroke-width="0.1875" stroke-linecap="round"/>
</g>
<g filter="url(#filter17_f_345_237)">
<path d="M49.535 20.6975C39.6387 20.6975 29.7462 24.2713 23.2737 30.2225" stroke="url(#paint27_linear_345_237)" stroke-width="0.1875" stroke-linecap="round"/>
</g>
<g filter="url(#filter18_f_345_237)">
<path d="M62.8512 11.6225C59.3787 10.7038 50.6337 9.06503 43.4337 9.83753" stroke="url(#paint28_linear_345_237)" stroke-width="0.1875" stroke-linecap="round"/>
</g>
<g filter="url(#filter19_f_345_237)">
<path d="M16.8763 23.225C18.9088 20.975 24.6575 15.8187 31.3812 13.2612" stroke="url(#paint29_linear_345_237)" stroke-width="0.1875" stroke-linecap="round"/>
</g>
<defs>
<filter id="filter0_i_345_237" x="15.2" y="7.925" width="48.8281" height="17.0251" filterUnits="userSpaceOnUse" color-interpolation-filters="sRGB">
<feFlood flood-opacity="0" result="BackgroundImageFix"/>
<feBlend mode="normal" in="SourceGraphic" in2="BackgroundImageFix" result="shape"/>
<feColorMatrix in="SourceAlpha" type="matrix" values="0 0 0 0 0 0 0 0 0 0 0 0 0 0 0 0 0 0 127 0" result="hardAlpha"/>
<feOffset dx="-0.1125" dy="-0.075"/>
<feGaussianBlur stdDeviation="0.09375"/>
<feComposite in2="hardAlpha" operator="arithmetic" k2="-1" k3="1"/>
<feColorMatrix type="matrix" values="0 0 0 0 0.776471 0 0 0 0 0.733333 0 0 0 0 0.847059 0 0 0 1 0"/>
<feBlend mode="normal" in2="shape" result="effect1_innerShadow_345_237"/>
</filter>
<filter id="filter1_i_345_237" x="8" y="19.2125" width="42.975" height="43.0875" filterUnits="userSpaceOnUse" color-interpolation-filters="sRGB">
<feFlood flood-opacity="0" result="BackgroundImageFix"/>
<feBlend mode="normal" in="SourceGraphic" in2="BackgroundImageFix" result="shape"/>
<feColorMatrix in="SourceAlpha" type="matrix" values="0 0 0 0 0 0 0 0 0 0 0 0 0 0 0 0 0 0 127 0" result="hardAlpha"/>
<feOffset dy="-0.1125"/>
<feGaussianBlur stdDeviation="0.05625"/>
<feComposite in2="hardAlpha" operator="arithmetic" k2="-1" k3="1"/>
<feColorMatrix type="matrix" values="0 0 0 0 0.720229 0 0 0 0 0.669826 0 0 0 0 0.795833 0 0 0 1 0"/>
<feBlend mode="normal" in2="shape" result="effect1_innerShadow_345_237"/>
</filter>
<filter id="filter2_f_345_237" x="23.4312" y="64.6324" width="66.75" height="44.3475" filterUnits="userSpaceOnUse" color-interpolation-filters="sRGB">
<feFlood flood-opacity="0" result="BackgroundImageFix"/>
<feBlend mode="normal" in="SourceGraphic" in2="BackgroundImageFix" result="shape"/>
<feGaussianBlur stdDeviation="0.375" result="effect1_foregroundBlur_345_237"/>
</filter>
<filter id="filter3_f_345_237" x="25.6868" y="68.178" width="51.1198" height="32.9998" filterUnits="userSpaceOnUse" color-interpolation-filters="sRGB">
<feFlood flood-opacity="0" result="BackgroundImageFix"/>
<feBlend mode="normal" in="SourceGraphic" in2="BackgroundImageFix" result="shape"/>
<feGaussianBlur stdDeviation="0.375" result="effect1_foregroundBlur_345_237"/>
</filter>
<filter id="filter4_i_345_237" x="84.1625" y="35.1125" width="28.8375" height="28.9876" filterUnits="userSpaceOnUse" color-interpolation-filters="sRGB">
<feFlood flood-opacity="0" result="BackgroundImageFix"/>
<feBlend mode="normal" in="SourceGraphic" in2="BackgroundImageFix" result="shape"/>
<feColorMatrix in="SourceAlpha" type="matrix" values="0 0 0 0 0 0 0 0 0 0 0 0 0 0 0 0 0 0 127 0" result="hardAlpha"/>
<feOffset dy="0.1125"/>
<feGaussianBlur stdDeviation="0.09375"/>
<feComposite in2="hardAlpha" operator="arithmetic" k2="-1" k3="1"/>
<feColorMatrix type="matrix" values="0 0 0 0 0.701961 0 0 0 0 0.690196 0 0 0 0 0.764706 0 0 0 1 0"/>
<feBlend mode="normal" in2="shape" result="effect1_innerShadow_345_237"/>
</filter>
<filter id="filter5_i_345_237" x="54.5375" y="17.3" width="50.9625" height="35.625" filterUnits="userSpaceOnUse" color-interpolation-filters="sRGB">
<feFlood flood-opacity="0" result="BackgroundImageFix"/>
<feBlend mode="normal" in="SourceGraphic" in2="BackgroundImageFix" result="shape"/>
<feColorMatrix in="SourceAlpha" type="matrix" values="0 0 0 0 0 0 0 0 0 0 0 0 0 0 0 0 0 0 127 0" result="hardAlpha"/>
<feOffset/>
<feGaussianBlur stdDeviation="0.375"/>
<feComposite in2="hardAlpha" operator="arithmetic" k2="-1" k3="1"/>
<feColorMatrix type="matrix" values="0 0 0 0 0.309804 0 0 0 0 0.654902 0 0 0 0 0.537255 0 0 0 1 0"/>
<feBlend mode="normal" in2="shape" result="effect1_innerShadow_345_237"/>
</filter>
<filter id="filter6_f_345_237" x="56.9075" y="21.0125" width="46.2225" height="29.4337" filterUnits="userSpaceOnUse" color-interpolation-filters="sRGB">
<feFlood flood-opacity="0" result="BackgroundImageFix"/>
<feBlend mode="normal" in="SourceGraphic" in2="BackgroundImageFix" result="shape"/>
<feGaussianBlur stdDeviation="0.1875" result="effect1_foregroundBlur_345_237"/>
</filter>
<filter id="filter7_f_345_237" x="55.3137" y="24.7924" width="14.8125" height="26.1188" filterUnits="userSpaceOnUse" color-interpolation-filters="sRGB">
<feFlood flood-opacity="0" result="BackgroundImageFix"/>
<feBlend mode="normal" in="SourceGraphic" in2="BackgroundImageFix" result="shape"/>
<feGaussianBlur stdDeviation="0.15" result="effect1_foregroundBlur_345_237"/>
</filter>
<filter id="filter8_f_345_237" x="84.7737" y="22.6175" width="18.1459" height="26.295" filterUnits="userSpaceOnUse" color-interpolation-filters="sRGB">
<feFlood flood-opacity="0" result="BackgroundImageFix"/>
<feBlend mode="normal" in="SourceGraphic" in2="BackgroundImageFix" result="shape"/>
<feGaussianBlur stdDeviation="0.225" result="effect1_foregroundBlur_345_237"/>
</filter>
<filter id="filter9_f_345_237" x="70.445" y="9.59375" width="34.1363" height="32.3213" filterUnits="userSpaceOnUse" color-interpolation-filters="sRGB">
<feFlood flood-opacity="0" result="BackgroundImageFix"/>
<feBlend mode="normal" in="SourceGraphic" in2="BackgroundImageFix" result="shape"/>
<feGaussianBlur stdDeviation="0.09375" result="effect1_foregroundBlur_345_237"/>
</filter>
<filter id="filter10_f_345_237" x="99.05" y="36.7813" width="13.1311" height="22.2375" filterUnits="userSpaceOnUse" color-interpolation-filters="sRGB">
<feFlood flood-opacity="0" result="BackgroundImageFix"/>
<feBlend mode="normal" in="SourceGraphic" in2="BackgroundImageFix" result="shape"/>
<feGaussianBlur stdDeviation="0.075" result="effect1_foregroundBlur_345_237"/>
</filter>
<filter id="filter11_f_345_237" x="85.1525" y="56.495" width="17.7563" height="6.31257" filterUnits="userSpaceOnUse" color-interpolation-filters="sRGB">
<feFlood flood-opacity="0" result="BackgroundImageFix"/>
<feBlend mode="normal" in="SourceGraphic" in2="BackgroundImageFix" result="shape"/>
<feGaussianBlur stdDeviation="0.075" result="effect1_foregroundBlur_345_237"/>
</filter>
<filter id="filter12_f_345_237" x="62.5437" y="68.9038" width="29.4375" height="39.9637" filterUnits="userSpaceOnUse" color-interpolation-filters="sRGB">
<feFlood flood-opacity="0" result="BackgroundImageFix"/>
<feBlend mode="normal" in="SourceGraphic" in2="BackgroundImageFix" result="shape"/>
<feGaussianBlur stdDeviation="0.225" result="effect1_foregroundBlur_345_237"/>
</filter>
<filter id="filter13_f_345_237" x="24.9875" y="77.9449" width="30.4876" height="29.295" filterUnits="userSpaceOnUse" color-interpolation-filters="sRGB">
<feFlood flood-opacity="0" result="BackgroundImageFix"/>
<feBlend mode="normal" in="SourceGraphic" in2="BackgroundImageFix" result="shape"/>
<feGaussianBlur stdDeviation="0.375" result="effect1_foregroundBlur_345_237"/>
</filter>
<filter id="filter14_ii_345_237" x="19.25" y="45.9613" width="58.142" height="54.881" filterUnits="userSpaceOnUse" color-interpolation-filters="sRGB">
<feFlood flood-opacity="0" result="BackgroundImageFix"/>
<feBlend mode="normal" in="SourceGraphic" in2="BackgroundImageFix" result="shape"/>
<feColorMatrix in="SourceAlpha" type="matrix" values="0 0 0 0 0 0 0 0 0 0 0 0 0 0 0 0 0 0 127 0" result="hardAlpha"/>
<feOffset dx="0.15" dy="-0.1875"/>
<feGaussianBlur stdDeviation="0.1875"/>
<feComposite in2="hardAlpha" operator="arithmetic" k2="-1" k3="1"/>
<feColorMatrix type="matrix" values="0 0 0 0 0.109804 0 0 0 0 0.529412 0 0 0 0 0.356863 0 0 0 1 0"/>
<feBlend mode="normal" in2="shape" result="effect1_innerShadow_345_237"/>
<feColorMatrix in="SourceAlpha" type="matrix" values="0 0 0 0 0 0 0 0 0 0 0 0 0 0 0 0 0 0 127 0" result="hardAlpha"/>
<feOffset/>
<feGaussianBlur stdDeviation="0.375"/>
<feComposite in2="hardAlpha" operator="arithmetic" k2="-1" k3="1"/>
<feColorMatrix type="matrix" values="0 0 0 0 0.14902 0 0 0 0 0.670588 0 0 0 0 0.392157 0 0 0 1 0"/>
<feBlend mode="normal" in2="effect1_innerShadow_345_237" result="effect2_innerShadow_345_237"/>
</filter>
<filter id="filter15_f_345_237" x="24.3012" y="49.7113" width="51.0788" height="45.9637" filterUnits="userSpaceOnUse" color-interpolation-filters="sRGB">
<feFlood flood-opacity="0" result="BackgroundImageFix"/>
<feBlend mode="normal" in="SourceGraphic" in2="BackgroundImageFix" result="shape"/>
<feGaussianBlur stdDeviation="0.1875" result="effect1_foregroundBlur_345_237"/>
</filter>
<filter id="filter16_f_345_237" x="9.96997" y="29.9413" width="13.585" height="30.6899" filterUnits="userSpaceOnUse" color-interpolation-filters="sRGB">
<feFlood flood-opacity="0" result="BackgroundImageFix"/>
<feBlend mode="normal" in="SourceGraphic" in2="BackgroundImageFix" result="shape"/>
<feGaussianBlur stdDeviation="0.09375" result="effect1_foregroundBlur_345_237"/>
</filter>
<filter id="filter17_f_345_237" x="22.9925" y="20.4163" width="26.8238" height="10.0875" filterUnits="userSpaceOnUse" color-interpolation-filters="sRGB">
<feFlood flood-opacity="0" result="BackgroundImageFix"/>
<feBlend mode="normal" in="SourceGraphic" in2="BackgroundImageFix" result="shape"/>
<feGaussianBlur stdDeviation="0.09375" result="effect1_foregroundBlur_345_237"/>
</filter>
<filter id="filter18_f_345_237" x="43.1525" y="9.35522" width="19.98" height="2.54858" filterUnits="userSpaceOnUse" color-interpolation-filters="sRGB">
<feFlood flood-opacity="0" result="BackgroundImageFix"/>
<feBlend mode="normal" in="SourceGraphic" in2="BackgroundImageFix" result="shape"/>
<feGaussianBlur stdDeviation="0.09375" result="effect1_foregroundBlur_345_237"/>
</filter>
<filter id="filter19_f_345_237" x="16.595" y="12.98" width="15.0675" height="10.5262" filterUnits="userSpaceOnUse" color-interpolation-filters="sRGB">
<feFlood flood-opacity="0" result="BackgroundImageFix"/>
<feBlend mode="normal" in="SourceGraphic" in2="BackgroundImageFix" result="shape"/>
<feGaussianBlur stdDeviation="0.09375" result="effect1_foregroundBlur_345_237"/>
</filter>
<radialGradient id="paint0_radial_345_237" cx="0" cy="0" r="1" gradientUnits="userSpaceOnUse" gradientTransform="translate(38.525 14.225) rotate(-103.627) scale(5.05225 33.6415)">
<stop offset="0.006" stop-color="#CBBDDC"/>
<stop offset="1" stop-color="#D2CCDB"/>
</radialGradient>
<linearGradient id="paint1_linear_345_237" x1="8" y1="55.5799" x2="50.975" y2="20.4237" gradientUnits="userSpaceOnUse">
<stop offset="0.006" stop-color="#CCC3D9"/>
<stop offset="1" stop-color="#CABDDD"/>
</linearGradient>
<linearGradient id="paint2_linear_345_237" x1="49.4675" y1="117.421" x2="61.625" y2="75.62" gradientUnits="userSpaceOnUse">
<stop stop-color="#459589"/>
<stop offset="1" stop-color="#5AB57A"/>
</linearGradient>
<linearGradient id="paint3_linear_345_237" x1="59.105" y1="115.494" x2="59.105" y2="108.526" gradientUnits="userSpaceOnUse">
<stop stop-color="#528289"/>
<stop offset="1" stop-color="#528289" stop-opacity="0"/>
</linearGradient>
<linearGradient id="paint4_linear_345_237" x1="27.53" y1="68.2062" x2="75.3162" y2="104.836" gradientUnits="userSpaceOnUse">
<stop stop-color="#4BBC85"/>
<stop offset="1" stop-color="#46AF84"/>
</linearGradient>
<linearGradient id="paint5_linear_345_237" x1="45.3163" y1="86.1425" x2="48.4325" y2="79.7712" gradientUnits="userSpaceOnUse">
<stop stop-color="#33A171"/>
<stop offset="1" stop-color="#3FB774"/>
</linearGradient>
<linearGradient id="paint6_linear_345_237" x1="86.3788" y1="65.9451" x2="114.245" y2="41.6338" gradientUnits="userSpaceOnUse">
<stop offset="0.006" stop-color="#C2B4D9"/>
<stop offset="1" stop-color="#C8C4D5"/>
</linearGradient>
<linearGradient id="paint7_linear_345_237" x1="56.1088" y1="48.095" x2="109.348" y2="21.7325" gradientUnits="userSpaceOnUse">
<stop stop-color="#4FC679"/>
<stop offset="1" stop-color="#4DBF82"/>
</linearGradient>
<linearGradient id="paint8_linear_345_237" x1="59.675" y1="46.0774" x2="103.674" y2="24.2937" gradientUnits="userSpaceOnUse">
<stop stop-color="#4FC886"/>
<stop offset="1" stop-color="#4EBD8E"/>
</linearGradient>
<linearGradient id="paint9_linear_345_237" x1="60.4137" y1="37.1637" x2="53.4275" y2="38.9075" gradientUnits="userSpaceOnUse">
<stop offset="0.809" stop-color="#84D59E"/>
<stop offset="1" stop-color="#84D49E" stop-opacity="0"/>
</linearGradient>
<linearGradient id="paint10_linear_345_237" x1="92.0225" y1="46.9062" x2="106.985" y2="43.685" gradientUnits="userSpaceOnUse">
<stop stop-color="#63D393" stop-opacity="0"/>
<stop offset="1" stop-color="#63D393"/>
</linearGradient>
<linearGradient id="paint11_linear_345_237" x1="108.83" y1="19.28" x2="71.0975" y2="39.3087" gradientUnits="userSpaceOnUse">
<stop stop-color="#269D63"/>
<stop offset="1" stop-color="#34C075"/>
</linearGradient>
<radialGradient id="paint12_radial_345_237" cx="0" cy="0" r="1" gradientUnits="userSpaceOnUse" gradientTransform="translate(105.5 9.46245) rotate(146.724) scale(2.24262 2.28936)">
<stop stop-color="#66B386"/>
<stop offset="1" stop-color="#66B386" stop-opacity="0"/>
</radialGradient>
<radialGradient id="paint13_radial_345_237" cx="0" cy="0" r="1" gradientUnits="userSpaceOnUse" gradientTransform="translate(100.051 19.9024) rotate(38.6003) scale(2.82144 3.5368)">
<stop stop-color="#60A576"/>
<stop offset="1" stop-color="#60A576" stop-opacity="0"/>
</radialGradient>
<linearGradient id="paint14_linear_345_237" x1="62.0525" y1="47.6037" x2="109.693" y2="54.965" gradientUnits="userSpaceOnUse">
<stop stop-color="#53CD8B"/>
<stop offset="1" stop-color="#5BB180"/>
</linearGradient>
<linearGradient id="paint15_linear_345_237" x1="115.951" y1="31.595" x2="102.166" y2="61.1675" gradientUnits="userSpaceOnUse">
<stop stop-color="#DBD8E4"/>
<stop offset="1" stop-color="#DBD8E4" stop-opacity="0"/>
</linearGradient>
<linearGradient id="paint16_linear_345_237" x1="82.0438" y1="63.5375" x2="84.6875" y2="57.3762" gradientUnits="userSpaceOnUse">
<stop stop-color="#DBD8E4" stop-opacity="0.5"/>
<stop offset="1" stop-color="#DBD8E4" stop-opacity="0"/>
</linearGradient>
<linearGradient id="paint17_linear_345_237" x1="92.825" y1="104.675" x2="59.9187" y2="69.5413" gradientUnits="userSpaceOnUse">
<stop stop-color="#6CC995"/>
<stop offset="1" stop-color="#6CC995" stop-opacity="0"/>
</linearGradient>
<radialGradient id="paint18_radial_345_237" cx="0" cy="0" r="1" gradientUnits="userSpaceOnUse" gradientTransform="translate(35.8587 96.3724) rotate(-50.469) scale(19.7956 19.5503)">
<stop stop-color="#6CC995"/>
<stop offset="1" stop-color="#6CC995" stop-opacity="0"/>
</radialGradient>
<linearGradient id="paint19_linear_345_237" x1="22.49" y1="58.4263" x2="78.8487" y2="100.209" gradientUnits="userSpaceOnUse">
<stop stop-color="#269C64"/>
<stop offset="1" stop-color="#45C68E"/>
</linearGradient>
<linearGradient id="paint20_linear_345_237" x1="77.1575" y1="100.794" x2="69.035" y2="96.3726" gradientUnits="userSpaceOnUse">
<stop stop-color="#32C37E"/>
<stop offset="1" stop-color="#32C37E" stop-opacity="0"/>
</linearGradient>
<radialGradient id="paint21_radial_345_237" cx="0" cy="0" r="1" gradientUnits="userSpaceOnUse" gradientTransform="translate(48.2038 76.1376) rotate(120.293) scale(2.48928 22.2857)">
<stop stop-color="#23A965"/>
<stop offset="1" stop-color="#23A965" stop-opacity="0"/>
</radialGradient>
<radialGradient id="paint22_radial_345_237" cx="0" cy="0" r="1" gradientUnits="userSpaceOnUse" gradientTransform="translate(75.2675 95.4238) rotate(-177.337) scale(2.52224 2.67277)">
<stop stop-color="#65D69C"/>
<stop offset="1" stop-color="#65D69C" stop-opacity="0"/>
</radialGradient>
<radialGradient id="paint23_radial_345_237" cx="0" cy="0" r="1" gradientUnits="userSpaceOnUse" gradientTransform="translate(26.7875 67.3176) rotate(-35.2867) scale(11.8038 9.35967)">
<stop stop-color="#62B78C"/>
<stop offset="1" stop-color="#62B78C" stop-opacity="0"/>
</radialGradient>
<linearGradient id="paint24_linear_345_237" x1="73.7787" y1="93.8526" x2="26.9375" y2="68.06" gradientUnits="userSpaceOnUse">
<stop stop-color="#69D79E"/>
<stop offset="1" stop-color="#69D79E" stop-opacity="0"/>
</linearGradient>
<linearGradient id="paint25_linear_345_237" x1="40.5762" y1="47.6038" x2="27.2337" y2="65.6901" gradientUnits="userSpaceOnUse">
<stop stop-color="#69D79E"/>
<stop offset="1" stop-color="#69D79E" stop-opacity="0"/>
</linearGradient>
<linearGradient id="paint26_linear_345_237" x1="9.43624" y1="59.9038" x2="25.8012" y2="31.04" gradientUnits="userSpaceOnUse">
<stop stop-color="#DCD2EA"/>
<stop offset="1" stop-color="#DCD2EA" stop-opacity="0"/>
</linearGradient>
<linearGradient id="paint27_linear_345_237" x1="50.3525" y1="21.89" x2="29.075" y2="29.33" gradientUnits="userSpaceOnUse">
<stop stop-color="#DCD2EA"/>
<stop offset="1" stop-color="#DCD2EA" stop-opacity="0"/>
</linearGradient>
<linearGradient id="paint28_linear_345_237" x1="63.455" y1="9.88628" x2="56.4912" y2="18.5113" gradientUnits="userSpaceOnUse">
<stop stop-color="#E2D9F0" stop-opacity="0.6"/>
<stop offset="1" stop-color="#DCD2EA" stop-opacity="0"/>
</linearGradient>
<linearGradient id="paint29_linear_345_237" x1="15.1625" y1="23.2287" x2="33.2112" y2="20.5025" gradientUnits="userSpaceOnUse">
<stop stop-color="#E2D9F0" stop-opacity="0.6"/>
<stop offset="1" stop-color="#DCD2EA" stop-opacity="0"/>
</linearGradient>
</defs>
</svg>
