<svg width="121" height="121" viewBox="0 0 121 121" fill="none" xmlns="http://www.w3.org/2000/svg">
<path d="M26.45 60.4812V51.4062M19.25 55.2687L38.6 72.1812M97.8125 60.4812V51.4062M105.012 55.2687L85.625 72.1812M93.125 66.2937H101.525M22.5125 66.2562H30.9125" stroke="#433B6B" stroke-width="0.75" stroke-miterlimit="10" stroke-linecap="round" stroke-linejoin="round"/>
<path d="M100.475 87.6312C100.475 108.744 83.3375 113.131 62.225 113.131C41.1125 113.131 23.975 108.744 23.975 87.6312C23.975 66.5187 41.1125 49.3812 62.225 49.3812C83.3375 49.3812 100.475 66.5187 100.475 87.6312Z" fill="url(#paint0_radial_345_297)"/>
<path d="M67.8125 94.3062C67.3251 94.3062 66.8578 94.1126 66.5132 93.768C66.1686 93.4234 65.975 92.956 65.975 92.4687V88.6437C65.975 88.1563 66.1686 87.6889 66.5132 87.3443C66.8578 86.9997 67.3251 86.8062 67.8125 86.8062C68.2998 86.8062 68.7672 86.9997 69.1118 87.3443C69.4564 87.6889 69.65 88.1563 69.65 88.6437V92.4687C69.65 93.4812 68.825 94.3062 67.8125 94.3062Z" fill="url(#paint1_linear_345_297)"/>
<path d="M75.35 94.3437C74.8627 94.3437 74.3953 94.1501 74.0507 93.8055C73.7061 93.4609 73.5125 92.9935 73.5125 92.5062V88.6437C73.5125 88.1563 73.7061 87.6889 74.0507 87.3443C74.3953 86.9997 74.8627 86.8062 75.35 86.8062C75.8373 86.8062 76.3047 86.9997 76.6493 87.3443C76.9939 87.6889 77.1875 88.1563 77.1875 88.6437V92.5062C77.1875 93.4812 76.3625 94.3437 75.35 94.3437Z" fill="url(#paint2_linear_345_297)"/>
<path d="M82.8125 94.3437C82.3251 94.3437 81.8578 94.1501 81.5132 93.8055C81.1686 93.4609 80.975 92.9935 80.975 92.5062V88.6437C80.975 88.1563 81.1686 87.6889 81.5132 87.3443C81.8578 86.9997 82.3251 86.8062 82.8125 86.8062C83.2998 86.8062 83.7672 86.9997 84.1118 87.3443C84.4564 87.6889 84.65 88.1563 84.65 88.6437V92.5062C84.65 92.9935 84.4564 93.4609 84.1118 93.8055C83.7672 94.1501 83.2998 94.3437 82.8125 94.3437Z" fill="url(#paint3_linear_345_297)"/>
<path d="M82.2875 90.6312H68.3C66.95 90.6312 65.8625 89.5437 65.8625 88.1937V68.1312H84.725V88.1937C84.725 89.5437 83.6375 90.6312 82.2875 90.6312Z" fill="url(#paint4_linear_345_297)"/>
<path d="M88.925 59.3562C88.925 74.0937 76.9625 75.8187 62.225 75.8187C47.4875 75.8187 35.525 74.0937 35.525 59.3562C35.525 44.6187 47.4875 56.9562 62.225 56.9562C76.9625 56.9562 88.925 44.6187 88.925 59.3562Z" fill="url(#paint5_linear_345_297)"/>
<path d="M88.775 46.0812C88.775 60.7438 76.7375 60.5187 62.0375 60.5187C47.3375 60.5187 35.6375 60.7812 35.6375 46.0812C35.6375 31.3812 47.525 19.5312 62.1875 19.5312C76.85 19.5312 88.775 31.4187 88.775 46.0812Z" fill="url(#paint6_radial_345_297)"/>
<path d="M62.3375 19.4187L41.6 28.3062L38.675 21.5187C37.025 17.6562 38.7875 13.1937 42.65 11.5437L49.4375 8.61869C53.3 6.96869 57.725 8.73119 59.375 12.5937L62.3375 19.4187Z" fill="url(#paint7_linear_345_297)"/>
<path d="M60.1625 20.3562L43.775 27.4062C43.1972 27.6464 42.5486 27.6514 41.9672 27.4202C41.3858 27.1891 40.9176 26.74 40.6625 26.1687L38.675 21.5187L59.4125 12.6312L61.4 17.2812C61.8875 18.4437 61.3625 19.8312 60.1625 20.3562Z" fill="url(#paint8_linear_345_297)"/>
<path d="M64.3625 21.5561L41.675 31.2686C41.0235 31.5514 40.2864 31.5641 39.6255 31.304C38.9647 31.0438 38.434 30.5321 38.15 29.8811C37.5875 28.5311 38.225 26.9186 39.575 26.3561L62.225 16.6436C63.575 16.0436 65.15 16.6811 65.75 18.0686C66.35 19.3811 65.7125 20.9561 64.3625 21.5561Z" fill="url(#paint9_linear_345_297)"/>
<path d="M56.6 37.4188C55.7375 37.4188 55.0625 36.7813 55.0625 35.9938V33.3313C55.0625 32.5438 55.775 31.9062 56.6 31.9062C57.425 31.9062 58.1375 32.5438 58.1375 33.3313V35.9938C58.1375 36.7813 57.4625 37.4188 56.6 37.4188ZM67.85 37.4188C66.9875 37.4188 66.3125 36.7813 66.3125 35.9938V33.3313C66.3125 32.5438 67.025 31.9062 67.85 31.9062C68.675 31.9062 69.3875 32.5438 69.3875 33.3313V35.9938C69.3875 36.7813 68.7125 37.4188 67.85 37.4188Z" fill="#433B6B"/>
<path d="M77.7875 42.2562L62.5625 40.6812C60.875 40.6812 59.525 42.0312 59.525 43.7187C59.525 45.4061 60.875 46.7562 62.5625 46.7562L77.7875 45.1812C78.6125 45.1812 79.2875 44.5062 79.2875 43.6812C79.2875 42.8562 78.6125 42.2562 77.7875 42.2562Z" fill="url(#paint10_linear_345_297)"/>
<path d="M99.8 18.1437H99.05L99.575 17.6188C100.325 16.8313 100.325 15.5938 99.575 14.8063C99.3917 14.6192 99.1729 14.4705 98.9314 14.3691C98.69 14.2676 98.4307 14.2153 98.1688 14.2153C97.9068 14.2153 97.6475 14.2676 97.4061 14.3691C97.1646 14.4705 96.9458 14.6192 96.7625 14.8063L96.2375 15.3312V14.5813C96.2375 13.4938 95.3375 12.5938 94.25 12.5938C93.1625 12.5938 92.2625 13.4938 92.2625 14.5813V15.3312L91.7375 14.8063C91.5542 14.6192 91.3354 14.4705 91.0939 14.3691C90.8525 14.2676 90.5932 14.2153 90.3312 14.2153C90.0693 14.2153 89.81 14.2676 89.5686 14.3691C89.3271 14.4705 89.1083 14.6192 88.925 14.8063C88.1375 15.5938 88.1375 16.8313 88.925 17.6188L89.45 18.1437H88.7C87.65 18.1437 86.75 19.0438 86.75 20.1313C86.75 21.2188 87.65 22.1187 88.7375 22.1187H89.4875L88.9625 22.6438C88.175 23.4313 88.175 24.6688 88.9625 25.4563C89.7125 26.2438 90.9875 26.2438 91.775 25.4563L92.3 24.9312V25.6813C92.3 26.7688 93.2 27.6687 94.2875 27.6687C95.375 27.6687 96.275 26.7688 96.275 25.6813V24.8938L96.8 25.4187C97.55 26.2062 98.825 26.2062 99.6125 25.4187C100.363 24.6312 100.363 23.3937 99.6125 22.6062L99.0875 22.0813H99.8375C100.925 22.0813 101.825 21.1812 101.825 20.0937C101.799 19.572 101.575 19.0797 101.199 18.7173C100.823 18.3549 100.322 18.1498 99.8 18.1437Z" fill="url(#paint11_radial_345_297)"/>
<path d="M21.05 36.8937H20.3L20.825 36.3687C21.575 35.5812 21.575 34.3437 20.825 33.5562C20.6417 33.3691 20.4229 33.2205 20.1814 33.119C19.94 33.0176 19.6807 32.9653 19.4188 32.9653C19.1568 32.9653 18.8975 33.0176 18.6561 33.119C18.4146 33.2205 18.1958 33.3691 18.0125 33.5562L17.4875 34.1187V33.3687C17.4875 32.2812 16.5875 31.3812 15.5 31.3812C14.4125 31.3812 13.5125 32.2812 13.5125 33.3687V34.1187L12.9875 33.5562C12.8042 33.3691 12.5854 33.2205 12.3439 33.119C12.1025 33.0176 11.8432 32.9653 11.5812 32.9653C11.3193 32.9653 11.06 33.0176 10.8186 33.119C10.5771 33.2205 10.3583 33.3691 10.175 33.5562C9.3875 34.3437 9.3875 35.5812 10.175 36.3687L10.7375 36.8937H9.9875C8.9 36.8937 8 37.7937 8 38.8812C8 39.9687 8.9 40.8687 9.9875 40.8687H10.7375L10.2125 41.3937C9.425 42.1812 9.425 43.4187 10.2125 44.2062C10.9625 44.9937 12.2375 44.9937 13.025 44.2062L13.55 43.6437V44.3937C13.55 45.4812 14.45 46.3812 15.5375 46.3812C16.625 46.3812 17.525 45.4812 17.525 44.3937V43.6437L18.05 44.1687C18.8 44.9562 20.075 44.9562 20.8625 44.1687C21.6125 43.3812 21.6125 42.1437 20.8625 41.3562L20.3 40.8687H21.05C22.1375 40.8687 23.0375 39.9687 23.0375 38.8812C23.0375 37.7937 22.1375 36.8937 21.05 36.8937Z" fill="url(#paint12_radial_345_297)"/>
<path d="M104.45 37.7562H104.037L104.337 37.4562C104.75 37.0437 104.75 36.3687 104.337 35.9562C104.138 35.7583 103.868 35.6473 103.587 35.6473C103.307 35.6473 103.037 35.7583 102.837 35.9562L102.537 36.2562V35.8437C102.537 35.2812 102.05 34.7937 101.487 34.7937C100.925 34.7937 100.437 35.2812 100.437 35.8437V36.2562L100.137 35.9562C99.938 35.7583 99.6684 35.6473 99.3875 35.6473C99.1065 35.6473 98.8369 35.7583 98.6375 35.9562C98.225 36.3687 98.225 37.0437 98.6375 37.4562L98.9375 37.7562H98.525C97.9625 37.7562 97.475 38.2437 97.475 38.8062C97.475 39.3687 97.9625 39.8562 98.525 39.8562H98.9375L98.6375 40.1562C98.225 40.5687 98.225 41.2437 98.6375 41.6562C99.05 42.0687 99.725 42.0687 100.137 41.6562L100.437 41.3562V41.7687C100.437 42.3312 100.925 42.8187 101.487 42.8187C102.05 42.8187 102.537 42.3312 102.537 41.7687V41.3562L102.837 41.6562C103.25 42.0687 103.925 42.0687 104.337 41.6562C104.75 41.2437 104.75 40.5687 104.337 40.1562L104.037 39.8562H104.45C105.012 39.8562 105.5 39.3687 105.5 38.8062C105.5 38.2062 105.05 37.7562 104.45 37.7562Z" fill="url(#paint13_radial_345_297)"/>
<path d="M25.9625 19.0812H25.5875L25.8875 18.7812C26.3 18.3687 26.3 17.6937 25.8875 17.2812C25.6881 17.0833 25.4185 16.9723 25.1375 16.9723C24.8566 16.9723 24.587 17.0833 24.3875 17.2812L24.0875 17.5812V17.1687C24.0875 16.6062 23.6 16.1187 23.0375 16.1187C22.475 16.1187 21.9875 16.6062 21.9875 17.1687V17.5812L21.6875 17.2812C21.4881 17.0833 21.2185 16.9723 20.9375 16.9723C20.6566 16.9723 20.387 17.0833 20.1875 17.2812C19.775 17.6937 19.775 18.3687 20.1875 18.7812L20.4875 19.0812H20.075C19.5125 19.0812 19.025 19.5687 19.025 20.1312C19.025 20.6937 19.5125 21.1812 20.075 21.1812H20.4875L20.1875 21.4812C19.775 21.8937 19.775 22.5687 20.1875 22.9812C20.6 23.3937 21.275 23.3937 21.6875 22.9812L21.9875 22.6812V23.0937C21.9875 23.6562 22.475 24.1437 23.0375 24.1437C23.6 24.1437 24.0875 23.6562 24.0875 23.0937V22.6812L24.3875 22.9812C24.8 23.3937 25.475 23.3937 25.8875 22.9812C26.3 22.5687 26.3 21.8937 25.8875 21.4812L25.5875 21.1812H26C26.5625 21.1812 27.05 20.6937 27.05 20.1312C27.05 19.5687 26.5625 19.0812 25.9625 19.0812Z" fill="url(#paint14_radial_345_297)"/>
<path d="M17.975 75.2562H17.5625L17.8625 74.9562C18.275 74.5437 18.275 73.8687 17.8625 73.4562C17.663 73.2583 17.3935 73.1473 17.1125 73.1473C16.8315 73.1473 16.562 73.2583 16.3625 73.4562L16.0625 73.7562V73.3437C16.0625 72.7812 15.575 72.2937 15.0125 72.2937C14.45 72.2937 13.9625 72.7812 13.9625 73.3437V73.7562L13.6625 73.4562C13.463 73.2583 13.1935 73.1473 12.9125 73.1473C12.6315 73.1473 12.362 73.2583 12.1625 73.4562C11.75 73.8687 11.75 74.5437 12.1625 74.9562L12.4625 75.2562H12.05C11.4875 75.2562 11 75.7437 11 76.3062C11 76.8687 11.4875 77.3562 12.05 77.3562H12.4625L12.1625 77.6562C11.75 78.0687 11.75 78.7437 12.1625 79.1562C12.575 79.5687 13.25 79.5687 13.6625 79.1562L13.9625 78.8562V79.2687C13.9625 79.8312 14.45 80.3187 15.0125 80.3187C15.575 80.3187 16.0625 79.8312 16.0625 79.2687V78.8562L16.3625 79.1562C16.775 79.5687 17.45 79.5687 17.8625 79.1562C18.275 78.7437 18.275 78.0687 17.8625 77.6562L17.5625 77.3937H17.975C18.5375 77.3937 19.025 76.9062 19.025 76.3437C19.025 75.7437 18.5375 75.2562 17.975 75.2562Z" fill="url(#paint15_radial_345_297)"/>
<path d="M108.462 86.5811H108.05L108.35 86.2811C108.762 85.8686 108.762 85.1937 108.35 84.7812C108.151 84.5833 107.881 84.4723 107.6 84.4723C107.319 84.4723 107.049 84.5833 106.85 84.7812L106.55 85.0812V84.6686C106.55 84.1061 106.062 83.6187 105.5 83.6187C104.937 83.6187 104.45 84.1061 104.45 84.6686V85.0812L104.15 84.7812C103.951 84.5833 103.681 84.4723 103.4 84.4723C103.119 84.4723 102.849 84.5833 102.65 84.7812C102.237 85.1937 102.237 85.8686 102.65 86.2811L102.95 86.5811H102.537C101.975 86.5811 101.487 87.0687 101.487 87.6312C101.487 88.1937 101.975 88.6811 102.537 88.6811H102.95L102.65 88.9811C102.237 89.3936 102.237 90.0687 102.65 90.4812C103.062 90.8937 103.737 90.8937 104.15 90.4812L104.45 90.1812V90.5936C104.45 91.1561 104.937 91.6437 105.5 91.6437C106.062 91.6437 106.55 91.1561 106.55 90.5936V90.1812L106.85 90.4812C107.262 90.8937 107.937 90.8937 108.35 90.4812C108.762 90.0687 108.762 89.3936 108.35 88.9811L108.05 88.6811H108.462C109.025 88.6811 109.512 88.1937 109.512 87.6312C109.512 87.3527 109.402 87.0856 109.205 86.8887C109.008 86.6918 108.741 86.5811 108.462 86.5811Z" fill="url(#paint16_radial_345_297)"/>
<defs>
<radialGradient id="paint0_radial_345_297" cx="0" cy="0" r="1" gradientUnits="userSpaceOnUse" gradientTransform="translate(80.3637 76.3362) scale(69.657 69.657)">
<stop stop-color="#F1F2F2"/>
<stop offset="1" stop-color="#BCBEC0"/>
</radialGradient>
<linearGradient id="paint1_linear_345_297" x1="69.6762" y1="95.6599" x2="67.0962" y2="88.5686" gradientUnits="userSpaceOnUse">
<stop offset="0.48" stop-color="#1B75BB"/>
<stop offset="0.989" stop-color="#2B3990"/>
</linearGradient>
<linearGradient id="paint2_linear_345_297" x1="77.2175" y1="95.6862" x2="74.6225" y2="88.5574" gradientUnits="userSpaceOnUse">
<stop offset="0.48" stop-color="#1B75BB"/>
<stop offset="0.989" stop-color="#2B3990"/>
</linearGradient>
<linearGradient id="paint3_linear_345_297" x1="84.6912" y1="95.6862" x2="82.1" y2="88.5574" gradientUnits="userSpaceOnUse">
<stop offset="0.48" stop-color="#1B75BB"/>
<stop offset="0.989" stop-color="#2B3990"/>
</linearGradient>
<linearGradient id="paint4_linear_345_297" x1="79.0625" y1="99.1475" x2="73.5762" y2="68.7312" gradientUnits="userSpaceOnUse">
<stop offset="0.48" stop-color="#1B75BB"/>
<stop offset="0.989" stop-color="#2B3990"/>
</linearGradient>
<linearGradient id="paint5_linear_345_297" x1="108.009" y1="75.185" x2="15.575" y2="48.935" gradientUnits="userSpaceOnUse">
<stop offset="0.48" stop-color="#1B75BB"/>
<stop offset="0.989" stop-color="#2B3990"/>
</linearGradient>
<radialGradient id="paint6_radial_345_297" cx="0" cy="0" r="1" gradientUnits="userSpaceOnUse" gradientTransform="translate(69.1138 30.2712) scale(40.1434 40.1434)">
<stop stop-color="#F1F2F2"/>
<stop offset="1" stop-color="#BCBEC0"/>
</radialGradient>
<linearGradient id="paint7_linear_345_297" x1="38.6337" y1="21.4287" x2="59.3562" y2="12.5374" gradientUnits="userSpaceOnUse">
<stop offset="0.006" stop-color="#513468"/>
<stop offset="1" stop-color="#1C1C1C"/>
</linearGradient>
<linearGradient id="paint8_linear_345_297" x1="64.6175" y1="15.2675" x2="34.2312" y2="26.3037" gradientUnits="userSpaceOnUse">
<stop offset="0.48" stop-color="#1B75BB"/>
<stop offset="0.989" stop-color="#2B3990"/>
</linearGradient>
<linearGradient id="paint9_linear_345_297" x1="38.1575" y1="29.8624" x2="65.75" y2="18.0274" gradientUnits="userSpaceOnUse">
<stop offset="0.006" stop-color="#513468"/>
<stop offset="1" stop-color="#1C1C1C"/>
</linearGradient>
<linearGradient id="paint10_linear_345_297" x1="59.5213" y1="43.7524" x2="79.28" y2="43.7524" gradientUnits="userSpaceOnUse">
<stop stop-color="#FF2C00"/>
<stop offset="1" stop-color="#FF8C00"/>
</linearGradient>
<radialGradient id="paint11_radial_345_297" cx="0" cy="0" r="1" gradientUnits="userSpaceOnUse" gradientTransform="translate(95.375 15.215) scale(44.7893 44.7892)">
<stop stop-color="#F1F2F2"/>
<stop offset="1" stop-color="#BCBEC0"/>
</radialGradient>
<radialGradient id="paint12_radial_345_297" cx="0" cy="0" r="1" gradientUnits="userSpaceOnUse" gradientTransform="translate(16.625 33.965) scale(44.7893 44.7893)">
<stop stop-color="#F1F2F2"/>
<stop offset="1" stop-color="#BCBEC0"/>
</radialGradient>
<radialGradient id="paint13_radial_345_297" cx="0" cy="0" r="1" gradientUnits="userSpaceOnUse" gradientTransform="translate(102.099 36.1775) scale(23.9055)">
<stop stop-color="#F1F2F2"/>
<stop offset="1" stop-color="#BCBEC0"/>
</radialGradient>
<radialGradient id="paint14_radial_345_297" cx="0" cy="0" r="1" gradientUnits="userSpaceOnUse" gradientTransform="translate(23.6188 17.5062) scale(23.9055)">
<stop stop-color="#F1F2F2"/>
<stop offset="1" stop-color="#BCBEC0"/>
</radialGradient>
<radialGradient id="paint15_radial_345_297" cx="0" cy="0" r="1" gradientUnits="userSpaceOnUse" gradientTransform="translate(15.6012 73.7) scale(23.9055 23.9055)">
<stop stop-color="#F1F2F2"/>
<stop offset="1" stop-color="#BCBEC0"/>
</radialGradient>
<radialGradient id="paint16_radial_345_297" cx="0" cy="0" r="1" gradientUnits="userSpaceOnUse" gradientTransform="translate(106.107 85.0062) scale(23.9055)">
<stop stop-color="#F1F2F2"/>
<stop offset="1" stop-color="#BCBEC0"/>
</radialGradient>
</defs>
</svg>
