<svg width="121" height="121" viewBox="0 0 121 121" fill="none" xmlns="http://www.w3.org/2000/svg">
<g filter="url(#filter0_i_345_216)">
<path d="M49.4375 12.9875C55.1825 6.52622 62.99 7.55747 67.985 12.9875L71.03 16.5162C72.0875 17.6675 73.6137 18.26 75.1662 18.1287L80.5812 16.5162C87.965 14.9337 94.6737 20.4425 94.6737 28.9962V32.2212C94.8312 33.98 96.3687 35.1725 97.955 35.9487L102.849 37.9925C109.925 41.45 111.699 49.655 106.539 56.5362L105.076 58.4712C103.764 60.245 104.03 62.5775 105.339 64.3587L106.801 66.41C112.134 72.9725 109.126 81.9725 101.596 85.1225L97.385 86.8812C95.7987 87.545 95.1725 88.6812 94.88 90.3762L94.5875 95.8812C93.56 103.441 86.8475 106.854 81.4625 106.092L75.0462 104.379C73.505 104.161 71.5887 104.671 70.5612 106.284L68.2475 109.449C62.5062 115.921 54.755 114.845 50.8475 111.061L46.5762 105.886C45.4587 104.806 44.0487 103.88 42.3612 104.517L35.9037 106.28C30.575 107.037 24.2937 102.942 23.2925 97.6512L22.5425 89.9937C22.3951 89.208 22.0624 88.4687 21.5719 87.8374C21.0814 87.206 20.4474 86.7008 19.7225 86.3637L15.1925 84.8075C8.37875 81.635 6.09875 73.9475 10.01 67.5312L12.56 63.9987C13.0633 63.1761 13.3193 62.2259 13.2974 61.2618C13.2754 60.2976 12.9765 59.3601 12.4362 58.5612L10.535 55.8612C5.1425 48.1887 8.87 39.6087 16.8575 37.0362L18.62 36.47C20.5625 35.8437 22.445 34.2275 22.6025 32.1912L23 27.2487C23.6375 19.2237 30.9575 14.6187 38.66 16.9625L41.1537 17.72C43.5537 18.6575 45.4362 17.8587 46.7487 16.43L49.4375 12.9875Z" fill="url(#paint0_linear_345_216)"/>
<path d="M49.4375 12.9875C55.1825 6.52622 62.99 7.55747 67.985 12.9875L71.03 16.5162C72.0875 17.6675 73.6137 18.26 75.1662 18.1287L80.5812 16.5162C87.965 14.9337 94.6737 20.4425 94.6737 28.9962V32.2212C94.8312 33.98 96.3687 35.1725 97.955 35.9487L102.849 37.9925C109.925 41.45 111.699 49.655 106.539 56.5362L105.076 58.4712C103.764 60.245 104.03 62.5775 105.339 64.3587L106.801 66.41C112.134 72.9725 109.126 81.9725 101.596 85.1225L97.385 86.8812C95.7987 87.545 95.1725 88.6812 94.88 90.3762L94.5875 95.8812C93.56 103.441 86.8475 106.854 81.4625 106.092L75.0462 104.379C73.505 104.161 71.5887 104.671 70.5612 106.284L68.2475 109.449C62.5062 115.921 54.755 114.845 50.8475 111.061L46.5762 105.886C45.4587 104.806 44.0487 103.88 42.3612 104.517L35.9037 106.28C30.575 107.037 24.2937 102.942 23.2925 97.6512L22.5425 89.9937C22.3951 89.208 22.0624 88.4687 21.5719 87.8374C21.0814 87.206 20.4474 86.7008 19.7225 86.3637L15.1925 84.8075C8.37875 81.635 6.09875 73.9475 10.01 67.5312L12.56 63.9987C13.0633 63.1761 13.3193 62.2259 13.2974 61.2618C13.2754 60.2976 12.9765 59.3601 12.4362 58.5612L10.535 55.8612C5.1425 48.1887 8.87 39.6087 16.8575 37.0362L18.62 36.47C20.5625 35.8437 22.445 34.2275 22.6025 32.1912L23 27.2487C23.6375 19.2237 30.9575 14.6187 38.66 16.9625L41.1537 17.72C43.5537 18.6575 45.4362 17.8587 46.7487 16.43L49.4375 12.9875Z" fill="url(#paint1_radial_345_216)"/>
<path d="M49.4375 12.9875C55.1825 6.52622 62.99 7.55747 67.985 12.9875L71.03 16.5162C72.0875 17.6675 73.6137 18.26 75.1662 18.1287L80.5812 16.5162C87.965 14.9337 94.6737 20.4425 94.6737 28.9962V32.2212C94.8312 33.98 96.3687 35.1725 97.955 35.9487L102.849 37.9925C109.925 41.45 111.699 49.655 106.539 56.5362L105.076 58.4712C103.764 60.245 104.03 62.5775 105.339 64.3587L106.801 66.41C112.134 72.9725 109.126 81.9725 101.596 85.1225L97.385 86.8812C95.7987 87.545 95.1725 88.6812 94.88 90.3762L94.5875 95.8812C93.56 103.441 86.8475 106.854 81.4625 106.092L75.0462 104.379C73.505 104.161 71.5887 104.671 70.5612 106.284L68.2475 109.449C62.5062 115.921 54.755 114.845 50.8475 111.061L46.5762 105.886C45.4587 104.806 44.0487 103.88 42.3612 104.517L35.9037 106.28C30.575 107.037 24.2937 102.942 23.2925 97.6512L22.5425 89.9937C22.3951 89.208 22.0624 88.4687 21.5719 87.8374C21.0814 87.206 20.4474 86.7008 19.7225 86.3637L15.1925 84.8075C8.37875 81.635 6.09875 73.9475 10.01 67.5312L12.56 63.9987C13.0633 63.1761 13.3193 62.2259 13.2974 61.2618C13.2754 60.2976 12.9765 59.3601 12.4362 58.5612L10.535 55.8612C5.1425 48.1887 8.87 39.6087 16.8575 37.0362L18.62 36.47C20.5625 35.8437 22.445 34.2275 22.6025 32.1912L23 27.2487C23.6375 19.2237 30.9575 14.6187 38.66 16.9625L41.1537 17.72C43.5537 18.6575 45.4362 17.8587 46.7487 16.43L49.4375 12.9875Z" fill="url(#paint2_radial_345_216)"/>
<path d="M49.4375 12.9875C55.1825 6.52622 62.99 7.55747 67.985 12.9875L71.03 16.5162C72.0875 17.6675 73.6137 18.26 75.1662 18.1287L80.5812 16.5162C87.965 14.9337 94.6737 20.4425 94.6737 28.9962V32.2212C94.8312 33.98 96.3687 35.1725 97.955 35.9487L102.849 37.9925C109.925 41.45 111.699 49.655 106.539 56.5362L105.076 58.4712C103.764 60.245 104.03 62.5775 105.339 64.3587L106.801 66.41C112.134 72.9725 109.126 81.9725 101.596 85.1225L97.385 86.8812C95.7987 87.545 95.1725 88.6812 94.88 90.3762L94.5875 95.8812C93.56 103.441 86.8475 106.854 81.4625 106.092L75.0462 104.379C73.505 104.161 71.5887 104.671 70.5612 106.284L68.2475 109.449C62.5062 115.921 54.755 114.845 50.8475 111.061L46.5762 105.886C45.4587 104.806 44.0487 103.88 42.3612 104.517L35.9037 106.28C30.575 107.037 24.2937 102.942 23.2925 97.6512L22.5425 89.9937C22.3951 89.208 22.0624 88.4687 21.5719 87.8374C21.0814 87.206 20.4474 86.7008 19.7225 86.3637L15.1925 84.8075C8.37875 81.635 6.09875 73.9475 10.01 67.5312L12.56 63.9987C13.0633 63.1761 13.3193 62.2259 13.2974 61.2618C13.2754 60.2976 12.9765 59.3601 12.4362 58.5612L10.535 55.8612C5.1425 48.1887 8.87 39.6087 16.8575 37.0362L18.62 36.47C20.5625 35.8437 22.445 34.2275 22.6025 32.1912L23 27.2487C23.6375 19.2237 30.9575 14.6187 38.66 16.9625L41.1537 17.72C43.5537 18.6575 45.4362 17.8587 46.7487 16.43L49.4375 12.9875Z" fill="url(#paint3_radial_345_216)"/>
<path d="M49.4375 12.9875C55.1825 6.52622 62.99 7.55747 67.985 12.9875L71.03 16.5162C72.0875 17.6675 73.6137 18.26 75.1662 18.1287L80.5812 16.5162C87.965 14.9337 94.6737 20.4425 94.6737 28.9962V32.2212C94.8312 33.98 96.3687 35.1725 97.955 35.9487L102.849 37.9925C109.925 41.45 111.699 49.655 106.539 56.5362L105.076 58.4712C103.764 60.245 104.03 62.5775 105.339 64.3587L106.801 66.41C112.134 72.9725 109.126 81.9725 101.596 85.1225L97.385 86.8812C95.7987 87.545 95.1725 88.6812 94.88 90.3762L94.5875 95.8812C93.56 103.441 86.8475 106.854 81.4625 106.092L75.0462 104.379C73.505 104.161 71.5887 104.671 70.5612 106.284L68.2475 109.449C62.5062 115.921 54.755 114.845 50.8475 111.061L46.5762 105.886C45.4587 104.806 44.0487 103.88 42.3612 104.517L35.9037 106.28C30.575 107.037 24.2937 102.942 23.2925 97.6512L22.5425 89.9937C22.3951 89.208 22.0624 88.4687 21.5719 87.8374C21.0814 87.206 20.4474 86.7008 19.7225 86.3637L15.1925 84.8075C8.37875 81.635 6.09875 73.9475 10.01 67.5312L12.56 63.9987C13.0633 63.1761 13.3193 62.2259 13.2974 61.2618C13.2754 60.2976 12.9765 59.3601 12.4362 58.5612L10.535 55.8612C5.1425 48.1887 8.87 39.6087 16.8575 37.0362L18.62 36.47C20.5625 35.8437 22.445 34.2275 22.6025 32.1912L23 27.2487C23.6375 19.2237 30.9575 14.6187 38.66 16.9625L41.1537 17.72C43.5537 18.6575 45.4362 17.8587 46.7487 16.43L49.4375 12.9875Z" fill="url(#paint4_radial_345_216)"/>
<path d="M49.4375 12.9875C55.1825 6.52622 62.99 7.55747 67.985 12.9875L71.03 16.5162C72.0875 17.6675 73.6137 18.26 75.1662 18.1287L80.5812 16.5162C87.965 14.9337 94.6737 20.4425 94.6737 28.9962V32.2212C94.8312 33.98 96.3687 35.1725 97.955 35.9487L102.849 37.9925C109.925 41.45 111.699 49.655 106.539 56.5362L105.076 58.4712C103.764 60.245 104.03 62.5775 105.339 64.3587L106.801 66.41C112.134 72.9725 109.126 81.9725 101.596 85.1225L97.385 86.8812C95.7987 87.545 95.1725 88.6812 94.88 90.3762L94.5875 95.8812C93.56 103.441 86.8475 106.854 81.4625 106.092L75.0462 104.379C73.505 104.161 71.5887 104.671 70.5612 106.284L68.2475 109.449C62.5062 115.921 54.755 114.845 50.8475 111.061L46.5762 105.886C45.4587 104.806 44.0487 103.88 42.3612 104.517L35.9037 106.28C30.575 107.037 24.2937 102.942 23.2925 97.6512L22.5425 89.9937C22.3951 89.208 22.0624 88.4687 21.5719 87.8374C21.0814 87.206 20.4474 86.7008 19.7225 86.3637L15.1925 84.8075C8.37875 81.635 6.09875 73.9475 10.01 67.5312L12.56 63.9987C13.0633 63.1761 13.3193 62.2259 13.2974 61.2618C13.2754 60.2976 12.9765 59.3601 12.4362 58.5612L10.535 55.8612C5.1425 48.1887 8.87 39.6087 16.8575 37.0362L18.62 36.47C20.5625 35.8437 22.445 34.2275 22.6025 32.1912L23 27.2487C23.6375 19.2237 30.9575 14.6187 38.66 16.9625L41.1537 17.72C43.5537 18.6575 45.4362 17.8587 46.7487 16.43L49.4375 12.9875Z" fill="url(#paint5_radial_345_216)"/>
<path d="M49.4375 12.9875C55.1825 6.52622 62.99 7.55747 67.985 12.9875L71.03 16.5162C72.0875 17.6675 73.6137 18.26 75.1662 18.1287L80.5812 16.5162C87.965 14.9337 94.6737 20.4425 94.6737 28.9962V32.2212C94.8312 33.98 96.3687 35.1725 97.955 35.9487L102.849 37.9925C109.925 41.45 111.699 49.655 106.539 56.5362L105.076 58.4712C103.764 60.245 104.03 62.5775 105.339 64.3587L106.801 66.41C112.134 72.9725 109.126 81.9725 101.596 85.1225L97.385 86.8812C95.7987 87.545 95.1725 88.6812 94.88 90.3762L94.5875 95.8812C93.56 103.441 86.8475 106.854 81.4625 106.092L75.0462 104.379C73.505 104.161 71.5887 104.671 70.5612 106.284L68.2475 109.449C62.5062 115.921 54.755 114.845 50.8475 111.061L46.5762 105.886C45.4587 104.806 44.0487 103.88 42.3612 104.517L35.9037 106.28C30.575 107.037 24.2937 102.942 23.2925 97.6512L22.5425 89.9937C22.3951 89.208 22.0624 88.4687 21.5719 87.8374C21.0814 87.206 20.4474 86.7008 19.7225 86.3637L15.1925 84.8075C8.37875 81.635 6.09875 73.9475 10.01 67.5312L12.56 63.9987C13.0633 63.1761 13.3193 62.2259 13.2974 61.2618C13.2754 60.2976 12.9765 59.3601 12.4362 58.5612L10.535 55.8612C5.1425 48.1887 8.87 39.6087 16.8575 37.0362L18.62 36.47C20.5625 35.8437 22.445 34.2275 22.6025 32.1912L23 27.2487C23.6375 19.2237 30.9575 14.6187 38.66 16.9625L41.1537 17.72C43.5537 18.6575 45.4362 17.8587 46.7487 16.43L49.4375 12.9875Z" fill="url(#paint6_radial_345_216)"/>
<path d="M49.4375 12.9875C55.1825 6.52622 62.99 7.55747 67.985 12.9875L71.03 16.5162C72.0875 17.6675 73.6137 18.26 75.1662 18.1287L80.5812 16.5162C87.965 14.9337 94.6737 20.4425 94.6737 28.9962V32.2212C94.8312 33.98 96.3687 35.1725 97.955 35.9487L102.849 37.9925C109.925 41.45 111.699 49.655 106.539 56.5362L105.076 58.4712C103.764 60.245 104.03 62.5775 105.339 64.3587L106.801 66.41C112.134 72.9725 109.126 81.9725 101.596 85.1225L97.385 86.8812C95.7987 87.545 95.1725 88.6812 94.88 90.3762L94.5875 95.8812C93.56 103.441 86.8475 106.854 81.4625 106.092L75.0462 104.379C73.505 104.161 71.5887 104.671 70.5612 106.284L68.2475 109.449C62.5062 115.921 54.755 114.845 50.8475 111.061L46.5762 105.886C45.4587 104.806 44.0487 103.88 42.3612 104.517L35.9037 106.28C30.575 107.037 24.2937 102.942 23.2925 97.6512L22.5425 89.9937C22.3951 89.208 22.0624 88.4687 21.5719 87.8374C21.0814 87.206 20.4474 86.7008 19.7225 86.3637L15.1925 84.8075C8.37875 81.635 6.09875 73.9475 10.01 67.5312L12.56 63.9987C13.0633 63.1761 13.3193 62.2259 13.2974 61.2618C13.2754 60.2976 12.9765 59.3601 12.4362 58.5612L10.535 55.8612C5.1425 48.1887 8.87 39.6087 16.8575 37.0362L18.62 36.47C20.5625 35.8437 22.445 34.2275 22.6025 32.1912L23 27.2487C23.6375 19.2237 30.9575 14.6187 38.66 16.9625L41.1537 17.72C43.5537 18.6575 45.4362 17.8587 46.7487 16.43L49.4375 12.9875Z" fill="url(#paint7_radial_345_216)"/>
<path d="M49.4375 12.9875C55.1825 6.52622 62.99 7.55747 67.985 12.9875L71.03 16.5162C72.0875 17.6675 73.6137 18.26 75.1662 18.1287L80.5812 16.5162C87.965 14.9337 94.6737 20.4425 94.6737 28.9962V32.2212C94.8312 33.98 96.3687 35.1725 97.955 35.9487L102.849 37.9925C109.925 41.45 111.699 49.655 106.539 56.5362L105.076 58.4712C103.764 60.245 104.03 62.5775 105.339 64.3587L106.801 66.41C112.134 72.9725 109.126 81.9725 101.596 85.1225L97.385 86.8812C95.7987 87.545 95.1725 88.6812 94.88 90.3762L94.5875 95.8812C93.56 103.441 86.8475 106.854 81.4625 106.092L75.0462 104.379C73.505 104.161 71.5887 104.671 70.5612 106.284L68.2475 109.449C62.5062 115.921 54.755 114.845 50.8475 111.061L46.5762 105.886C45.4587 104.806 44.0487 103.88 42.3612 104.517L35.9037 106.28C30.575 107.037 24.2937 102.942 23.2925 97.6512L22.5425 89.9937C22.3951 89.208 22.0624 88.4687 21.5719 87.8374C21.0814 87.206 20.4474 86.7008 19.7225 86.3637L15.1925 84.8075C8.37875 81.635 6.09875 73.9475 10.01 67.5312L12.56 63.9987C13.0633 63.1761 13.3193 62.2259 13.2974 61.2618C13.2754 60.2976 12.9765 59.3601 12.4362 58.5612L10.535 55.8612C5.1425 48.1887 8.87 39.6087 16.8575 37.0362L18.62 36.47C20.5625 35.8437 22.445 34.2275 22.6025 32.1912L23 27.2487C23.6375 19.2237 30.9575 14.6187 38.66 16.9625L41.1537 17.72C43.5537 18.6575 45.4362 17.8587 46.7487 16.43L49.4375 12.9875Z" fill="url(#paint8_radial_345_216)"/>
<path d="M49.4375 12.9875C55.1825 6.52622 62.99 7.55747 67.985 12.9875L71.03 16.5162C72.0875 17.6675 73.6137 18.26 75.1662 18.1287L80.5812 16.5162C87.965 14.9337 94.6737 20.4425 94.6737 28.9962V32.2212C94.8312 33.98 96.3687 35.1725 97.955 35.9487L102.849 37.9925C109.925 41.45 111.699 49.655 106.539 56.5362L105.076 58.4712C103.764 60.245 104.03 62.5775 105.339 64.3587L106.801 66.41C112.134 72.9725 109.126 81.9725 101.596 85.1225L97.385 86.8812C95.7987 87.545 95.1725 88.6812 94.88 90.3762L94.5875 95.8812C93.56 103.441 86.8475 106.854 81.4625 106.092L75.0462 104.379C73.505 104.161 71.5887 104.671 70.5612 106.284L68.2475 109.449C62.5062 115.921 54.755 114.845 50.8475 111.061L46.5762 105.886C45.4587 104.806 44.0487 103.88 42.3612 104.517L35.9037 106.28C30.575 107.037 24.2937 102.942 23.2925 97.6512L22.5425 89.9937C22.3951 89.208 22.0624 88.4687 21.5719 87.8374C21.0814 87.206 20.4474 86.7008 19.7225 86.3637L15.1925 84.8075C8.37875 81.635 6.09875 73.9475 10.01 67.5312L12.56 63.9987C13.0633 63.1761 13.3193 62.2259 13.2974 61.2618C13.2754 60.2976 12.9765 59.3601 12.4362 58.5612L10.535 55.8612C5.1425 48.1887 8.87 39.6087 16.8575 37.0362L18.62 36.47C20.5625 35.8437 22.445 34.2275 22.6025 32.1912L23 27.2487C23.6375 19.2237 30.9575 14.6187 38.66 16.9625L41.1537 17.72C43.5537 18.6575 45.4362 17.8587 46.7487 16.43L49.4375 12.9875Z" fill="url(#paint9_radial_345_216)"/>
</g>
<g filter="url(#filter1_d_345_216)">
<path d="M58.7525 101.502C81.005 101.502 99.0387 83.4649 99.0387 61.2162C99.0387 38.9674 81.0012 20.9299 58.7525 20.9299C36.5037 20.9299 18.4662 38.9674 18.4662 61.2162C18.4662 83.4649 36.5037 101.502 58.7525 101.502Z" fill="url(#paint10_radial_345_216)"/>
</g>
<defs>
<filter id="filter0_i_345_216" x="8.00033" y="8.3699" width="101.659" height="105.734" filterUnits="userSpaceOnUse" color-interpolation-filters="sRGB">
<feFlood flood-opacity="0" result="BackgroundImageFix"/>
<feBlend mode="normal" in="SourceGraphic" in2="BackgroundImageFix" result="shape"/>
<feColorMatrix in="SourceAlpha" type="matrix" values="0 0 0 0 0 0 0 0 0 0 0 0 0 0 0 0 0 0 127 0" result="hardAlpha"/>
<feOffset dx="0.15" dy="-0.15"/>
<feGaussianBlur stdDeviation="0.28125"/>
<feComposite in2="hardAlpha" operator="arithmetic" k2="-1" k3="1"/>
<feColorMatrix type="matrix" values="0 0 0 0 0.839216 0 0 0 0 0.45098 0 0 0 0 0.211765 0 0 0 1 0"/>
<feBlend mode="normal" in2="shape" result="effect1_innerShadow_345_216"/>
</filter>
<filter id="filter1_d_345_216" x="18.0162" y="20.9299" width="81.0225" height="81.0225" filterUnits="userSpaceOnUse" color-interpolation-filters="sRGB">
<feFlood flood-opacity="0" result="BackgroundImageFix"/>
<feColorMatrix in="SourceAlpha" type="matrix" values="0 0 0 0 0 0 0 0 0 0 0 0 0 0 0 0 0 0 127 0" result="hardAlpha"/>
<feOffset dx="-0.225" dy="0.225"/>
<feGaussianBlur stdDeviation="0.1125"/>
<feComposite in2="hardAlpha" operator="out"/>
<feColorMatrix type="matrix" values="0 0 0 0 0.921569 0 0 0 0 0.47451 0 0 0 0 0.133333 0 0 0 1 0"/>
<feBlend mode="normal" in2="BackgroundImageFix" result="effect1_dropShadow_345_216"/>
<feBlend mode="normal" in="SourceGraphic" in2="effect1_dropShadow_345_216" result="shape"/>
</filter>
<linearGradient id="paint0_linear_345_216" x1="90.0425" y1="26.2512" x2="32.48" y2="99.6912" gradientUnits="userSpaceOnUse">
<stop stop-color="#FC8B23"/>
<stop offset="1" stop-color="#E67639"/>
</linearGradient>
<radialGradient id="paint1_radial_345_216" cx="0" cy="0" r="1" gradientUnits="userSpaceOnUse" gradientTransform="translate(68.4428 13.3895) rotate(138.155) scale(14.1699 12.5022)">
<stop offset="0.3" stop-color="#FFA13A"/>
<stop offset="1" stop-color="#FFA13A" stop-opacity="0"/>
</radialGradient>
<radialGradient id="paint2_radial_345_216" cx="0" cy="0" r="1" gradientUnits="userSpaceOnUse" gradientTransform="translate(31.58 8.91497) rotate(67.8105) scale(22.5268 19.8756)">
<stop offset="0.3" stop-color="#FF942A"/>
<stop offset="1" stop-color="#FF942A" stop-opacity="0"/>
</radialGradient>
<radialGradient id="paint3_radial_345_216" cx="0" cy="0" r="1" gradientUnits="userSpaceOnUse" gradientTransform="translate(92.0776 29.9388) rotate(-164.745) scale(8.98174 12.4364)">
<stop offset="0.3" stop-color="#FFA13D"/>
<stop offset="1" stop-color="#FFA13D" stop-opacity="0"/>
</radialGradient>
<radialGradient id="paint4_radial_345_216" cx="0" cy="0" r="1" gradientUnits="userSpaceOnUse" gradientTransform="translate(110.195 43.01) rotate(154.195) scale(15.925 11.7618)">
<stop offset="0.3" stop-color="#FFA13D"/>
<stop offset="1" stop-color="#FFA13D" stop-opacity="0"/>
</radialGradient>
<radialGradient id="paint5_radial_345_216" cx="0" cy="0" r="1" gradientUnits="userSpaceOnUse" gradientTransform="translate(113.664 69.95) rotate(-173.379) scale(17.7641 10.0107)">
<stop offset="0.3" stop-color="#FFA13D"/>
<stop offset="1" stop-color="#FFA13D" stop-opacity="0"/>
</radialGradient>
<radialGradient id="paint6_radial_345_216" cx="0" cy="0" r="1" gradientUnits="userSpaceOnUse" gradientTransform="translate(97.7479 90.5898) rotate(-43.964) scale(16.1135 15.5235)">
<stop stop-color="#E0762A"/>
<stop offset="1" stop-color="#E0762A" stop-opacity="0"/>
</radialGradient>
<radialGradient id="paint7_radial_345_216" cx="0" cy="0" r="1" gradientUnits="userSpaceOnUse" gradientTransform="translate(23.0712 86.8062) rotate(-127.747) scale(12.3534 11.901)">
<stop stop-color="#E0762A"/>
<stop offset="1" stop-color="#E0762A" stop-opacity="0"/>
</radialGradient>
<radialGradient id="paint8_radial_345_216" cx="0" cy="0" r="1" gradientUnits="userSpaceOnUse" gradientTransform="translate(6.21125 45.0575) rotate(25.2776) scale(12.5448 15.1622)">
<stop stop-color="#F0851D"/>
<stop offset="1" stop-color="#F0851D" stop-opacity="0"/>
</radialGradient>
<radialGradient id="paint9_radial_345_216" cx="0" cy="0" r="1" gradientUnits="userSpaceOnUse" gradientTransform="translate(81.0951 108.479) rotate(-142.487) scale(14.6259 13.7983)">
<stop offset="0.337" stop-color="#E3745B"/>
<stop offset="1" stop-color="#E3745B" stop-opacity="0"/>
</radialGradient>
<radialGradient id="paint10_radial_345_216" cx="0" cy="0" r="1" gradientUnits="userSpaceOnUse" gradientTransform="translate(81.6193 37.8767) rotate(117.739) scale(71.8871 88.7738)">
<stop offset="0.172" stop-color="#FFD13D"/>
<stop offset="1" stop-color="#D89A29"/>
</radialGradient>
</defs>
</svg>
