<svg width="20" height="20" viewBox="0 0 20 20" fill="none" xmlns="http://www.w3.org/2000/svg">
<path d="M10.6059 3.07248C10.681 2.99292 10.7398 2.89934 10.7788 2.79706C10.8178 2.69479 10.8363 2.58583 10.8332 2.47641C10.8301 2.367 10.8055 2.25926 10.7608 2.15935C10.7161 2.05945 10.6521 1.96933 10.5725 1.89415C10.493 1.81897 10.3994 1.76019 10.2971 1.72118C10.1948 1.68217 10.0859 1.66368 9.97645 1.66678C9.86703 1.66987 9.75929 1.69449 9.65939 1.73922C9.55949 1.78395 9.46937 1.84792 9.39419 1.92748L2.31085 9.42748C2.16457 9.58221 2.08307 9.78706 2.08307 9.99998C2.08307 10.2129 2.16457 10.4178 2.31085 10.5725L9.39419 18.0733C9.46887 18.1546 9.55897 18.2203 9.65924 18.2665C9.75951 18.3126 9.86796 18.3384 9.97829 18.3424C10.0886 18.3463 10.1986 18.3282 10.3019 18.2893C10.4052 18.2503 10.4998 18.1912 10.58 18.1154C10.6603 18.0397 10.7247 17.9487 10.7695 17.8478C10.8143 17.7469 10.8386 17.6381 10.841 17.5277C10.8434 17.4173 10.8239 17.3076 10.7835 17.2048C10.7431 17.1021 10.6827 17.0084 10.6059 16.9292L4.06252 9.99998L10.6059 3.07248Z" fill="black"/>
</svg>
