<svg width="120" height="120" viewBox="0 0 120 120" fill="none" xmlns="http://www.w3.org/2000/svg">
<path d="M60.0073 112.226C67.5895 112.226 73.7361 106.08 73.7361 98.4976C73.7361 90.9154 67.5895 84.7688 60.0073 84.7688C52.4251 84.7688 46.2786 90.9154 46.2786 98.4976C46.2786 106.08 52.4251 112.226 60.0073 112.226Z" fill="url(#paint0_radial_1822_24)"/>
<path d="M60.0073 112.226C67.5895 112.226 73.7361 106.08 73.7361 98.4976C73.7361 90.9154 67.5895 84.7688 60.0073 84.7688C52.4251 84.7688 46.2786 90.9154 46.2786 98.4976C46.2786 106.08 52.4251 112.226 60.0073 112.226Z" fill="url(#paint1_linear_1822_24)"/>
<path d="M60.0073 112.226C67.5895 112.226 73.7361 106.08 73.7361 98.4976C73.7361 90.9154 67.5895 84.7688 60.0073 84.7688C52.4251 84.7688 46.2786 90.9154 46.2786 98.4976C46.2786 106.08 52.4251 112.226 60.0073 112.226Z" fill="url(#paint2_radial_1822_24)"/>
<g filter="url(#filter0_i_1822_24)">
<path d="M64.5149 12.24C64.5149 9.74641 62.4934 7.72498 59.9999 7.72498C57.5063 7.72498 55.4849 9.74641 55.4849 12.24V19.5637C55.4849 22.0573 57.5063 24.0787 59.9999 24.0787C62.4934 24.0787 64.5149 22.0573 64.5149 19.5637V12.24Z" fill="url(#paint3_radial_1822_24)"/>
</g>
<g filter="url(#filter1_iii_1822_24)">
<path d="M29.9174 40.0274C31.2658 33.2749 34.8962 27.1917 40.199 22.7991C45.5018 18.4065 52.1544 15.9718 59.0399 15.9037H60.9636C67.8485 15.9726 74.5002 18.4077 79.8023 22.8003C85.1043 27.1928 88.7341 33.2755 90.0824 40.0274L97.0574 74.9624C97.5596 77.4749 98.697 79.8168 100.361 81.7649L105.011 87.2062C107.329 89.923 108.602 93.3775 108.6 96.9487V101.921C108.6 102.667 108.304 103.382 107.776 103.91C107.249 104.437 106.533 104.734 105.787 104.734H14.2124C13.4665 104.734 12.7511 104.437 12.2237 103.91C11.6962 103.382 11.3999 102.667 11.3999 101.921V96.9487C11.3983 93.3775 12.6708 89.923 14.9887 87.2062L19.6387 81.7687C21.302 79.8191 22.4381 77.4758 22.9387 74.9624L29.9174 40.0274Z" fill="url(#paint4_linear_1822_24)"/>
</g>
<path d="M29.9174 40.0274C31.2658 33.2749 34.8962 27.1917 40.199 22.7991C45.5018 18.4065 52.1544 15.9718 59.0399 15.9037H60.9636C67.8485 15.9726 74.5002 18.4077 79.8023 22.8003C85.1043 27.1928 88.7341 33.2755 90.0824 40.0274L97.0574 74.9624C97.5596 77.4749 98.697 79.8168 100.361 81.7649L105.011 87.2062C107.329 89.923 108.602 93.3775 108.6 96.9487V101.921C108.6 102.667 108.304 103.382 107.776 103.91C107.249 104.437 106.533 104.734 105.787 104.734H14.2124C13.4665 104.734 12.7511 104.437 12.2237 103.91C11.6962 103.382 11.3999 102.667 11.3999 101.921V96.9487C11.3983 93.3775 12.6708 89.923 14.9887 87.2062L19.6387 81.7687C21.302 79.8191 22.4381 77.4758 22.9387 74.9624L29.9174 40.0274Z" fill="url(#paint5_linear_1822_24)"/>
<path d="M29.9174 40.0274C31.2658 33.2749 34.8962 27.1917 40.199 22.7991C45.5018 18.4065 52.1544 15.9718 59.0399 15.9037H60.9636C67.8485 15.9726 74.5002 18.4077 79.8023 22.8003C85.1043 27.1928 88.7341 33.2755 90.0824 40.0274L97.0574 74.9624C97.5596 77.4749 98.697 79.8168 100.361 81.7649L105.011 87.2062C107.329 89.923 108.602 93.3775 108.6 96.9487V101.921C108.6 102.667 108.304 103.382 107.776 103.91C107.249 104.437 106.533 104.734 105.787 104.734H14.2124C13.4665 104.734 12.7511 104.437 12.2237 103.91C11.6962 103.382 11.3999 102.667 11.3999 101.921V96.9487C11.3983 93.3775 12.6708 89.923 14.9887 87.2062L19.6387 81.7687C21.302 79.8191 22.4381 77.4758 22.9387 74.9624L29.9174 40.0274Z" fill="url(#paint6_radial_1822_24)"/>
<g filter="url(#filter2_f_1822_24)">
<path d="M28.0461 79.9238L22.1848 87.8926H100.935L94.6086 79.9238H28.0461Z" fill="url(#paint7_linear_1822_24)"/>
</g>
<g filter="url(#filter3_f_1822_24)">
<path d="M62.9661 34.9725C62.9665 32.8958 63.7281 30.8912 65.1068 29.3381C66.4855 27.7851 68.3856 26.7912 70.4476 26.5445C72.5097 26.2978 74.5906 26.8155 76.2967 27.9996C78.0028 29.1836 79.2158 30.952 79.7061 32.97L91.0911 79.92H62.9661V34.9725Z" fill="url(#paint8_linear_1822_24)"/>
</g>
<defs>
<filter id="filter0_i_1822_24" x="55.4849" y="7.72498" width="9.23003" height="16.3538" filterUnits="userSpaceOnUse" color-interpolation-filters="sRGB">
<feFlood flood-opacity="0" result="BackgroundImageFix"/>
<feBlend mode="normal" in="SourceGraphic" in2="BackgroundImageFix" result="shape"/>
<feColorMatrix in="SourceAlpha" type="matrix" values="0 0 0 0 0 0 0 0 0 0 0 0 0 0 0 0 0 0 127 0" result="hardAlpha"/>
<feOffset dx="0.2"/>
<feGaussianBlur stdDeviation="0.25"/>
<feComposite in2="hardAlpha" operator="arithmetic" k2="-1" k3="1"/>
<feColorMatrix type="matrix" values="0 0 0 0 0.87451 0 0 0 0 0.564706 0 0 0 0 0.341176 0 0 0 1 0"/>
<feBlend mode="normal" in2="shape" result="effect1_innerShadow_1822_24"/>
</filter>
<filter id="filter1_iii_1822_24" x="7.3999" y="15.9037" width="102.2" height="88.83" filterUnits="userSpaceOnUse" color-interpolation-filters="sRGB">
<feFlood flood-opacity="0" result="BackgroundImageFix"/>
<feBlend mode="normal" in="SourceGraphic" in2="BackgroundImageFix" result="shape"/>
<feColorMatrix in="SourceAlpha" type="matrix" values="0 0 0 0 0 0 0 0 0 0 0 0 0 0 0 0 0 0 127 0" result="hardAlpha"/>
<feOffset dx="-4"/>
<feGaussianBlur stdDeviation="2"/>
<feComposite in2="hardAlpha" operator="arithmetic" k2="-1" k3="1"/>
<feColorMatrix type="matrix" values="0 0 0 0 1 0 0 0 0 0.905882 0 0 0 0 0.392157 0 0 0 1 0"/>
<feBlend mode="normal" in2="shape" result="effect1_innerShadow_1822_24"/>
<feColorMatrix in="SourceAlpha" type="matrix" values="0 0 0 0 0 0 0 0 0 0 0 0 0 0 0 0 0 0 127 0" result="hardAlpha"/>
<feOffset dx="-0.5"/>
<feGaussianBlur stdDeviation="0.5"/>
<feComposite in2="hardAlpha" operator="arithmetic" k2="-1" k3="1"/>
<feColorMatrix type="matrix" values="0 0 0 0 0.996078 0 0 0 0 0.866667 0 0 0 0 0.462745 0 0 0 1 0"/>
<feBlend mode="normal" in2="effect1_innerShadow_1822_24" result="effect2_innerShadow_1822_24"/>
<feColorMatrix in="SourceAlpha" type="matrix" values="0 0 0 0 0 0 0 0 0 0 0 0 0 0 0 0 0 0 127 0" result="hardAlpha"/>
<feOffset dx="1"/>
<feGaussianBlur stdDeviation="1"/>
<feComposite in2="hardAlpha" operator="arithmetic" k2="-1" k3="1"/>
<feColorMatrix type="matrix" values="0 0 0 0 0.917647 0 0 0 0 0.572549 0 0 0 0 0.32549 0 0 0 1 0"/>
<feBlend mode="normal" in2="effect2_innerShadow_1822_24" result="effect3_innerShadow_1822_24"/>
</filter>
<filter id="filter2_f_1822_24" x="20.1848" y="77.9238" width="82.75" height="11.9688" filterUnits="userSpaceOnUse" color-interpolation-filters="sRGB">
<feFlood flood-opacity="0" result="BackgroundImageFix"/>
<feBlend mode="normal" in="SourceGraphic" in2="BackgroundImageFix" result="shape"/>
<feGaussianBlur stdDeviation="1" result="effect1_foregroundBlur_1822_24"/>
</filter>
<filter id="filter3_f_1822_24" x="60.9661" y="24.4844" width="32.125" height="57.4355" filterUnits="userSpaceOnUse" color-interpolation-filters="sRGB">
<feFlood flood-opacity="0" result="BackgroundImageFix"/>
<feBlend mode="normal" in="SourceGraphic" in2="BackgroundImageFix" result="shape"/>
<feGaussianBlur stdDeviation="1" result="effect1_foregroundBlur_1822_24"/>
</filter>
<radialGradient id="paint0_radial_1822_24" cx="0" cy="0" r="1" gradientUnits="userSpaceOnUse" gradientTransform="translate(66.5959 110.861) rotate(-126.512) scale(11.0811 15.3035)">
<stop stop-color="#FFC26D"/>
<stop offset="1" stop-color="#F68D61"/>
</radialGradient>
<linearGradient id="paint1_linear_1822_24" x1="57.2248" y1="101.835" x2="58.1623" y2="108.518" gradientUnits="userSpaceOnUse">
<stop offset="0.186" stop-color="#E57356"/>
<stop offset="1" stop-color="#E57356" stop-opacity="0"/>
</linearGradient>
<radialGradient id="paint2_radial_1822_24" cx="0" cy="0" r="1" gradientUnits="userSpaceOnUse" gradientTransform="translate(63.3186 100.193) rotate(135) scale(15.247 25.159)">
<stop offset="0.441" stop-color="#EA8059" stop-opacity="0"/>
<stop offset="1" stop-color="#C27068"/>
</radialGradient>
<radialGradient id="paint3_radial_1822_24" cx="0" cy="0" r="1" gradientUnits="userSpaceOnUse" gradientTransform="translate(62.9661 15.9) rotate(-90) scale(8.17748 4.92188)">
<stop stop-color="#FFE957"/>
<stop offset="1" stop-color="#F7A630"/>
</radialGradient>
<linearGradient id="paint4_linear_1822_24" x1="69.2511" y1="97.8487" x2="18.5474" y2="97.8487" gradientUnits="userSpaceOnUse">
<stop stop-color="#FCB949"/>
<stop offset="1" stop-color="#E28C37"/>
</linearGradient>
<linearGradient id="paint5_linear_1822_24" x1="67.8899" y1="105.705" x2="67.8899" y2="94.4549" gradientUnits="userSpaceOnUse">
<stop stop-color="#D7737D"/>
<stop offset="0.302" stop-color="#FCA162" stop-opacity="0"/>
</linearGradient>
<radialGradient id="paint6_radial_1822_24" cx="0" cy="0" r="1" gradientUnits="userSpaceOnUse" gradientTransform="translate(82.6536 54.8437) rotate(146.139) scale(85.8112 82.3189)">
<stop offset="0.67" stop-color="#E69136" stop-opacity="0"/>
<stop offset="0.977" stop-color="#CF7D44"/>
</radialGradient>
<linearGradient id="paint7_linear_1822_24" x1="23.3586" y1="87.8926" x2="98.5911" y2="87.8926" gradientUnits="userSpaceOnUse">
<stop offset="0.277" stop-color="#F5A43C"/>
<stop offset="1" stop-color="#FFE154"/>
</linearGradient>
<linearGradient id="paint8_linear_1822_24" x1="94.4023" y1="69.645" x2="58.2786" y2="69.645" gradientUnits="userSpaceOnUse">
<stop offset="0.118" stop-color="#FFEF6D"/>
<stop offset="1" stop-color="#FFEF6D" stop-opacity="0"/>
</linearGradient>
</defs>
</svg>
