<svg width="77" height="77" viewBox="0 0 77 77" fill="none" xmlns="http://www.w3.org/2000/svg">
<path d="M75.6958 30.125C48.1542 26.3417 24.4042 46.7917 26 73.9167M15.5833 21.8333C15.5833 24.0435 16.4613 26.1631 18.0241 27.7259C19.5869 29.2887 21.7065 30.1667 23.9167 30.1667C26.1268 30.1667 28.2464 29.2887 29.8092 27.7259C31.372 26.1631 32.25 24.0435 32.25 21.8333C32.25 19.6232 31.372 17.5036 29.8092 15.9408C28.2464 14.378 26.1268 13.5 23.9167 13.5C21.7065 13.5 19.5869 14.378 18.0241 15.9408C16.4613 17.5036 15.5833 19.6232 15.5833 21.8333Z" stroke="#9B9B9B" stroke-width="2" stroke-linecap="round" stroke-linejoin="round"/>
<path d="M1 42.9417C12.5833 41.3375 22.9792 46.9333 28.6 55.8583" stroke="#9B9B9B" stroke-width="2" stroke-linecap="round" stroke-linejoin="round"/>
<path d="M1 27.6667C1 18.3333 1 13.6667 2.81667 10.1C4.41453 6.9641 6.9641 4.41453 10.1 2.81667C13.6667 1 18.3333 1 27.6667 1H49.3333C58.6667 1 63.3333 1 66.9 2.81667C70.0359 4.41453 72.5855 6.9641 74.1833 10.1C76 13.6667 76 18.3333 76 27.6667V49.3333C76 58.6667 76 63.3333 74.1833 66.9C72.5855 70.0359 70.0359 72.5855 66.9 74.1833C63.3333 76 58.6667 76 49.3333 76H27.6667C18.3333 76 13.6667 76 10.1 74.1833C6.9641 72.5855 4.41453 70.0359 2.81667 66.9C1 63.3333 1 58.6667 1 49.3333V27.6667Z" stroke="#9B9B9B" stroke-width="2" stroke-linecap="round" stroke-linejoin="round"/>
</svg>
