<svg width="106" height="87" viewBox="0 0 106 87" fill="none" xmlns="http://www.w3.org/2000/svg">
<g filter="url(#filter0_i_669_451)">
<path d="M71.9863 17.9025C71.9863 17.3058 72.2233 16.7335 72.6453 16.3115C73.0672 15.8896 73.6395 15.6525 74.2363 15.6525H91.8538C92.4505 15.6525 93.0228 15.8896 93.4447 16.3115C93.8667 16.7335 94.1038 17.3058 94.1038 17.9025V21.9825H71.9863V17.9025Z" fill="url(#paint0_linear_669_451)"/>
<path d="M71.9863 17.9025C71.9863 17.3058 72.2233 16.7335 72.6453 16.3115C73.0672 15.8896 73.6395 15.6525 74.2363 15.6525H91.8538C92.4505 15.6525 93.0228 15.8896 93.4447 16.3115C93.8667 16.7335 94.1038 17.3058 94.1038 17.9025V21.9825H71.9863V17.9025Z" fill="url(#paint1_radial_669_451)"/>
</g>
<g filter="url(#filter1_i_669_451)">
<path d="M12.0425 17.715C12.0425 17.168 12.2598 16.6434 12.6466 16.2566C13.0334 15.8698 13.558 15.6525 14.105 15.6525H24.8638C25.4108 15.6525 25.9354 15.8698 26.3222 16.2566C26.709 16.6434 26.9263 17.168 26.9263 17.715V21.9825H12.0425V17.715Z" fill="url(#paint2_linear_669_451)"/>
<path d="M12.0425 17.715C12.0425 17.168 12.2598 16.6434 12.6466 16.2566C13.0334 15.8698 13.558 15.6525 14.105 15.6525H24.8638C25.4108 15.6525 25.9354 15.8698 26.3222 16.2566C26.709 16.6434 26.9263 17.168 26.9263 17.715V21.9825H12.0425V17.715Z" fill="url(#paint3_radial_669_451)"/>
</g>
<path d="M0.616253 79.8151C0.616253 83.4713 3.57875 86.4338 7.235 86.4338H98.765C102.418 86.4338 105.384 83.4713 105.384 79.8151C105.384 79.7524 105.359 79.6923 105.315 79.648C105.27 79.6037 105.21 79.5788 105.148 79.5788H0.852504C0.789846 79.5788 0.729755 79.6037 0.685449 79.648C0.641144 79.6923 0.616253 79.7524 0.616253 79.8151Z" fill="url(#paint4_linear_669_451)"/>
<path d="M0.616253 79.8151C0.616253 83.4713 3.57875 86.4338 7.235 86.4338H98.765C102.418 86.4338 105.384 83.4713 105.384 79.8151C105.384 79.7524 105.359 79.6923 105.315 79.648C105.27 79.6037 105.21 79.5788 105.148 79.5788H0.852504C0.789846 79.5788 0.729755 79.6037 0.685449 79.648C0.641144 79.6923 0.616253 79.7524 0.616253 79.8151Z" fill="url(#paint5_linear_669_451)"/>
<path d="M0.616253 79.8151C0.616253 83.4713 3.57875 86.4338 7.235 86.4338H98.765C102.418 86.4338 105.384 83.4713 105.384 79.8151C105.384 79.7524 105.359 79.6923 105.315 79.648C105.27 79.6037 105.21 79.5788 105.148 79.5788H0.852504C0.789846 79.5788 0.729755 79.6037 0.685449 79.648C0.641144 79.6923 0.616253 79.7524 0.616253 79.8151Z" fill="url(#paint6_linear_669_451)"/>
<path d="M0.616253 79.8151C0.616253 83.4713 3.57875 86.4338 7.235 86.4338H98.765C102.418 86.4338 105.384 83.4713 105.384 79.8151C105.384 79.7524 105.359 79.6923 105.315 79.648C105.27 79.6037 105.21 79.5788 105.148 79.5788H0.852504C0.789846 79.5788 0.729755 79.6037 0.685449 79.648C0.641144 79.6923 0.616253 79.7524 0.616253 79.8151Z" fill="url(#paint7_radial_669_451)"/>
<path d="M0.616253 79.8151C0.616253 83.4713 3.57875 86.4338 7.235 86.4338H98.765C102.418 86.4338 105.384 83.4713 105.384 79.8151C105.384 79.7524 105.359 79.6923 105.315 79.648C105.27 79.6037 105.21 79.5788 105.148 79.5788H0.852504C0.789846 79.5788 0.729755 79.6037 0.685449 79.648C0.641144 79.6923 0.616253 79.7524 0.616253 79.8151Z" fill="url(#paint8_radial_669_451)"/>
<path d="M0.616253 34.9913C0.616253 34.7426 0.715025 34.5042 0.89084 34.3284C1.06666 34.1525 1.30511 34.0538 1.55375 34.0538H104.45C104.699 34.0538 104.937 34.1525 105.113 34.3284C105.289 34.5042 105.387 34.7426 105.387 34.9913V78.6413C105.387 78.8899 105.289 79.1284 105.113 79.3042C104.937 79.48 104.699 79.5788 104.45 79.5788H1.55C1.30136 79.5788 1.06291 79.48 0.887091 79.3042C0.711275 79.1284 0.612503 78.8899 0.612503 78.6413L0.616253 34.9913Z" fill="url(#paint9_linear_669_451)"/>
<path d="M0.616253 34.9913C0.616253 34.7426 0.715025 34.5042 0.89084 34.3284C1.06666 34.1525 1.30511 34.0538 1.55375 34.0538H104.45C104.699 34.0538 104.937 34.1525 105.113 34.3284C105.289 34.5042 105.387 34.7426 105.387 34.9913V78.6413C105.387 78.8899 105.289 79.1284 105.113 79.3042C104.937 79.48 104.699 79.5788 104.45 79.5788H1.55C1.30136 79.5788 1.06291 79.48 0.887091 79.3042C0.711275 79.1284 0.612503 78.8899 0.612503 78.6413L0.616253 34.9913Z" fill="url(#paint10_linear_669_451)"/>
<path d="M0.616253 34.9913C0.616253 34.7426 0.715025 34.5042 0.89084 34.3284C1.06666 34.1525 1.30511 34.0538 1.55375 34.0538H104.45C104.699 34.0538 104.937 34.1525 105.113 34.3284C105.289 34.5042 105.387 34.7426 105.387 34.9913V78.6413C105.387 78.8899 105.289 79.1284 105.113 79.3042C104.937 79.48 104.699 79.5788 104.45 79.5788H1.55C1.30136 79.5788 1.06291 79.48 0.887091 79.3042C0.711275 79.1284 0.612503 78.8899 0.612503 78.6413L0.616253 34.9913Z" fill="url(#paint11_linear_669_451)"/>
<path d="M0.616253 34.9913C0.616253 34.7426 0.715025 34.5042 0.89084 34.3284C1.06666 34.1525 1.30511 34.0538 1.55375 34.0538H104.45C104.699 34.0538 104.937 34.1525 105.113 34.3284C105.289 34.5042 105.387 34.7426 105.387 34.9913V78.6413C105.387 78.8899 105.289 79.1284 105.113 79.3042C104.937 79.48 104.699 79.5788 104.45 79.5788H1.55C1.30136 79.5788 1.06291 79.48 0.887091 79.3042C0.711275 79.1284 0.612503 78.8899 0.612503 78.6413L0.616253 34.9913Z" fill="url(#paint12_linear_669_451)"/>
<path d="M0.616253 34.9913C0.616253 34.7426 0.715025 34.5042 0.89084 34.3284C1.06666 34.1525 1.30511 34.0538 1.55375 34.0538H104.45C104.699 34.0538 104.937 34.1525 105.113 34.3284C105.289 34.5042 105.387 34.7426 105.387 34.9913V78.6413C105.387 78.8899 105.289 79.1284 105.113 79.3042C104.937 79.48 104.699 79.5788 104.45 79.5788H1.55C1.30136 79.5788 1.06291 79.48 0.887091 79.3042C0.711275 79.1284 0.612503 78.8899 0.612503 78.6413L0.616253 34.9913Z" fill="url(#paint13_linear_669_451)"/>
<path d="M0.616253 34.9913C0.616253 34.7426 0.715025 34.5042 0.89084 34.3284C1.06666 34.1525 1.30511 34.0538 1.55375 34.0538H104.45C104.699 34.0538 104.937 34.1525 105.113 34.3284C105.289 34.5042 105.387 34.7426 105.387 34.9913V78.6413C105.387 78.8899 105.289 79.1284 105.113 79.3042C104.937 79.48 104.699 79.5788 104.45 79.5788H1.55C1.30136 79.5788 1.06291 79.48 0.887091 79.3042C0.711275 79.1284 0.612503 78.8899 0.612503 78.6413L0.616253 34.9913Z" fill="url(#paint14_linear_669_451)"/>
<path d="M0.616253 34.9913C0.616253 34.7426 0.715025 34.5042 0.89084 34.3284C1.06666 34.1525 1.30511 34.0538 1.55375 34.0538H104.45C104.699 34.0538 104.937 34.1525 105.113 34.3284C105.289 34.5042 105.387 34.7426 105.387 34.9913V78.6413C105.387 78.8899 105.289 79.1284 105.113 79.3042C104.937 79.48 104.699 79.5788 104.45 79.5788H1.55C1.30136 79.5788 1.06291 79.48 0.887091 79.3042C0.711275 79.1284 0.612503 78.8899 0.612503 78.6413L0.616253 34.9913Z" fill="url(#paint15_radial_669_451)"/>
<g filter="url(#filter2_f_669_451)">
<path d="M101.81 35.2538H103.569V78.3788H101.81V35.2538Z" fill="#8D8D92"/>
</g>
<g filter="url(#filter3_f_669_451)">
<path d="M27.8075 33.2551C27.0525 34.3851 26.345 35.6451 25.685 37.0351H25.6475C25.3072 37.7715 24.7632 38.3951 24.0797 38.8322C23.3962 39.2693 22.6019 39.5016 21.7906 39.5016C20.9794 39.5016 20.185 39.2693 19.5016 38.8322C18.8181 38.3951 18.2741 37.7715 17.9338 37.0351H17.9225C17.3071 35.7255 16.5977 34.4622 15.8 33.2551H27.8075Z" fill="#4E474A"/>
</g>
<g filter="url(#filter4_i_669_451)">
<path d="M0.616253 26.8726C0.616253 24.8834 1.40643 22.9758 2.81295 21.5693C4.21948 20.1627 6.12713 19.3726 8.11625 19.3726H97.8875C99.8766 19.3726 101.784 20.1627 103.191 21.5693C104.597 22.9758 105.387 24.8834 105.387 26.8726V33.1163C105.387 33.3649 105.289 33.6034 105.113 33.7792C104.937 33.955 104.699 34.0538 104.45 34.0538H1.55C1.30136 34.0538 1.06291 33.955 0.887091 33.7792C0.711275 33.6034 0.612503 33.3649 0.612503 33.1163L0.616253 26.8726Z" fill="#DAD4E6"/>
<path d="M0.616253 26.8726C0.616253 24.8834 1.40643 22.9758 2.81295 21.5693C4.21948 20.1627 6.12713 19.3726 8.11625 19.3726H97.8875C99.8766 19.3726 101.784 20.1627 103.191 21.5693C104.597 22.9758 105.387 24.8834 105.387 26.8726V33.1163C105.387 33.3649 105.289 33.6034 105.113 33.7792C104.937 33.955 104.699 34.0538 104.45 34.0538H1.55C1.30136 34.0538 1.06291 33.955 0.887091 33.7792C0.711275 33.6034 0.612503 33.3649 0.612503 33.1163L0.616253 26.8726Z" fill="url(#paint16_linear_669_451)"/>
<path d="M0.616253 26.8726C0.616253 24.8834 1.40643 22.9758 2.81295 21.5693C4.21948 20.1627 6.12713 19.3726 8.11625 19.3726H97.8875C99.8766 19.3726 101.784 20.1627 103.191 21.5693C104.597 22.9758 105.387 24.8834 105.387 26.8726V33.1163C105.387 33.3649 105.289 33.6034 105.113 33.7792C104.937 33.955 104.699 34.0538 104.45 34.0538H1.55C1.30136 34.0538 1.06291 33.955 0.887091 33.7792C0.711275 33.6034 0.612503 33.3649 0.612503 33.1163L0.616253 26.8726Z" fill="url(#paint17_linear_669_451)"/>
<path d="M0.616253 26.8726C0.616253 24.8834 1.40643 22.9758 2.81295 21.5693C4.21948 20.1627 6.12713 19.3726 8.11625 19.3726H97.8875C99.8766 19.3726 101.784 20.1627 103.191 21.5693C104.597 22.9758 105.387 24.8834 105.387 26.8726V33.1163C105.387 33.3649 105.289 33.6034 105.113 33.7792C104.937 33.955 104.699 34.0538 104.45 34.0538H1.55C1.30136 34.0538 1.06291 33.955 0.887091 33.7792C0.711275 33.6034 0.612503 33.3649 0.612503 33.1163L0.616253 26.8726Z" fill="url(#paint18_linear_669_451)"/>
<path d="M0.616253 26.8726C0.616253 24.8834 1.40643 22.9758 2.81295 21.5693C4.21948 20.1627 6.12713 19.3726 8.11625 19.3726H97.8875C99.8766 19.3726 101.784 20.1627 103.191 21.5693C104.597 22.9758 105.387 24.8834 105.387 26.8726V33.1163C105.387 33.3649 105.289 33.6034 105.113 33.7792C104.937 33.955 104.699 34.0538 104.45 34.0538H1.55C1.30136 34.0538 1.06291 33.955 0.887091 33.7792C0.711275 33.6034 0.612503 33.3649 0.612503 33.1163L0.616253 26.8726Z" fill="url(#paint19_radial_669_451)"/>
<path d="M0.616253 26.8726C0.616253 24.8834 1.40643 22.9758 2.81295 21.5693C4.21948 20.1627 6.12713 19.3726 8.11625 19.3726H97.8875C99.8766 19.3726 101.784 20.1627 103.191 21.5693C104.597 22.9758 105.387 24.8834 105.387 26.8726V33.1163C105.387 33.3649 105.289 33.6034 105.113 33.7792C104.937 33.955 104.699 34.0538 104.45 34.0538H1.55C1.30136 34.0538 1.06291 33.955 0.887091 33.7792C0.711275 33.6034 0.612503 33.3649 0.612503 33.1163L0.616253 26.8726Z" fill="url(#paint20_linear_669_451)"/>
</g>
<g filter="url(#filter5_iiii_669_451)">
<path d="M53 83.01C67.5306 83.01 79.31 71.2306 79.31 56.7C79.31 42.1694 67.5306 30.39 53 30.39C38.4694 30.39 26.69 42.1694 26.69 56.7C26.69 71.2306 38.4694 83.01 53 83.01Z" fill="url(#paint21_radial_669_451)"/>
</g>
<g filter="url(#filter6_f_669_451)">
<path d="M53 75.3338C63.2911 75.3338 71.6338 66.9912 71.6338 56.7C71.6338 46.4089 63.2911 38.0663 53 38.0663C42.7089 38.0663 34.3663 46.4089 34.3663 56.7C34.3663 66.9912 42.7089 75.3338 53 75.3338Z" stroke="url(#paint22_linear_669_451)" stroke-width="0.3"/>
<path d="M53 75.3338C63.2911 75.3338 71.6338 66.9912 71.6338 56.7C71.6338 46.4089 63.2911 38.0663 53 38.0663C42.7089 38.0663 34.3663 46.4089 34.3663 56.7C34.3663 66.9912 42.7089 75.3338 53 75.3338Z" stroke="url(#paint23_linear_669_451)" stroke-width="0.3"/>
</g>
<path d="M53 75.3338C63.2911 75.3338 71.6338 66.9912 71.6338 56.7C71.6338 46.4089 63.2911 38.0663 53 38.0663C42.7089 38.0663 34.3663 46.4089 34.3663 56.7C34.3663 66.9912 42.7089 75.3338 53 75.3338Z" fill="url(#paint24_radial_669_451)"/>
<path d="M53 75.3338C63.2911 75.3338 71.6338 66.9912 71.6338 56.7C71.6338 46.4089 63.2911 38.0663 53 38.0663C42.7089 38.0663 34.3663 46.4089 34.3663 56.7C34.3663 66.9912 42.7089 75.3338 53 75.3338Z" fill="url(#paint25_linear_669_451)"/>
<g filter="url(#filter7_f_669_451)">
<path d="M53 73.0201C62.0133 73.0201 69.32 65.7133 69.32 56.7001C69.32 47.6868 62.0133 40.3801 53 40.3801C43.9867 40.3801 36.68 47.6868 36.68 56.7001C36.68 65.7133 43.9867 73.0201 53 73.0201Z" fill="url(#paint26_radial_669_451)"/>
<path d="M53 73.0201C62.0133 73.0201 69.32 65.7133 69.32 56.7001C69.32 47.6868 62.0133 40.3801 53 40.3801C43.9867 40.3801 36.68 47.6868 36.68 56.7001C36.68 65.7133 43.9867 73.0201 53 73.0201Z" fill="url(#paint27_radial_669_451)"/>
</g>
<path d="M53 65.8988C58.0803 65.8988 62.1988 61.7804 62.1988 56.7C62.1988 51.6197 58.0803 47.5013 53 47.5013C47.9197 47.5013 43.8013 51.6197 43.8013 56.7C43.8013 61.7804 47.9197 65.8988 53 65.8988Z" fill="url(#paint28_linear_669_451)"/>
<path d="M53 65.8988C58.0803 65.8988 62.1988 61.7804 62.1988 56.7C62.1988 51.6197 58.0803 47.5013 53 47.5013C47.9197 47.5013 43.8013 51.6197 43.8013 56.7C43.8013 61.7804 47.9197 65.8988 53 65.8988Z" fill="url(#paint29_radial_669_451)"/>
<path d="M53 65.8988C58.0803 65.8988 62.1988 61.7804 62.1988 56.7C62.1988 51.6197 58.0803 47.5013 53 47.5013C47.9197 47.5013 43.8013 51.6197 43.8013 56.7C43.8013 61.7804 47.9197 65.8988 53 65.8988Z" fill="url(#paint30_radial_669_451)"/>
<path d="M62.8748 52.4319C64.2952 51.4383 64.4439 49.1992 63.2069 47.4309C61.9699 45.6626 59.8156 45.0345 58.3952 46.0282C56.9748 47.0218 56.8261 49.2608 58.0631 51.0292C59.3001 52.7975 61.4544 53.4255 62.8748 52.4319Z" fill="url(#paint31_linear_669_451)"/>
<g filter="url(#filter8_f_669_451)">
<path d="M15.9688 33.4651C13.235 29.3738 9.74375 27.4763 6.23375 25.9613C4.62125 25.3576 4.0775 24.8326 4.0775 23.0101C4.0775 22.6238 3.98 21.7238 4.0775 21.3676C5.33 20.4301 7.02875 20.4038 8.71625 20.4038L39.665 19.3726C39.9725 19.7551 39.665 19.7063 39.665 20.4038C39.665 22.1401 38.57 22.6988 37.0775 23.3588V23.3663C33.4437 24.9001 30.3163 28.7663 27.515 33.4651H15.9688Z" fill="#A99A99"/>
</g>
<g filter="url(#filter9_i_669_451)">
<path d="M23.3825 0.566284C25.0888 0.566284 26.5625 1.57503 27.2375 3.02628H27.275C30.35 9.54379 34.6025 13.0613 39.1588 14.9813V14.9888C39.9123 15.3214 40.5529 15.8659 41.0026 16.556C41.4523 17.2461 41.6917 18.052 41.6917 18.8757C41.6917 19.6993 41.4523 20.5053 41.0026 21.1953C40.5529 21.8854 39.9123 22.4299 39.1588 22.7625V22.7738C34.6025 24.69 30.3538 28.2075 27.2788 34.725C26.9395 35.4708 26.3895 36.101 25.6965 36.5381C25.0036 36.9752 24.1979 37.2001 23.3788 37.185C22.5688 37.1859 21.7756 36.9547 21.0931 36.5187C20.4105 36.0827 19.8672 35.4603 19.5275 34.725H19.5125C16.4825 28.2975 12.3125 24.7913 7.8275 22.8563C7.01734 22.5528 6.31912 22.0092 5.82621 21.2982C5.33331 20.5872 5.0692 19.7427 5.0692 18.8775C5.0692 18.0124 5.33331 17.1679 5.82621 16.4569C6.31912 15.7459 7.01734 15.2023 7.8275 14.8988C12.3088 12.96 16.4825 9.45378 19.5125 3.02628H19.5275C20.2025 1.57503 21.6725 0.566284 23.3825 0.566284Z" fill="url(#paint32_radial_669_451)"/>
<path d="M23.3825 0.566284C25.0888 0.566284 26.5625 1.57503 27.2375 3.02628H27.275C30.35 9.54379 34.6025 13.0613 39.1588 14.9813V14.9888C39.9123 15.3214 40.5529 15.8659 41.0026 16.556C41.4523 17.2461 41.6917 18.052 41.6917 18.8757C41.6917 19.6993 41.4523 20.5053 41.0026 21.1953C40.5529 21.8854 39.9123 22.4299 39.1588 22.7625V22.7738C34.6025 24.69 30.3538 28.2075 27.2788 34.725C26.9395 35.4708 26.3895 36.101 25.6965 36.5381C25.0036 36.9752 24.1979 37.2001 23.3788 37.185C22.5688 37.1859 21.7756 36.9547 21.0931 36.5187C20.4105 36.0827 19.8672 35.4603 19.5275 34.725H19.5125C16.4825 28.2975 12.3125 24.7913 7.8275 22.8563C7.01734 22.5528 6.31912 22.0092 5.82621 21.2982C5.33331 20.5872 5.0692 19.7427 5.0692 18.8775C5.0692 18.0124 5.33331 17.1679 5.82621 16.4569C6.31912 15.7459 7.01734 15.2023 7.8275 14.8988C12.3088 12.96 16.4825 9.45378 19.5125 3.02628H19.5275C20.2025 1.57503 21.6725 0.566284 23.3825 0.566284Z" fill="url(#paint33_radial_669_451)"/>
</g>
<g filter="url(#filter10_f_669_451)">
<path d="M23.3825 5.57631C24.62 5.57631 25.6925 6.30756 26.18 7.36506H26.21C28.445 12.0976 31.535 14.6513 34.8425 16.0463V16.0538C35.3901 16.2953 35.8556 16.6909 36.1824 17.1922C36.5092 17.6935 36.6832 18.2791 36.6832 18.8776C36.6832 19.476 36.5092 20.0616 36.1824 20.5629C35.8556 21.0643 35.3901 21.4598 34.8425 21.7013V21.7051C31.5313 23.1001 28.445 25.6538 26.21 30.3901H26.18C25.9323 30.9238 25.5371 31.3755 25.0411 31.6921C24.5452 32.0087 23.969 32.1769 23.3806 32.1769C22.7922 32.1769 22.2161 32.0087 21.7201 31.6921C21.2241 31.3755 20.829 30.9238 20.5813 30.3901H20.57C18.3688 25.7213 15.3388 23.1713 12.0838 21.7651C11.4957 21.5443 10.9891 21.1495 10.6314 20.6332C10.2738 20.1169 10.0821 19.5038 10.0821 18.8757C10.0821 18.2476 10.2738 17.6345 10.6314 17.1182C10.9891 16.6019 11.4957 16.207 12.0838 15.9863C15.3388 14.5801 18.3688 12.0301 20.57 7.36131H20.5813C20.8283 6.82681 21.2236 6.37446 21.7201 6.05804C22.2167 5.74161 22.7937 5.57441 23.3825 5.57631Z" fill="url(#paint34_radial_669_451)"/>
</g>
<defs>
<filter id="filter0_i_669_451" x="71.9863" y="15.6525" width="22.1175" height="6.48002" filterUnits="userSpaceOnUse" color-interpolation-filters="sRGB">
<feFlood flood-opacity="0" result="BackgroundImageFix"/>
<feBlend mode="normal" in="SourceGraphic" in2="BackgroundImageFix" result="shape"/>
<feColorMatrix in="SourceAlpha" type="matrix" values="0 0 0 0 0 0 0 0 0 0 0 0 0 0 0 0 0 0 127 0" result="hardAlpha"/>
<feOffset dy="0.15"/>
<feGaussianBlur stdDeviation="0.2"/>
<feComposite in2="hardAlpha" operator="arithmetic" k2="-1" k3="1"/>
<feColorMatrix type="matrix" values="0 0 0 0 0.701961 0 0 0 0 0.709804 0 0 0 0 0.713726 0 0 0 1 0"/>
<feBlend mode="normal" in2="shape" result="effect1_innerShadow_669_451"/>
</filter>
<filter id="filter1_i_669_451" x="12.0425" y="15.6525" width="14.8838" height="6.48002" filterUnits="userSpaceOnUse" color-interpolation-filters="sRGB">
<feFlood flood-opacity="0" result="BackgroundImageFix"/>
<feBlend mode="normal" in="SourceGraphic" in2="BackgroundImageFix" result="shape"/>
<feColorMatrix in="SourceAlpha" type="matrix" values="0 0 0 0 0 0 0 0 0 0 0 0 0 0 0 0 0 0 127 0" result="hardAlpha"/>
<feOffset dy="0.15"/>
<feGaussianBlur stdDeviation="0.2"/>
<feComposite in2="hardAlpha" operator="arithmetic" k2="-1" k3="1"/>
<feColorMatrix type="matrix" values="0 0 0 0 0.701961 0 0 0 0 0.709804 0 0 0 0 0.713726 0 0 0 1 0"/>
<feBlend mode="normal" in2="shape" result="effect1_innerShadow_669_451"/>
</filter>
<filter id="filter2_f_669_451" x="101.16" y="34.6038" width="3.05875" height="44.425" filterUnits="userSpaceOnUse" color-interpolation-filters="sRGB">
<feFlood flood-opacity="0" result="BackgroundImageFix"/>
<feBlend mode="normal" in="SourceGraphic" in2="BackgroundImageFix" result="shape"/>
<feGaussianBlur stdDeviation="0.325" result="effect1_foregroundBlur_669_451"/>
</filter>
<filter id="filter3_f_669_451" x="15.15" y="32.6051" width="13.3075" height="7.54652" filterUnits="userSpaceOnUse" color-interpolation-filters="sRGB">
<feFlood flood-opacity="0" result="BackgroundImageFix"/>
<feBlend mode="normal" in="SourceGraphic" in2="BackgroundImageFix" result="shape"/>
<feGaussianBlur stdDeviation="0.325" result="effect1_foregroundBlur_669_451"/>
</filter>
<filter id="filter4_i_669_451" x="0.612503" y="19.3726" width="104.775" height="14.7813" filterUnits="userSpaceOnUse" color-interpolation-filters="sRGB">
<feFlood flood-opacity="0" result="BackgroundImageFix"/>
<feBlend mode="normal" in="SourceGraphic" in2="BackgroundImageFix" result="shape"/>
<feColorMatrix in="SourceAlpha" type="matrix" values="0 0 0 0 0 0 0 0 0 0 0 0 0 0 0 0 0 0 127 0" result="hardAlpha"/>
<feOffset dy="0.1"/>
<feGaussianBlur stdDeviation="0.15"/>
<feComposite in2="hardAlpha" operator="arithmetic" k2="-1" k3="1"/>
<feColorMatrix type="matrix" values="0 0 0 0 0.796078 0 0 0 0 0.8 0 0 0 0 0.803922 0 0 0 1 0"/>
<feBlend mode="normal" in2="shape" result="effect1_innerShadow_669_451"/>
</filter>
<filter id="filter5_iiii_669_451" x="26.54" y="30.24" width="52.92" height="52.92" filterUnits="userSpaceOnUse" color-interpolation-filters="sRGB">
<feFlood flood-opacity="0" result="BackgroundImageFix"/>
<feBlend mode="normal" in="SourceGraphic" in2="BackgroundImageFix" result="shape"/>
<feColorMatrix in="SourceAlpha" type="matrix" values="0 0 0 0 0 0 0 0 0 0 0 0 0 0 0 0 0 0 127 0" result="hardAlpha"/>
<feOffset dy="-0.15"/>
<feGaussianBlur stdDeviation="0.075"/>
<feComposite in2="hardAlpha" operator="arithmetic" k2="-1" k3="1"/>
<feColorMatrix type="matrix" values="0 0 0 0 0.545098 0 0 0 0 0.529412 0 0 0 0 0.580392 0 0 0 1 0"/>
<feBlend mode="normal" in2="shape" result="effect1_innerShadow_669_451"/>
<feColorMatrix in="SourceAlpha" type="matrix" values="0 0 0 0 0 0 0 0 0 0 0 0 0 0 0 0 0 0 127 0" result="hardAlpha"/>
<feOffset dx="0.15"/>
<feGaussianBlur stdDeviation="0.075"/>
<feComposite in2="hardAlpha" operator="arithmetic" k2="-1" k3="1"/>
<feColorMatrix type="matrix" values="0 0 0 0 0.564706 0 0 0 0 0.54902 0 0 0 0 0.6 0 0 0 1 0"/>
<feBlend mode="normal" in2="effect1_innerShadow_669_451" result="effect2_innerShadow_669_451"/>
<feColorMatrix in="SourceAlpha" type="matrix" values="0 0 0 0 0 0 0 0 0 0 0 0 0 0 0 0 0 0 127 0" result="hardAlpha"/>
<feOffset dy="0.15"/>
<feGaussianBlur stdDeviation="0.075"/>
<feComposite in2="hardAlpha" operator="arithmetic" k2="-1" k3="1"/>
<feColorMatrix type="matrix" values="0 0 0 0 0.619608 0 0 0 0 0.623529 0 0 0 0 0.631373 0 0 0 1 0"/>
<feBlend mode="normal" in2="effect2_innerShadow_669_451" result="effect3_innerShadow_669_451"/>
<feColorMatrix in="SourceAlpha" type="matrix" values="0 0 0 0 0 0 0 0 0 0 0 0 0 0 0 0 0 0 127 0" result="hardAlpha"/>
<feOffset dx="-0.15" dy="0.1"/>
<feGaussianBlur stdDeviation="0.125"/>
<feComposite in2="hardAlpha" operator="arithmetic" k2="-1" k3="1"/>
<feColorMatrix type="matrix" values="0 0 0 0 0.803922 0 0 0 0 0.803922 0 0 0 0 0.823529 0 0 0 1 0"/>
<feBlend mode="normal" in2="effect3_innerShadow_669_451" result="effect4_innerShadow_669_451"/>
</filter>
<filter id="filter6_f_669_451" x="33.8163" y="37.5163" width="38.3675" height="38.3675" filterUnits="userSpaceOnUse" color-interpolation-filters="sRGB">
<feFlood flood-opacity="0" result="BackgroundImageFix"/>
<feBlend mode="normal" in="SourceGraphic" in2="BackgroundImageFix" result="shape"/>
<feGaussianBlur stdDeviation="0.2" result="effect1_foregroundBlur_669_451"/>
</filter>
<filter id="filter7_f_669_451" x="35.93" y="39.6301" width="34.14" height="34.14" filterUnits="userSpaceOnUse" color-interpolation-filters="sRGB">
<feFlood flood-opacity="0" result="BackgroundImageFix"/>
<feBlend mode="normal" in="SourceGraphic" in2="BackgroundImageFix" result="shape"/>
<feGaussianBlur stdDeviation="0.375" result="effect1_foregroundBlur_669_451"/>
</filter>
<filter id="filter8_f_669_451" x="3.28417" y="18.6226" width="37.2675" height="15.5925" filterUnits="userSpaceOnUse" color-interpolation-filters="sRGB">
<feFlood flood-opacity="0" result="BackgroundImageFix"/>
<feBlend mode="normal" in="SourceGraphic" in2="BackgroundImageFix" result="shape"/>
<feGaussianBlur stdDeviation="0.375" result="effect1_foregroundBlur_669_451"/>
</filter>
<filter id="filter9_i_669_451" x="5.0692" y="0.316284" width="36.8725" height="36.8694" filterUnits="userSpaceOnUse" color-interpolation-filters="sRGB">
<feFlood flood-opacity="0" result="BackgroundImageFix"/>
<feBlend mode="normal" in="SourceGraphic" in2="BackgroundImageFix" result="shape"/>
<feColorMatrix in="SourceAlpha" type="matrix" values="0 0 0 0 0 0 0 0 0 0 0 0 0 0 0 0 0 0 127 0" result="hardAlpha"/>
<feOffset dx="0.25" dy="-0.25"/>
<feGaussianBlur stdDeviation="0.375"/>
<feComposite in2="hardAlpha" operator="arithmetic" k2="-1" k3="1"/>
<feColorMatrix type="matrix" values="0 0 0 0 0.823529 0 0 0 0 0.666667 0 0 0 0 0.254902 0 0 0 1 0"/>
<feBlend mode="normal" in2="shape" result="effect1_innerShadow_669_451"/>
</filter>
<filter id="filter10_f_669_451" x="8.58215" y="4.07629" width="29.6011" height="29.6006" filterUnits="userSpaceOnUse" color-interpolation-filters="sRGB">
<feFlood flood-opacity="0" result="BackgroundImageFix"/>
<feBlend mode="normal" in="SourceGraphic" in2="BackgroundImageFix" result="shape"/>
<feGaussianBlur stdDeviation="0.75" result="effect1_foregroundBlur_669_451"/>
</filter>
<linearGradient id="paint0_linear_669_451" x1="73.2725" y1="18.8175" x2="95.8925" y2="18.8175" gradientUnits="userSpaceOnUse">
<stop offset="0.197" stop-color="#949597"/>
<stop offset="0.624" stop-color="#C1C2C4"/>
</linearGradient>
<radialGradient id="paint1_radial_669_451" cx="0" cy="0" r="1" gradientUnits="userSpaceOnUse" gradientTransform="translate(88.3925 17.295) rotate(90) scale(0.820312 6.32813)">
<stop stop-color="#CFD0D2"/>
<stop offset="1" stop-color="#CFD0D2" stop-opacity="0"/>
</radialGradient>
<linearGradient id="paint2_linear_669_451" x1="12.9088" y1="18.8175" x2="28.13" y2="18.8175" gradientUnits="userSpaceOnUse">
<stop offset="0.197" stop-color="#949597"/>
<stop offset="0.624" stop-color="#C1C2C4"/>
</linearGradient>
<radialGradient id="paint3_radial_669_451" cx="0" cy="0" r="1" gradientUnits="userSpaceOnUse" gradientTransform="translate(23.0825 17.295) rotate(90) scale(0.820312 4.25786)">
<stop stop-color="#CFD0D2"/>
<stop offset="1" stop-color="#CFD0D2" stop-opacity="0"/>
</radialGradient>
<linearGradient id="paint4_linear_669_451" x1="53" y1="79.5788" x2="53" y2="86.4338" gradientUnits="userSpaceOnUse">
<stop stop-color="#CFC6DE"/>
<stop offset="1" stop-color="#C3B4D7"/>
</linearGradient>
<linearGradient id="paint5_linear_669_451" x1="58.1563" y1="86.4338" x2="58.1563" y2="81.1613" gradientUnits="userSpaceOnUse">
<stop stop-color="#AC91C9"/>
<stop offset="1" stop-color="#C2B3D6" stop-opacity="0"/>
</linearGradient>
<linearGradient id="paint6_linear_669_451" x1="53" y1="79.5788" x2="53" y2="81.5138" gradientUnits="userSpaceOnUse">
<stop stop-color="#CFCBD7"/>
<stop offset="1" stop-color="#CFCBD7" stop-opacity="0"/>
</linearGradient>
<radialGradient id="paint7_radial_669_451" cx="0" cy="0" r="1" gradientUnits="userSpaceOnUse" gradientTransform="translate(102.804 78.1163) rotate(90) scale(7.26559 4.7073)">
<stop offset="0.242" stop-color="#F7F4FE"/>
<stop offset="1" stop-color="#C8BCDB" stop-opacity="0"/>
</radialGradient>
<radialGradient id="paint8_radial_669_451" cx="0" cy="0" r="1" gradientUnits="userSpaceOnUse" gradientTransform="translate(46.4375 69.21) rotate(90) scale(17.2266 24.3117)">
<stop offset="0.645" stop-color="#9884AF"/>
<stop offset="1" stop-color="#9884AF" stop-opacity="0"/>
</radialGradient>
<linearGradient id="paint9_linear_669_451" x1="69.0537" y1="56.8163" x2="102.804" y2="56.8163" gradientUnits="userSpaceOnUse">
<stop stop-color="#66636F"/>
<stop offset="1" stop-color="#6B6873"/>
</linearGradient>
<linearGradient id="paint10_linear_669_451" x1="0.616253" y1="63.1163" x2="10.6963" y2="63.2325" gradientUnits="userSpaceOnUse">
<stop offset="0.342" stop-color="#5E5C64"/>
<stop offset="1" stop-color="#5E5C64" stop-opacity="0"/>
</linearGradient>
<linearGradient id="paint11_linear_669_451" x1="-0.669997" y1="57.4913" x2="3.665" y2="57.4913" gradientUnits="userSpaceOnUse">
<stop stop-color="#8F8F91"/>
<stop offset="1" stop-color="#6D6C71" stop-opacity="0"/>
</linearGradient>
<linearGradient id="paint12_linear_669_451" x1="53" y1="34.0538" x2="53" y2="36.8663" gradientUnits="userSpaceOnUse">
<stop stop-color="#706F76"/>
<stop offset="1" stop-color="#706F76" stop-opacity="0"/>
</linearGradient>
<linearGradient id="paint13_linear_669_451" x1="53" y1="34.0538" x2="53" y2="35.2838" gradientUnits="userSpaceOnUse">
<stop stop-color="#5F5E65"/>
<stop offset="1" stop-color="#5F5E65" stop-opacity="0"/>
</linearGradient>
<linearGradient id="paint14_linear_669_451" x1="65.4237" y1="79.5788" x2="65.4237" y2="77.295" gradientUnits="userSpaceOnUse">
<stop stop-color="#5C536A"/>
<stop offset="1" stop-color="#5C536A" stop-opacity="0"/>
</linearGradient>
<radialGradient id="paint15_radial_669_451" cx="0" cy="0" r="1" gradientUnits="userSpaceOnUse" gradientTransform="translate(44.0954 63.9329) rotate(53.678) scale(31.853 31.7314)">
<stop offset="0.597" stop-color="#4B4357"/>
<stop offset="1" stop-color="#524C5D" stop-opacity="0"/>
</radialGradient>
<linearGradient id="paint16_linear_669_451" x1="53" y1="19.3726" x2="53" y2="25.4963" gradientUnits="userSpaceOnUse">
<stop stop-color="#D8D8DC"/>
<stop offset="1" stop-color="#D8D8DC" stop-opacity="0"/>
</linearGradient>
<linearGradient id="paint17_linear_669_451" x1="0.616253" y1="31.8263" x2="6.4775" y2="31.8263" gradientUnits="userSpaceOnUse">
<stop offset="0.22" stop-color="#C6C3CC"/>
<stop offset="1" stop-color="#C6C3CC" stop-opacity="0"/>
</linearGradient>
<linearGradient id="paint18_linear_669_451" x1="105.384" y1="32.7638" x2="95.7725" y2="32.7638" gradientUnits="userSpaceOnUse">
<stop offset="0.15" stop-color="#F9F7FE"/>
<stop offset="1" stop-color="#D3CDDD" stop-opacity="0"/>
</linearGradient>
<radialGradient id="paint19_radial_669_451" cx="0" cy="0" r="1" gradientUnits="userSpaceOnUse" gradientTransform="translate(105.381 22.2202) rotate(135.463) scale(6.41182 7.78496)">
<stop offset="0.15" stop-color="#F9F7FE"/>
<stop offset="1" stop-color="#F9F7FE" stop-opacity="0"/>
</radialGradient>
<linearGradient id="paint20_linear_669_451" x1="59.0937" y1="34.0538" x2="59.0937" y2="32.7638" gradientUnits="userSpaceOnUse">
<stop stop-color="#B6ADC6"/>
<stop offset="1" stop-color="#B6ADC6" stop-opacity="0"/>
</linearGradient>
<radialGradient id="paint21_radial_669_451" cx="0" cy="0" r="1" gradientUnits="userSpaceOnUse" gradientTransform="translate(73.0398 44.3645) rotate(143.867) scale(41.9333)">
<stop stop-color="#A6A2AE"/>
<stop offset="1" stop-color="#A6A2AF"/>
</radialGradient>
<linearGradient id="paint22_linear_669_451" x1="65.3038" y1="37.215" x2="53" y2="75.33" gradientUnits="userSpaceOnUse">
<stop stop-color="#6A6375"/>
<stop offset="1" stop-color="#6A6375" stop-opacity="0"/>
</linearGradient>
<linearGradient id="paint23_linear_669_451" x1="41.165" y1="71.085" x2="47.96" y2="61.8263" gradientUnits="userSpaceOnUse">
<stop offset="0.363" stop-color="#B7B6BD"/>
<stop offset="1" stop-color="#B7B6BD" stop-opacity="0"/>
</linearGradient>
<radialGradient id="paint24_radial_669_451" cx="0" cy="0" r="1" gradientUnits="userSpaceOnUse" gradientTransform="translate(63.1969 51.7451) rotate(143.911) scale(24.0726 22.4917)">
<stop offset="0.068" stop-color="#67616D"/>
<stop offset="1" stop-color="#4D3E5C"/>
</radialGradient>
<linearGradient id="paint25_linear_669_451" x1="65.8925" y1="38.0663" x2="39.875" y2="71.3175" gradientUnits="userSpaceOnUse">
<stop stop-color="#2C2634"/>
<stop offset="0.599" stop-color="#40344C"/>
</linearGradient>
<radialGradient id="paint26_radial_669_451" cx="0" cy="0" r="1" gradientUnits="userSpaceOnUse" gradientTransform="translate(61.9288 52.3613) rotate(143.911) scale(21.0824 19.698)">
<stop offset="0.068" stop-color="#67616D"/>
<stop offset="1" stop-color="#4D3E5C"/>
</radialGradient>
<radialGradient id="paint27_radial_669_451" cx="0" cy="0" r="1" gradientUnits="userSpaceOnUse" gradientTransform="translate(61.9051 49.8726) rotate(147.397) scale(27.4041 26.5156)">
<stop offset="0.78" stop-color="#554863" stop-opacity="0"/>
<stop offset="0.985" stop-color="#554863"/>
</radialGradient>
<linearGradient id="paint28_linear_669_451" x1="57.8038" y1="65.2238" x2="45.7363" y2="49.17" gradientUnits="userSpaceOnUse">
<stop stop-color="#463755"/>
<stop offset="1" stop-color="#473F51"/>
</linearGradient>
<radialGradient id="paint29_radial_669_451" cx="0" cy="0" r="1" gradientUnits="userSpaceOnUse" gradientTransform="translate(46.9055 63.5824) rotate(-48.614) scale(15.7755 10.8179)">
<stop stop-color="#544E5C"/>
<stop offset="1" stop-color="#544E5C" stop-opacity="0"/>
</radialGradient>
<radialGradient id="paint30_radial_669_451" cx="0" cy="0" r="1" gradientUnits="userSpaceOnUse" gradientTransform="translate(62.1991 48.9331) rotate(146.088) scale(8.40184)">
<stop stop-color="#544E5C"/>
<stop offset="1" stop-color="#544E5C" stop-opacity="0"/>
</radialGradient>
<linearGradient id="paint31_linear_669_451" x1="60.6341" y1="46.3567" x2="62.0202" y2="53.1533" gradientUnits="userSpaceOnUse">
<stop offset="0.051" stop-color="#F3F2F4"/>
<stop offset="1" stop-color="#F3F2F4" stop-opacity="0"/>
</linearGradient>
<radialGradient id="paint32_radial_669_451" cx="0" cy="0" r="1" gradientUnits="userSpaceOnUse" gradientTransform="translate(34.955 7.33504) rotate(140.711) scale(13.3244 23.3177)">
<stop stop-color="#FFFF9C"/>
<stop offset="1" stop-color="#EAC73C"/>
</radialGradient>
<radialGradient id="paint33_radial_669_451" cx="0" cy="0" r="1" gradientUnits="userSpaceOnUse" gradientTransform="translate(32.2588 7.80379) rotate(136.736) scale(5.47154 9.9373)">
<stop offset="0.172" stop-color="#FFFCA0"/>
<stop offset="1" stop-color="#FFFCA0" stop-opacity="0"/>
</radialGradient>
<radialGradient id="paint34_radial_669_451" cx="0" cy="0" r="1" gradientUnits="userSpaceOnUse" gradientTransform="translate(23.3788 18.8776) rotate(90) scale(22.6758 22.6758)">
<stop offset="0.127" stop-color="#FFEDD9"/>
<stop offset="1" stop-color="#FFEDD9" stop-opacity="0"/>
</radialGradient>
</defs>
</svg>
