<svg width="104" height="80" viewBox="0 0 104 80" fill="none" xmlns="http://www.w3.org/2000/svg">
<path d="M52 16.8344C54.0325 16.8332 56.0444 16.4272 57.9182 15.6398C59.792 14.8525 61.4901 13.6997 62.9135 12.2488C64.3368 10.7979 65.4568 9.07796 66.208 7.1894C66.9592 5.30083 67.3266 3.28152 67.2888 1.24939H36.7113L36.7075 1.54189C36.7095 5.5971 38.3213 9.48565 41.1888 12.3531C44.0563 15.2206 47.9448 16.8324 52 16.8344Z" fill="url(#paint0_linear_669_364)"/>
<path d="M52 16.8344C54.0325 16.8332 56.0444 16.4272 57.9182 15.6398C59.792 14.8525 61.4901 13.6997 62.9135 12.2488C64.3368 10.7979 65.4568 9.07796 66.208 7.1894C66.9592 5.30083 67.3266 3.28152 67.2888 1.24939H36.7113L36.7075 1.54189C36.7095 5.5971 38.3213 9.48565 41.1888 12.3531C44.0563 15.2206 47.9448 16.8324 52 16.8344Z" fill="url(#paint1_radial_669_364)"/>
<g filter="url(#filter0_f_669_364)">
<path d="M35.5825 5.93314C35.17 5.93314 34.8325 6.25189 34.8325 6.66439C34.8325 14.5281 43.3638 18.6531 51.2425 18.6531C53.1142 18.6556 54.968 18.2893 56.6981 17.5752C58.4281 16.8612 60.0006 15.8132 61.3256 14.4914C62.6506 13.1695 63.7023 11.5995 64.4205 9.87111C65.1386 8.14272 65.5093 6.28979 65.5113 4.41814C65.5113 4.00564 65.1738 3.68689 64.7613 3.68689H63.1038C63.0089 3.68736 62.9151 3.70676 62.8279 3.74395C62.7406 3.78115 62.6617 3.83539 62.5956 3.9035C62.5296 3.97161 62.4779 4.05221 62.4434 4.14059C62.409 4.22896 62.3925 4.32332 62.395 4.41814C62.3891 7.37069 61.211 10.2001 59.1197 12.2843C57.0284 14.3686 54.1951 15.5371 51.2425 15.5331C45.0775 15.5331 37.9488 12.7994 37.9488 6.66439C37.9513 6.56957 37.9348 6.47521 37.9004 6.38684C37.8659 6.29846 37.8142 6.21786 37.7481 6.14975C37.6821 6.08164 37.6032 6.0274 37.5159 5.9902C37.4287 5.95301 37.3349 5.93361 37.24 5.93314H35.5825Z" fill="#4B892A"/>
</g>
<path d="M1.27001 18.7844C0.77963 17.9354 0.641227 16.9282 0.884451 15.9784C1.12768 15.0286 1.73318 14.2119 2.57126 13.7031C8.00126 10.4256 18.6663 3.98314 19.75 3.40189C21.6813 2.36314 22.6075 2.12689 22.6075 2.12689L35.8938 22.4819L14.7813 34.6731C13.92 35.1704 12.8964 35.3052 11.9358 35.0478C10.9751 34.7904 10.1561 34.1619 9.65876 33.3006L1.27001 18.7844Z" fill="url(#paint2_linear_669_364)"/>
<path d="M1.27001 18.7844C0.77963 17.9354 0.641227 16.9282 0.884451 15.9784C1.12768 15.0286 1.73318 14.2119 2.57126 13.7031C8.00126 10.4256 18.6663 3.98314 19.75 3.40189C21.6813 2.36314 22.6075 2.12689 22.6075 2.12689L35.8938 22.4819L14.7813 34.6731C13.92 35.1704 12.8964 35.3052 11.9358 35.0478C10.9751 34.7904 10.1561 34.1619 9.65876 33.3006L1.27001 18.7844Z" fill="url(#paint3_linear_669_364)"/>
<path d="M1.27001 18.7844C0.77963 17.9354 0.641227 16.9282 0.884451 15.9784C1.12768 15.0286 1.73318 14.2119 2.57126 13.7031C8.00126 10.4256 18.6663 3.98314 19.75 3.40189C21.6813 2.36314 22.6075 2.12689 22.6075 2.12689L35.8938 22.4819L14.7813 34.6731C13.92 35.1704 12.8964 35.3052 11.9358 35.0478C10.9751 34.7904 10.1561 34.1619 9.65876 33.3006L1.27001 18.7844Z" fill="url(#paint4_radial_669_364)"/>
<path d="M1.27001 18.7844C0.77963 17.9354 0.641227 16.9282 0.884451 15.9784C1.12768 15.0286 1.73318 14.2119 2.57126 13.7031C8.00126 10.4256 18.6663 3.98314 19.75 3.40189C21.6813 2.36314 22.6075 2.12689 22.6075 2.12689L35.8938 22.4819L14.7813 34.6731C13.92 35.1704 12.8964 35.3052 11.9358 35.0478C10.9751 34.7904 10.1561 34.1619 9.65876 33.3006L1.27001 18.7844Z" fill="url(#paint5_linear_669_364)"/>
<path d="M1.27001 18.7844C0.77963 17.9354 0.641227 16.9282 0.884451 15.9784C1.12768 15.0286 1.73318 14.2119 2.57126 13.7031C8.00126 10.4256 18.6663 3.98314 19.75 3.40189C21.6813 2.36314 22.6075 2.12689 22.6075 2.12689L35.8938 22.4819L14.7813 34.6731C13.92 35.1704 12.8964 35.3052 11.9358 35.0478C10.9751 34.7904 10.1561 34.1619 9.65876 33.3006L1.27001 18.7844Z" fill="url(#paint6_radial_669_364)"/>
<path d="M102.73 18.7844C103.22 17.9354 103.359 16.9282 103.116 15.9784C102.872 15.0286 102.267 14.2119 101.429 13.7031C95.9988 10.4256 85.975 4.32814 84.2463 3.40189C82.5213 2.47189 81.3925 2.12689 81.3925 2.12689L68.1063 22.4819L89.2188 34.6731C90.0801 35.1704 91.1036 35.3052 92.0643 35.0478C93.0249 34.7904 93.844 34.1619 94.3413 33.3006L102.73 18.7844Z" fill="url(#paint7_linear_669_364)"/>
<path d="M102.73 18.7844C103.22 17.9354 103.359 16.9282 103.116 15.9784C102.872 15.0286 102.267 14.2119 101.429 13.7031C95.9988 10.4256 85.975 4.32814 84.2463 3.40189C82.5213 2.47189 81.3925 2.12689 81.3925 2.12689L68.1063 22.4819L89.2188 34.6731C90.0801 35.1704 91.1036 35.3052 92.0643 35.0478C93.0249 34.7904 93.844 34.1619 94.3413 33.3006L102.73 18.7844Z" fill="url(#paint8_linear_669_364)"/>
<path d="M102.73 18.7844C103.22 17.9354 103.359 16.9282 103.116 15.9784C102.872 15.0286 102.267 14.2119 101.429 13.7031C95.9988 10.4256 85.975 4.32814 84.2463 3.40189C82.5213 2.47189 81.3925 2.12689 81.3925 2.12689L68.1063 22.4819L89.2188 34.6731C90.0801 35.1704 91.1036 35.3052 92.0643 35.0478C93.0249 34.7904 93.844 34.1619 94.3413 33.3006L102.73 18.7844Z" fill="url(#paint9_radial_669_364)"/>
<path d="M102.73 18.7844C103.22 17.9354 103.359 16.9282 103.116 15.9784C102.872 15.0286 102.267 14.2119 101.429 13.7031C95.9988 10.4256 85.975 4.32814 84.2463 3.40189C82.5213 2.47189 81.3925 2.12689 81.3925 2.12689L68.1063 22.4819L89.2188 34.6731C90.0801 35.1704 91.1036 35.3052 92.0643 35.0478C93.0249 34.7904 93.844 34.1619 94.3413 33.3006L102.73 18.7844Z" fill="url(#paint10_linear_669_364)"/>
<path d="M102.73 18.7844C103.22 17.9354 103.359 16.9282 103.116 15.9784C102.872 15.0286 102.267 14.2119 101.429 13.7031C95.9988 10.4256 85.975 4.32814 84.2463 3.40189C82.5213 2.47189 81.3925 2.12689 81.3925 2.12689L68.1063 22.4819L89.2188 34.6731C90.0801 35.1704 91.1036 35.3052 92.0643 35.0478C93.0249 34.7904 93.844 34.1619 94.3413 33.3006L102.73 18.7844Z" fill="url(#paint11_linear_669_364)"/>
<path d="M29.3725 1.24939C27.0775 1.24939 24.7975 1.54564 22.5775 2.12689V77.4194C22.5775 77.9167 22.7751 78.3936 23.1267 78.7452C23.4783 79.0968 23.9552 79.2944 24.4525 79.2944H79.5325C80.0298 79.2944 80.5067 79.0968 80.8583 78.7452C81.21 78.3936 81.4075 77.9167 81.4075 77.4194V2.12689L81.25 2.08939C78.9403 1.53102 76.5725 1.24905 74.1963 1.24939H67.2888L67.2925 1.54189C67.2983 3.56608 66.9021 5.57126 66.127 7.44117C65.3518 9.31108 64.2132 11.0085 62.7771 12.435C61.3409 13.8615 59.6359 14.9887 57.7608 15.7512C55.8857 16.5137 53.8779 16.8964 51.8538 16.877C49.8297 16.8577 47.8296 16.4367 45.9694 15.6384C44.1093 14.8402 42.4261 13.6806 41.0175 12.2269C39.6089 10.7732 38.503 9.05428 37.7638 7.16989C37.0246 5.28549 36.6668 3.2731 36.7113 1.24939H29.3725Z" fill="url(#paint12_linear_669_364)"/>
<path d="M29.3725 1.24939C27.0775 1.24939 24.7975 1.54564 22.5775 2.12689V77.4194C22.5775 77.9167 22.7751 78.3936 23.1267 78.7452C23.4783 79.0968 23.9552 79.2944 24.4525 79.2944H79.5325C80.0298 79.2944 80.5067 79.0968 80.8583 78.7452C81.21 78.3936 81.4075 77.9167 81.4075 77.4194V2.12689L81.25 2.08939C78.9403 1.53102 76.5725 1.24905 74.1963 1.24939H67.2888L67.2925 1.54189C67.2983 3.56608 66.9021 5.57126 66.127 7.44117C65.3518 9.31108 64.2132 11.0085 62.7771 12.435C61.3409 13.8615 59.6359 14.9887 57.7608 15.7512C55.8857 16.5137 53.8779 16.8964 51.8538 16.877C49.8297 16.8577 47.8296 16.4367 45.9694 15.6384C44.1093 14.8402 42.4261 13.6806 41.0175 12.2269C39.6089 10.7732 38.503 9.05428 37.7638 7.16989C37.0246 5.28549 36.6668 3.2731 36.7113 1.24939H29.3725Z" fill="url(#paint13_linear_669_364)"/>
<path d="M29.3725 1.24939C27.0775 1.24939 24.7975 1.54564 22.5775 2.12689V77.4194C22.5775 77.9167 22.7751 78.3936 23.1267 78.7452C23.4783 79.0968 23.9552 79.2944 24.4525 79.2944H79.5325C80.0298 79.2944 80.5067 79.0968 80.8583 78.7452C81.21 78.3936 81.4075 77.9167 81.4075 77.4194V2.12689L81.25 2.08939C78.9403 1.53102 76.5725 1.24905 74.1963 1.24939H67.2888L67.2925 1.54189C67.2983 3.56608 66.9021 5.57126 66.127 7.44117C65.3518 9.31108 64.2132 11.0085 62.7771 12.435C61.3409 13.8615 59.6359 14.9887 57.7608 15.7512C55.8857 16.5137 53.8779 16.8964 51.8538 16.877C49.8297 16.8577 47.8296 16.4367 45.9694 15.6384C44.1093 14.8402 42.4261 13.6806 41.0175 12.2269C39.6089 10.7732 38.503 9.05428 37.7638 7.16989C37.0246 5.28549 36.6668 3.2731 36.7113 1.24939H29.3725Z" fill="url(#paint14_linear_669_364)"/>
<path d="M29.3725 1.24939C27.0775 1.24939 24.7975 1.54564 22.5775 2.12689V77.4194C22.5775 77.9167 22.7751 78.3936 23.1267 78.7452C23.4783 79.0968 23.9552 79.2944 24.4525 79.2944H79.5325C80.0298 79.2944 80.5067 79.0968 80.8583 78.7452C81.21 78.3936 81.4075 77.9167 81.4075 77.4194V2.12689L81.25 2.08939C78.9403 1.53102 76.5725 1.24905 74.1963 1.24939H67.2888L67.2925 1.54189C67.2983 3.56608 66.9021 5.57126 66.127 7.44117C65.3518 9.31108 64.2132 11.0085 62.7771 12.435C61.3409 13.8615 59.6359 14.9887 57.7608 15.7512C55.8857 16.5137 53.8779 16.8964 51.8538 16.877C49.8297 16.8577 47.8296 16.4367 45.9694 15.6384C44.1093 14.8402 42.4261 13.6806 41.0175 12.2269C39.6089 10.7732 38.503 9.05428 37.7638 7.16989C37.0246 5.28549 36.6668 3.2731 36.7113 1.24939H29.3725Z" fill="url(#paint15_linear_669_364)"/>
<path d="M29.3725 1.24939C27.0775 1.24939 24.7975 1.54564 22.5775 2.12689V77.4194C22.5775 77.9167 22.7751 78.3936 23.1267 78.7452C23.4783 79.0968 23.9552 79.2944 24.4525 79.2944H79.5325C80.0298 79.2944 80.5067 79.0968 80.8583 78.7452C81.21 78.3936 81.4075 77.9167 81.4075 77.4194V2.12689L81.25 2.08939C78.9403 1.53102 76.5725 1.24905 74.1963 1.24939H67.2888L67.2925 1.54189C67.2983 3.56608 66.9021 5.57126 66.127 7.44117C65.3518 9.31108 64.2132 11.0085 62.7771 12.435C61.3409 13.8615 59.6359 14.9887 57.7608 15.7512C55.8857 16.5137 53.8779 16.8964 51.8538 16.877C49.8297 16.8577 47.8296 16.4367 45.9694 15.6384C44.1093 14.8402 42.4261 13.6806 41.0175 12.2269C39.6089 10.7732 38.503 9.05428 37.7638 7.16989C37.0246 5.28549 36.6668 3.2731 36.7113 1.24939H29.3725Z" fill="url(#paint16_radial_669_364)"/>
<path d="M22.5775 37.4594V25.1594H81.4075V37.4631L22.5775 37.4594Z" fill="url(#paint17_linear_669_364)"/>
<g filter="url(#filter1_ii_669_364)">
<path d="M35.7325 0.70939C35.4974 0.706381 35.2708 0.796635 35.1021 0.960395C34.9334 1.12415 34.8365 1.34808 34.8325 1.58314C34.834 3.83525 35.2794 6.06498 36.1431 8.14486C37.0069 10.2247 38.2722 12.114 39.8666 13.7045C41.461 15.2951 43.3532 16.5558 45.4352 17.4146C47.5171 18.2733 49.7479 18.7133 52 18.7094C54.2521 18.7133 56.4829 18.2733 58.5649 17.4146C60.6468 16.5558 62.5391 15.2951 64.1335 13.7045C65.7279 12.114 66.9931 10.2247 67.8569 8.14486C68.7207 6.06498 69.166 3.83525 69.1675 1.58314C69.1661 1.46642 69.1416 1.35114 69.0956 1.24388C69.0496 1.13661 68.9829 1.03946 68.8993 0.957974C68.8157 0.876488 68.7169 0.812263 68.6085 0.768967C68.5001 0.725672 68.3842 0.704152 68.2675 0.705639H66.2688C66.1552 0.707103 66.043 0.730993 65.9387 0.775934C65.8343 0.820875 65.7399 0.885983 65.6608 0.967519C65.5817 1.04905 65.5195 1.14541 65.4778 1.25106C65.436 1.35671 65.4155 1.46956 65.4175 1.58314C65.4175 8.96689 59.4175 14.9594 52 14.9594C50.2404 14.9633 48.4972 14.6203 46.8702 13.95C45.2433 13.2797 43.7644 12.2952 42.5182 11.0529C41.272 9.81053 40.283 8.3347 39.6077 6.7098C38.9324 5.08489 38.584 3.34279 38.5825 1.58314C38.5845 1.46956 38.564 1.35671 38.5223 1.25106C38.4805 1.14541 38.4183 1.04905 38.3392 0.967519C38.2601 0.885983 38.1657 0.820875 38.0614 0.775934C37.957 0.730993 37.8449 0.707103 37.7313 0.705639L35.7325 0.70939Z" fill="url(#paint18_linear_669_364)"/>
</g>
<defs>
<filter id="filter0_f_669_364" x="33.8325" y="2.68689" width="32.6788" height="16.9662" filterUnits="userSpaceOnUse" color-interpolation-filters="sRGB">
<feFlood flood-opacity="0" result="BackgroundImageFix"/>
<feBlend mode="normal" in="SourceGraphic" in2="BackgroundImageFix" result="shape"/>
<feGaussianBlur stdDeviation="0.5" result="effect1_foregroundBlur_669_364"/>
</filter>
<filter id="filter1_ii_669_364" x="34.6325" y="0.505566" width="34.635" height="18.3038" filterUnits="userSpaceOnUse" color-interpolation-filters="sRGB">
<feFlood flood-opacity="0" result="BackgroundImageFix"/>
<feBlend mode="normal" in="SourceGraphic" in2="BackgroundImageFix" result="shape"/>
<feColorMatrix in="SourceAlpha" type="matrix" values="0 0 0 0 0 0 0 0 0 0 0 0 0 0 0 0 0 0 127 0" result="hardAlpha"/>
<feOffset dx="0.1" dy="-0.2"/>
<feGaussianBlur stdDeviation="0.1"/>
<feComposite in2="hardAlpha" operator="arithmetic" k2="-1" k3="1"/>
<feColorMatrix type="matrix" values="0 0 0 0 0.164706 0 0 0 0 0.705882 0 0 0 0 0.368627 0 0 0 1 0"/>
<feBlend mode="normal" in2="shape" result="effect1_innerShadow_669_364"/>
<feColorMatrix in="SourceAlpha" type="matrix" values="0 0 0 0 0 0 0 0 0 0 0 0 0 0 0 0 0 0 127 0" result="hardAlpha"/>
<feOffset dx="-0.2" dy="0.1"/>
<feGaussianBlur stdDeviation="0.1"/>
<feComposite in2="hardAlpha" operator="arithmetic" k2="-1" k3="1"/>
<feColorMatrix type="matrix" values="0 0 0 0 0.286275 0 0 0 0 0.843137 0 0 0 0 0.486275 0 0 0 1 0"/>
<feBlend mode="normal" in2="effect1_innerShadow_669_364" result="effect2_innerShadow_669_364"/>
</filter>
<linearGradient id="paint0_linear_669_364" x1="52" y1="1.24939" x2="52" y2="13.0844" gradientUnits="userSpaceOnUse">
<stop stop-color="#A4D047"/>
<stop offset="1" stop-color="#66A749"/>
</linearGradient>
<radialGradient id="paint1_radial_669_364" cx="0" cy="0" r="1" gradientUnits="userSpaceOnUse" gradientTransform="translate(52.0055 1.24986) rotate(90) scale(14.7656 22.2106)">
<stop offset="0.484" stop-color="#7FB84A" stop-opacity="0"/>
<stop offset="0.944" stop-color="#4C8A3B"/>
</radialGradient>
<linearGradient id="paint2_linear_669_364" x1="25.1575" y1="17.0706" x2="7.10876" y2="28.3206" gradientUnits="userSpaceOnUse">
<stop stop-color="#90CC68"/>
<stop offset="1" stop-color="#98D766"/>
</linearGradient>
<linearGradient id="paint3_linear_669_364" x1="11.68" y1="7.34314" x2="14.9613" y2="13.0844" gradientUnits="userSpaceOnUse">
<stop stop-color="#A6E36C"/>
<stop offset="1" stop-color="#A6E36C" stop-opacity="0"/>
</linearGradient>
<radialGradient id="paint4_radial_669_364" cx="0" cy="0" r="1" gradientUnits="userSpaceOnUse" gradientTransform="translate(3.35876 24.9194) rotate(-32.3998) scale(7.21727 37.9376)">
<stop offset="0.294" stop-color="#7AB25C"/>
<stop offset="1" stop-color="#93D263" stop-opacity="0"/>
</radialGradient>
<linearGradient id="paint5_linear_669_364" x1="22.8138" y1="31.9506" x2="17.5413" y2="25.2719" gradientUnits="userSpaceOnUse">
<stop offset="0.13" stop-color="#619B51"/>
<stop offset="1" stop-color="#85C26C" stop-opacity="0"/>
</linearGradient>
<radialGradient id="paint6_radial_669_364" cx="0" cy="0" r="1" gradientUnits="userSpaceOnUse" gradientTransform="translate(23.9838 26.0931) rotate(180) scale(3.98437 20.2734)">
<stop offset="0.125" stop-color="#72B25A"/>
<stop offset="1" stop-color="#72B25A" stop-opacity="0"/>
</radialGradient>
<linearGradient id="paint7_linear_669_364" x1="81.5238" y1="17.4194" x2="100.041" y2="25.6244" gradientUnits="userSpaceOnUse">
<stop stop-color="#95D669"/>
<stop offset="1" stop-color="#8FD670"/>
</linearGradient>
<linearGradient id="paint8_linear_669_364" x1="92.89" y1="8.04439" x2="88.555" y2="15.8969" gradientUnits="userSpaceOnUse">
<stop offset="0.174" stop-color="#C0FE7C"/>
<stop offset="1" stop-color="#98D969" stop-opacity="0"/>
</linearGradient>
<radialGradient id="paint9_radial_669_364" cx="0" cy="0" r="1" gradientUnits="userSpaceOnUse" gradientTransform="translate(80.0013 13.3206) rotate(2.72631) scale(4.92745 47.6321)">
<stop offset="0.199" stop-color="#ABF17B"/>
<stop offset="1" stop-color="#ABF17B" stop-opacity="0"/>
</radialGradient>
<linearGradient id="paint10_linear_669_364" x1="98.0463" y1="27.1469" x2="97.1988" y2="26.6181" gradientUnits="userSpaceOnUse">
<stop stop-color="#8ECE6F"/>
<stop offset="1" stop-color="#8ECE6F" stop-opacity="0"/>
</linearGradient>
<linearGradient id="paint11_linear_669_364" x1="83.7513" y1="31.7181" x2="86.5638" y2="27.1469" gradientUnits="userSpaceOnUse">
<stop stop-color="#68A163"/>
<stop offset="1" stop-color="#84CC69" stop-opacity="0"/>
</linearGradient>
<linearGradient id="paint12_linear_669_364" x1="22.5775" y1="59.3744" x2="82.6975" y2="59.3744" gradientUnits="userSpaceOnUse">
<stop stop-color="#7ED279"/>
<stop offset="1" stop-color="#88EE94"/>
</linearGradient>
<linearGradient id="paint13_linear_669_364" x1="19.885" y1="75.5444" x2="51.9925" y2="75.5444" gradientUnits="userSpaceOnUse">
<stop stop-color="#6FBE75"/>
<stop offset="1" stop-color="#6FBE75" stop-opacity="0"/>
</linearGradient>
<linearGradient id="paint14_linear_669_364" x1="51.9925" y1="1.24939" x2="51.9925" y2="33.3569" gradientUnits="userSpaceOnUse">
<stop stop-color="#A5E26B"/>
<stop offset="1" stop-color="#A5E26B" stop-opacity="0"/>
</linearGradient>
<linearGradient id="paint15_linear_669_364" x1="51.9925" y1="79.9994" x2="51.9925" y2="75.8894" gradientUnits="userSpaceOnUse">
<stop stop-color="#539583"/>
<stop offset="1" stop-color="#53AE80" stop-opacity="0"/>
</linearGradient>
<radialGradient id="paint16_radial_669_364" cx="0" cy="0" r="1" gradientUnits="userSpaceOnUse" gradientTransform="translate(81.4075 1.24939) rotate(90) scale(32.2266 7.92667)">
<stop stop-color="#B9F87A"/>
<stop offset="1" stop-color="#B9F87A" stop-opacity="0"/>
</radialGradient>
<linearGradient id="paint17_linear_669_364" x1="22.5775" y1="32.6556" x2="81.4075" y2="32.6556" gradientUnits="userSpaceOnUse">
<stop stop-color="#BDC792"/>
<stop offset="1" stop-color="#EBF9B6"/>
</linearGradient>
<linearGradient id="paint18_linear_669_364" x1="52" y1="0.705639" x2="52" y2="18.7094" gradientUnits="userSpaceOnUse">
<stop stop-color="#2FCF6C"/>
<stop offset="1" stop-color="#2FC36B"/>
</linearGradient>
</defs>
</svg>
