<svg width="347" height="58" viewBox="0 0 347 58" fill="none" xmlns="http://www.w3.org/2000/svg">
<g clip-path="url(#clip0_345_18)">
<g clip-path="url(#clip1_345_18)">
<rect width="345" height="56" transform="translate(1 1)" fill="#FFDD00"/>
</g>
<path d="M122.734 22.9473C122.734 27.4795 121.489 31.3643 115.961 34.1201L114.948 32.7256C117.546 31.439 119.09 29.9448 119.962 28.1602L115.297 28.6084L115.064 27.0146L120.526 26.666C120.717 25.9688 120.833 25.23 120.891 24.4414H115.845V22.9473H122.734ZM126.685 21.4697V27.3467H128.91V28.8574H126.685V36.4443H124.843V21.4697H126.685ZM136.997 22.9473C136.997 27.4795 135.751 31.3643 130.223 34.1201L129.21 32.7256C131.809 31.439 133.353 29.9448 134.224 28.1602L129.559 28.6084L129.327 27.0146L134.789 26.666C134.979 25.9688 135.096 25.23 135.154 24.4414H130.107V22.9473H136.997ZM140.948 21.4697V27.3467H143.172V28.8574H140.948V36.4443H139.105V21.4697H140.948ZM150.279 22.3164C153.5 22.3164 155.874 23.9268 155.874 26.3672C155.874 28.6167 153.94 30.1191 151.193 30.3848V33.1406H157.169V34.6514H143.456V33.1406H149.366V30.3848C146.635 30.1191 144.701 28.6167 144.718 26.3672C144.701 23.9268 147.075 22.3164 150.279 22.3164ZM150.279 23.8105C148.088 23.7939 146.511 24.79 146.527 26.3672C146.511 27.9941 148.088 28.957 150.279 28.957C152.504 28.957 154.065 27.9941 154.065 26.3672C154.065 24.79 152.504 23.7939 150.279 23.8105ZM171.431 33.207V34.7344H157.719V33.207H163.629V30.7666H159.346V25.8525H167.978V23.9932H159.312V22.499H169.805V27.3135H161.188V29.2559H170.153V30.7666H165.455V33.207H171.431ZM181.263 25.0723C181.246 27.8281 182.691 30.584 185.131 31.6299L184.035 33.1074C182.309 32.3105 181.039 30.7168 180.35 28.7578C179.661 30.8745 178.374 32.6011 176.548 33.4561L175.419 31.9121C177.926 30.833 179.387 27.9609 179.387 25.0723V22.6816H181.263V25.0723ZM188.07 21.4697V36.4941H186.21V21.4697H188.07ZM195.226 24.0762C195.226 25.9189 196.422 27.7451 198.779 28.5254L197.849 29.9531C196.173 29.397 194.977 28.2681 194.33 26.8652C193.658 28.4009 192.412 29.6211 190.661 30.2188L189.682 28.791C192.105 27.9941 193.367 26.0518 193.367 24.0762V23.8936H190.196V22.416H198.348V23.8936H195.226V24.0762ZM201.684 21.4697V25.2217H203.776V26.7656H201.684V30.5176H199.842V21.4697H201.684ZM201.684 31.2148V36.4775H199.842V32.6924H191.69V31.2148H201.684ZM215.864 21.4697V27.4463H218.171V28.9736H215.864V36.4775H214.038V21.4697H215.864ZM212.876 23.7773V25.2549H204.027V23.7773H207.58V21.6855H209.422V23.7773H212.876ZM208.509 26.2344C210.668 26.2344 212.278 27.6953 212.278 29.7705C212.278 31.8457 210.668 33.29 208.509 33.29C206.318 33.29 204.708 31.8457 204.724 29.7705C204.708 27.6953 206.318 26.2344 208.509 26.2344ZM208.509 27.7451C207.331 27.7451 206.484 28.542 206.484 29.7705C206.484 30.999 207.331 31.7793 208.509 31.7627C209.655 31.7793 210.501 30.999 210.518 29.7705C210.501 28.542 209.655 27.7451 208.509 27.7451ZM230.906 21.4697V36.4775H229.047V21.4697H230.906ZM226.424 23.0635C226.424 27.5293 224.697 31.3311 219.435 33.8213L218.472 32.3438C222.398 30.4761 224.224 27.936 224.548 24.5244H219.236V23.0635H226.424Z" fill="black"/>
</g>
<rect x="1" y="1" width="345" height="56" rx="14" stroke="#FFDD00"/>
<path d="M37.815 18C39.9512 18 41.927 18.4158 43.7423 19.2473C45.5576 20.0788 46.9927 21.2094 48.0476 22.6393C49.1025 24.0691 49.63 25.6287 49.63 27.3181C49.63 29.0075 49.1025 30.5693 48.0476 32.0036C46.9927 33.4378 45.5598 34.5707 43.7489 35.4022C41.9379 36.2336 39.96 36.6494 37.815 36.6494C37.1381 36.6494 36.4392 36.601 35.7184 36.5042C32.5888 38.6776 30.9229 39.7775 30.7207 39.8038C30.624 39.839 30.5317 39.8346 30.4438 39.7907C30.4086 39.7643 30.3823 39.729 30.3647 39.685C30.3471 39.641 30.3383 39.6015 30.3383 39.5662V39.5135C30.3911 39.1703 30.791 37.7405 31.5383 35.224C29.8416 34.3793 28.4944 33.2596 27.4967 31.865C26.4989 30.4704 26 28.9547 26 27.3181C26 25.6287 26.5275 24.0691 27.5824 22.6393C28.6373 21.2094 30.0724 20.0788 31.8877 19.2473C33.703 18.4158 35.6788 18 37.815 18Z" fill="#4C232D"/>
<defs>
<clipPath id="clip0_345_18">
<rect x="1" y="1" width="345" height="56" rx="14" fill="white"/>
</clipPath>
<clipPath id="clip1_345_18">
<rect width="345" height="56" fill="white" transform="translate(1 1)"/>
</clipPath>
</defs>
</svg>
