<svg width="232" height="105" viewBox="0 0 232 105" fill="none" xmlns="http://www.w3.org/2000/svg">
<path d="M9.63281 3.94141C10.9023 3.94141 12.0449 4.14323 13.0605 4.54688C14.0762 4.95052 14.8737 5.52344 15.4531 6.26562C16.0326 7.0013 16.3255 7.84766 16.332 8.80469C16.3255 9.67708 16.0911 10.4583 15.6289 11.1484C15.1667 11.8385 14.5221 12.3984 13.6953 12.8281C12.875 13.2513 11.931 13.5247 10.8633 13.6484V16.6758H17.7969V18.7266H1.52734V16.6758H8.38281V13.6387C7.32161 13.5215 6.38086 13.248 5.56055 12.8184C4.74023 12.3887 4.09896 11.832 3.63672 11.1484C3.18099 10.4583 2.95312 9.67708 2.95312 8.80469C2.95312 7.84766 3.23958 7.0013 3.8125 6.26562C4.39193 5.52344 5.18945 4.95052 6.20508 4.54688C7.2207 4.14323 8.36328 3.94141 9.63281 3.94141ZM9.63281 5.93359C8.80599 5.93359 8.07357 6.05078 7.43555 6.28516C6.79753 6.51302 6.29948 6.84505 5.94141 7.28125C5.58984 7.71745 5.41406 8.22526 5.41406 8.80469C5.41406 9.41667 5.58984 9.94401 5.94141 10.3867C6.29948 10.8229 6.79427 11.1582 7.42578 11.3926C8.0638 11.6204 8.79948 11.7344 9.63281 11.7344C10.4727 11.7344 11.2083 11.6204 11.8398 11.3926C12.4779 11.1647 12.9727 10.8294 13.3242 10.3867C13.6823 9.94401 13.8646 9.41667 13.8711 8.80469C13.8646 8.21875 13.6823 7.71094 13.3242 7.28125C12.9727 6.84505 12.4779 6.51302 11.8398 6.28516C11.2018 6.05078 10.4661 5.93359 9.63281 5.93359ZM56.9766 18.7266H40.707V16.6758H47.5625V13.043H42.4258V4.33203H55.1602V13.043H50.043V16.6758H56.9766V18.7266ZM44.8867 11.0898H52.6992V6.32422H44.8867V11.0898ZM77.4844 12.5742H74.9844V3.02344H77.4844V12.5742ZM68.0508 15.0156H75.0039V13.3555H77.4844V20.6016H65.5898V13.3555H68.0508V15.0156ZM75.0039 18.5898V16.9492H68.0508V18.5898H75.0039ZM67.7383 3.76562C68.6562 3.75911 69.4831 3.9349 70.2188 4.29297C70.9609 4.65104 71.5436 5.15234 71.9668 5.79688C72.39 6.4349 72.6016 7.16406 72.6016 7.98438C72.6016 8.77865 72.39 9.49154 71.9668 10.123C71.5436 10.7546 70.9609 11.2493 70.2188 11.6074C69.4831 11.9655 68.6562 12.1445 67.7383 12.1445C66.8203 12.1445 65.9902 11.9655 65.248 11.6074C64.5124 11.2493 63.9329 10.7546 63.5098 10.123C63.0866 9.49154 62.875 8.77865 62.875 7.98438C62.875 7.16406 63.0866 6.4349 63.5098 5.79688C63.9329 5.15234 64.5124 4.65104 65.248 4.29297C65.9902 3.9349 66.8203 3.75911 67.7383 3.76562ZM67.7383 5.83594C67.263 5.83594 66.8398 5.92383 66.4688 6.09961C66.1042 6.26888 65.8177 6.51628 65.6094 6.8418C65.4076 7.16081 65.3099 7.54167 65.3164 7.98438C65.3099 8.42057 65.4076 8.79818 65.6094 9.11719C65.8177 9.42969 66.1042 9.67057 66.4688 9.83984C66.8398 10.0091 67.263 10.0938 67.7383 10.0938C68.2005 10.0938 68.6139 10.0091 68.9785 9.83984C69.3431 9.67057 69.6263 9.42969 69.8281 9.11719C70.0365 8.79818 70.1406 8.42057 70.1406 7.98438C70.1406 7.54167 70.0365 7.16081 69.8281 6.8418C69.6263 6.51628 69.3431 6.26888 68.9785 6.09961C68.6139 5.92383 68.2005 5.83594 67.7383 5.83594Z" fill="#89CEFA"/>
<path d="M33.1875 8.58984H20.8242V3.23828H23.3047V6.61719H33.1875V8.58984ZM35.0625 11.7539H18.793V9.78125H35.0625V11.7539ZM33.1094 17.5547H23.1875V18.6875H33.6562V20.6016H20.6875V15.7578H30.6289V14.7422H20.6484V12.8281H33.1094V17.5547ZM87.9922 3.27734C89.3529 3.27734 90.515 3.39453 91.4785 3.62891C92.4421 3.86328 93.1777 4.20833 93.6855 4.66406C94.1934 5.11328 94.4505 5.66016 94.457 6.30469C94.4505 6.95573 94.1934 7.50911 93.6855 7.96484C93.1777 8.42057 92.4421 8.76562 91.4785 9C90.515 9.23438 89.3529 9.35156 87.9922 9.35156C86.625 9.35156 85.4564 9.23438 84.4863 9C83.5163 8.76562 82.7773 8.42057 82.2695 7.96484C81.7617 7.50911 81.5078 6.95573 81.5078 6.30469C81.5078 5.66016 81.7617 5.11328 82.2695 4.66406C82.7773 4.20833 83.5163 3.86328 84.4863 3.62891C85.4564 3.39453 86.625 3.27734 87.9922 3.27734ZM87.9922 5.09375C86.6966 5.09375 85.7233 5.19792 85.0723 5.40625C84.4277 5.60807 84.112 5.90755 84.125 6.30469C84.1185 6.73438 84.4277 7.04362 85.0527 7.23242C85.6777 7.42122 86.6576 7.51562 87.9922 7.51562C89.3333 7.51562 90.3164 7.42122 90.9414 7.23242C91.5664 7.04362 91.8789 6.73438 91.8789 6.30469C91.8789 5.90755 91.5566 5.60807 90.9121 5.40625C90.2676 5.19792 89.2943 5.09375 87.9922 5.09375ZM96.0977 12.1641H79.8867V10.1914H96.0977V12.1641ZM94.125 17.7305H84.2227V18.8047H94.5938V20.6797H81.7812V15.9922H91.6641V15.0156H81.7617V13.1992H94.125V17.7305ZM104.418 11.5977H100.062V14.7812C101.02 14.7682 101.902 14.7357 102.709 14.6836C103.516 14.6315 104.34 14.5404 105.18 14.4102L105.355 16.4023C104.281 16.5846 103.253 16.7051 102.27 16.7637C101.293 16.8223 100.173 16.8516 98.9102 16.8516H97.6797V9.60547H102.016V6.75391H97.6602V4.74219H104.418V11.5977ZM112.543 20.7969H110.18V11.7539H108.461V19.9375H106.176V3.31641H108.461V9.74219H110.18V3.02344H112.543V20.7969ZM117.562 14.5469C117.569 13.7656 117.641 13.1341 117.777 12.6523C117.914 12.1641 118.109 11.7734 118.363 11.4805C118.624 11.1875 118.969 10.9076 119.398 10.6406C119.874 10.3281 120.238 10.0124 120.492 9.69336C120.753 9.37435 120.883 9.00651 120.883 8.58984C120.883 8.27083 120.808 7.99089 120.658 7.75C120.508 7.5026 120.303 7.31055 120.043 7.17383C119.783 7.03711 119.496 6.96875 119.184 6.96875C118.871 6.96875 118.578 7.03711 118.305 7.17383C118.038 7.31055 117.82 7.51237 117.65 7.7793C117.488 8.03971 117.4 8.35547 117.387 8.72656H114.613C114.633 7.84115 114.844 7.0957 115.248 6.49023C115.658 5.87826 116.205 5.42253 116.889 5.12305C117.579 4.81706 118.35 4.66406 119.203 4.66406C120.108 4.66406 120.912 4.81706 121.615 5.12305C122.318 5.42904 122.865 5.87174 123.256 6.45117C123.653 7.02409 123.852 7.70443 123.852 8.49219C123.852 9.26042 123.669 9.91797 123.305 10.4648C122.947 11.0117 122.426 11.487 121.742 11.8906C121.358 12.125 121.052 12.3594 120.824 12.5938C120.603 12.8216 120.434 13.0918 120.316 13.4043C120.206 13.7168 120.147 14.0977 120.141 14.5469V14.7617H117.562V14.5469ZM118.91 19.1758C118.611 19.1758 118.334 19.1009 118.08 18.9512C117.826 18.8014 117.624 18.6029 117.475 18.3555C117.331 18.1016 117.263 17.8281 117.27 17.5352C117.263 17.2422 117.331 16.972 117.475 16.7246C117.624 16.4772 117.826 16.2819 118.08 16.1387C118.334 15.9889 118.611 15.9141 118.91 15.9141C119.19 15.9141 119.454 15.9889 119.701 16.1387C119.955 16.2819 120.157 16.4772 120.307 16.7246C120.456 16.972 120.531 17.2422 120.531 17.5352C120.531 17.8281 120.456 18.1016 120.307 18.3555C120.157 18.6029 119.955 18.8014 119.701 18.9512C119.454 19.1009 119.19 19.1758 118.91 19.1758ZM137.934 3.94141C139.203 3.94141 140.346 4.14323 141.361 4.54688C142.377 4.95052 143.174 5.52344 143.754 6.26562C144.333 7.0013 144.626 7.84766 144.633 8.80469C144.626 9.67708 144.392 10.4583 143.93 11.1484C143.467 11.8385 142.823 12.3984 141.996 12.8281C141.176 13.2513 140.232 13.5247 139.164 13.6484V16.6758H146.098V18.7266H129.828V16.6758H136.684V13.6387C135.622 13.5215 134.682 13.248 133.861 12.8184C133.041 12.3887 132.4 11.832 131.938 11.1484C131.482 10.4583 131.254 9.67708 131.254 8.80469C131.254 7.84766 131.54 7.0013 132.113 6.26562C132.693 5.52344 133.49 4.95052 134.506 4.54688C135.521 4.14323 136.664 3.94141 137.934 3.94141ZM137.934 5.93359C137.107 5.93359 136.374 6.05078 135.736 6.28516C135.098 6.51302 134.6 6.84505 134.242 7.28125C133.891 7.71745 133.715 8.22526 133.715 8.80469C133.715 9.41667 133.891 9.94401 134.242 10.3867C134.6 10.8229 135.095 11.1582 135.727 11.3926C136.365 11.6204 137.1 11.7344 137.934 11.7344C138.773 11.7344 139.509 11.6204 140.141 11.3926C140.779 11.1647 141.273 10.8294 141.625 10.3867C141.983 9.94401 142.165 9.41667 142.172 8.80469C142.165 8.21875 141.983 7.71094 141.625 7.28125C141.273 6.84505 140.779 6.51302 140.141 6.28516C139.503 6.05078 138.767 5.93359 137.934 5.93359ZM163.383 18.7266H147.113V16.6758H153.969V13.043H148.832V4.33203H161.566V13.043H156.449V16.6758H163.383V18.7266ZM151.293 11.0898H159.105V6.32422H151.293V11.0898ZM179.281 12.5742H176.781V3.02344H179.281V12.5742ZM169.848 15.0156H176.801V13.3555H179.281V20.6016H167.387V13.3555H169.848V15.0156ZM176.801 18.5898V16.9492H169.848V18.5898H176.801ZM169.535 3.76562C170.453 3.75911 171.28 3.9349 172.016 4.29297C172.758 4.65104 173.34 5.15234 173.764 5.79688C174.187 6.4349 174.398 7.16406 174.398 7.98438C174.398 8.77865 174.187 9.49154 173.764 10.123C173.34 10.7546 172.758 11.2493 172.016 11.6074C171.28 11.9655 170.453 12.1445 169.535 12.1445C168.617 12.1445 167.787 11.9655 167.045 11.6074C166.309 11.2493 165.73 10.7546 165.307 10.123C164.883 9.49154 164.672 8.77865 164.672 7.98438C164.672 7.16406 164.883 6.4349 165.307 5.79688C165.73 5.15234 166.309 4.65104 167.045 4.29297C167.787 3.9349 168.617 3.75911 169.535 3.76562ZM169.535 5.83594C169.06 5.83594 168.637 5.92383 168.266 6.09961C167.901 6.26888 167.615 6.51628 167.406 6.8418C167.204 7.16081 167.107 7.54167 167.113 7.98438C167.107 8.42057 167.204 8.79818 167.406 9.11719C167.615 9.42969 167.901 9.67057 168.266 9.83984C168.637 10.0091 169.06 10.0938 169.535 10.0938C169.997 10.0938 170.411 10.0091 170.775 9.83984C171.14 9.67057 171.423 9.42969 171.625 9.11719C171.833 8.79818 171.938 8.42057 171.938 7.98438C171.938 7.54167 171.833 7.16081 171.625 6.8418C171.423 6.51628 171.14 6.26888 170.775 6.09961C170.411 5.92383 169.997 5.83594 169.535 5.83594ZM185.473 14.7617H182.973L182.719 4.85938H185.727L185.473 14.7617ZM184.242 19.1758C183.943 19.1758 183.666 19.1009 183.412 18.9512C183.158 18.8014 182.956 18.6029 182.807 18.3555C182.663 18.1016 182.595 17.8281 182.602 17.5352C182.595 17.2422 182.663 16.972 182.807 16.7246C182.956 16.4772 183.158 16.2819 183.412 16.1387C183.666 15.9889 183.943 15.9141 184.242 15.9141C184.522 15.9141 184.786 15.9889 185.033 16.1387C185.287 16.2819 185.489 16.4772 185.639 16.7246C185.788 16.972 185.863 17.2422 185.863 17.5352C185.863 17.8281 185.788 18.1016 185.639 18.3555C185.489 18.6029 185.287 18.8014 185.033 18.9512C184.786 19.1009 184.522 19.1758 184.242 19.1758Z" fill="#7B7B7B"/>
<path d="M19.5 61.5C24.5683 61.5 29.176 59.9599 32.5279 57.4459C35.88 54.9319 38 51.4206 38 47.5C38 43.5794 35.88 40.0681 32.5279 37.5541C29.176 35.0401 24.5683 33.5 19.5 33.5C14.4317 33.5 9.824 35.0401 6.47208 37.5541C3.12001 40.0681 1 43.5794 1 47.5C1 51.4206 3.12001 54.9319 6.47208 57.4459C9.824 59.9599 14.4317 61.5 19.5 61.5Z" fill="#89CEFA" stroke="#7B7B7B"/>
<path d="M26 47.5C26 48.5322 25.3962 49.52 24.3116 50.2709C23.2289 51.0204 21.7061 51.5 20 51.5C18.2939 51.5 16.7711 51.0204 15.6884 50.2709C14.6038 49.52 14 48.5322 14 47.5C14 46.4678 14.6038 45.48 15.6884 44.7291C16.7711 43.9796 18.2939 43.5 20 43.5C21.7061 43.5 23.2289 43.9796 24.3116 44.7291C25.3962 45.48 26 46.4678 26 47.5Z" fill="white" stroke="#7B7B7B"/>
<path d="M44 34.5H79V60.5H48.5C46.0147 60.5 44 58.4853 44 56V34.5Z" fill="#89CEFA"/>
<path d="M44 34.5H79V60.5H48.5C46.0147 60.5 44 58.4853 44 56V34.5Z" stroke="#7B7B7B"/>
<rect x="56" y="44" width="11" height="7" fill="white" stroke="#7B7B7B"/>
<path d="M102.5 61.5C107.568 61.5 112.176 59.9599 115.528 57.4459C118.88 54.9319 121 51.4206 121 47.5C121 43.5794 118.88 40.0681 115.528 37.5541C112.176 35.0401 107.568 33.5 102.5 33.5C97.4317 33.5 92.824 35.0401 89.4721 37.5541C86.12 40.0681 84 43.5794 84 47.5C84 51.4206 86.12 54.9319 89.4721 57.4459C92.824 59.9599 97.4317 61.5 102.5 61.5Z" fill="#89CEFA" stroke="#7B7B7B"/>
<path d="M109 47.5C109 48.5322 108.396 49.52 107.312 50.2709C106.229 51.0204 104.706 51.5 103 51.5C101.294 51.5 99.7711 51.0204 98.6884 50.2709C97.6038 49.52 97 48.5322 97 47.5C97 46.4678 97.6038 45.48 98.6884 44.7291C99.7711 43.9796 101.294 43.5 103 43.5C104.706 43.5 106.229 43.9796 107.312 44.7291C108.396 45.48 109 46.4678 109 47.5Z" fill="white" stroke="#7B7B7B"/>
<path d="M11.9375 85.1621H10.6934V78.8867H9.12109V84.5332H7.9043V73.1582H9.12109V77.8203H10.6934V72.9121H11.9375V85.1621ZM3.32422 80.9033C4.64128 80.8896 5.89453 80.7643 7.08398 80.5273L7.2207 81.6621C6.43229 81.8034 5.68034 81.9036 4.96484 81.9629C4.25391 82.0176 3.53841 82.0449 2.81836 82.0449H2.02539V74.3613H3.32422V80.9033ZM28.1387 79.9395H16.9688V78.8867H21.9043V77.793C21.1387 77.752 20.4756 77.6335 19.915 77.4375C19.3545 77.2415 18.9238 76.9772 18.623 76.6445C18.3223 76.3118 18.1719 75.9245 18.1719 75.4824C18.1719 74.9948 18.3496 74.5778 18.7051 74.2314C19.0605 73.8805 19.5664 73.6139 20.2227 73.4316C20.8789 73.2493 21.6536 73.1582 22.5469 73.1582C23.4447 73.1582 24.2217 73.2493 24.8779 73.4316C25.5342 73.6139 26.0378 73.8805 26.3887 74.2314C26.7441 74.5778 26.9219 74.9948 26.9219 75.4824C26.9219 75.929 26.7715 76.3187 26.4707 76.6514C26.1699 76.984 25.737 77.2484 25.1719 77.4443C24.6068 77.6403 23.9368 77.7565 23.1621 77.793V78.8867H28.1387V79.9395ZM23.2031 81.0195C23.2031 81.5254 23.3786 81.9925 23.7295 82.4209C24.0804 82.8493 24.5658 83.2093 25.1855 83.501C25.8053 83.7881 26.5117 83.9863 27.3047 84.0957L26.7988 85.1074C25.8281 84.957 24.9668 84.6745 24.2148 84.2598C23.4674 83.8451 22.9115 83.3278 22.5469 82.708C22.1823 83.3278 21.624 83.8451 20.8721 84.2598C20.1247 84.6745 19.2656 84.957 18.2949 85.1074L17.8027 84.0957C18.5866 83.9863 19.2884 83.7858 19.9082 83.4941C20.528 83.2025 21.0133 82.8447 21.3643 82.4209C21.7152 81.9925 21.8906 81.5254 21.8906 81.0195V80.6777H23.2031V81.0195ZM22.5469 74.1562C21.9225 74.1562 21.3802 74.2087 20.9199 74.3135C20.4642 74.4183 20.1133 74.571 19.8672 74.7715C19.6257 74.972 19.5072 75.209 19.5117 75.4824C19.5072 75.9017 19.7738 76.2253 20.3115 76.4531C20.8493 76.681 21.5944 76.7949 22.5469 76.7949C23.4948 76.7949 24.2376 76.681 24.7754 76.4531C25.3132 76.2253 25.582 75.9017 25.582 75.4824C25.582 75.209 25.459 74.972 25.2129 74.7715C24.9714 74.571 24.6204 74.4183 24.1602 74.3135C23.7044 74.2087 23.1667 74.1562 22.5469 74.1562ZM33.3477 75.168C33.3477 75.6875 33.4639 76.1842 33.6963 76.6582C33.9287 77.1276 34.266 77.5446 34.708 77.9092C35.1501 78.2692 35.6764 78.5449 36.2871 78.7363L35.6719 79.748C34.9837 79.5293 34.3867 79.2012 33.8809 78.7637C33.3796 78.3262 32.9922 77.8112 32.7188 77.2188C32.4499 77.8978 32.0511 78.4902 31.5225 78.9961C30.9938 79.4974 30.3672 79.8757 29.6426 80.1309L28.9727 79.0918C29.597 78.8867 30.1393 78.5859 30.5996 78.1895C31.0645 77.7884 31.4199 77.3281 31.666 76.8086C31.9167 76.2891 32.0443 75.7467 32.0488 75.1816V74.8398H29.3555V73.7871H35.9863V74.8398H33.3477V75.168ZM38.6934 75.9473H40.4707V77.0137H38.6934V80.2676H37.3945V72.9121H38.6934V75.9473ZM34.7422 80.5684C35.5807 80.5684 36.3053 80.6595 36.916 80.8418C37.5267 81.0195 37.9938 81.2793 38.3174 81.6211C38.641 81.9583 38.8027 82.3639 38.8027 82.8379C38.8027 83.3164 38.6387 83.7288 38.3105 84.0752C37.987 84.4215 37.5199 84.6859 36.9092 84.8682C36.3031 85.0505 35.5807 85.1393 34.7422 85.1348C33.8945 85.1393 33.1608 85.0505 32.541 84.8682C31.9258 84.6859 31.4518 84.4215 31.1191 84.0752C30.791 83.7288 30.627 83.3164 30.627 82.8379C30.627 82.3639 30.791 81.9583 31.1191 81.6211C31.4518 81.2793 31.9258 81.0195 32.541 80.8418C33.1608 80.6595 33.8945 80.5684 34.7422 80.5684ZM34.7422 81.5938C33.849 81.5938 33.154 81.7031 32.6572 81.9219C32.165 82.1361 31.9212 82.4414 31.9258 82.8379C31.9212 83.2435 32.165 83.5579 32.6572 83.7812C33.154 84 33.849 84.1094 34.7422 84.1094C35.6263 84.1094 36.3122 84 36.7998 83.7812C37.2874 83.5625 37.5312 83.248 37.5312 82.8379C37.5312 82.4414 37.2874 82.1361 36.7998 81.9219C36.3122 81.7031 35.6263 81.5938 34.7422 81.5938ZM51.709 85.1621H50.4648V72.9121H51.709V85.1621ZM49.2207 84.5605H47.9766V78.6543H46.5957C46.5592 79.4473 46.4271 80.1354 46.1992 80.7188C45.9714 81.3021 45.6637 81.751 45.2764 82.0654C44.889 82.3753 44.4447 82.528 43.9434 82.5234C43.4147 82.528 42.9499 82.3548 42.5488 82.0039C42.1523 81.653 41.8447 81.1517 41.626 80.5C41.4118 79.8438 41.3047 79.0781 41.3047 78.2031C41.3047 77.3281 41.4118 76.5648 41.626 75.9131C41.8447 75.2614 42.1523 74.7624 42.5488 74.416C42.9499 74.0651 43.4147 73.8919 43.9434 73.8965C44.4355 73.8919 44.873 74.04 45.2559 74.3408C45.6387 74.637 45.944 75.0654 46.1719 75.626C46.4043 76.182 46.5433 76.8405 46.5889 77.6016H47.9766V73.1445H49.2207V84.5605ZM43.9434 75.1133C43.6471 75.1133 43.3919 75.2363 43.1777 75.4824C42.9635 75.724 42.7972 76.0771 42.6787 76.542C42.5648 77.0023 42.5078 77.556 42.5078 78.2031C42.5078 78.8503 42.5648 79.4062 42.6787 79.8711C42.7972 80.3314 42.9635 80.6846 43.1777 80.9307C43.3919 81.1722 43.6471 81.293 43.9434 81.293C44.2441 81.293 44.5039 81.1722 44.7227 80.9307C44.9414 80.6846 45.11 80.3314 45.2285 79.8711C45.347 79.4062 45.4062 78.8503 45.4062 78.2031C45.4062 77.556 45.347 77.0023 45.2285 76.542C45.11 76.0771 44.9414 75.724 44.7227 75.4824C44.5039 75.2363 44.2441 75.1133 43.9434 75.1133ZM57.6836 76.0293C57.6836 76.7721 57.8135 77.499 58.0732 78.21C58.3376 78.9209 58.7067 79.5521 59.1807 80.1035C59.6546 80.6549 60.1992 81.0697 60.8145 81.3477L60.0215 82.3867C59.3333 82.0449 58.7318 81.5459 58.2168 80.8896C57.7064 80.2334 57.3145 79.4792 57.041 78.627C56.7676 79.5247 56.3688 80.3245 55.8447 81.0264C55.3206 81.7236 54.7122 82.2546 54.0195 82.6191L53.1992 81.5664C53.819 81.2702 54.3682 80.8327 54.8467 80.2539C55.3298 79.6706 55.7035 79.0098 55.9678 78.2715C56.2367 77.5286 56.3711 76.7812 56.3711 76.0293V73.9375H57.6836V76.0293ZM63.4805 85.1895H62.1953V78.0391H59.4609V76.9863H62.1953V72.9121H63.4805V85.1895ZM1.25977 101L4.81445 91.1016H6.55078L10.1191 101H8.51953L7.61719 98.3887H3.76172L2.85938 101H1.25977ZM7.17969 97.1309L5.7168 92.9062H5.64844L4.19238 97.1309H7.17969ZM12.8809 101H11.377V91.1016H12.8809V101ZM27.291 94.793H29.1914V95.873H27.291V102.148H25.9922V89.9121H27.291V94.793ZM24.0918 91.1973C24.0827 93.0658 23.6292 94.7428 22.7314 96.2285C21.8337 97.7142 20.4186 98.9355 18.4863 99.8926L17.7617 98.8809C19.293 98.1152 20.4756 97.181 21.3096 96.0781C22.1481 94.9753 22.6335 93.7083 22.7656 92.2773H18.377V91.1973H24.0918ZM44.4355 98.3613H39.4863V102.176H38.2012V98.3613H33.2656V97.2949H44.4355V98.3613ZM43.3691 92.4414H39.5C39.5228 92.888 39.7256 93.321 40.1084 93.7402C40.4912 94.1595 41.0039 94.5195 41.6465 94.8203C42.2891 95.1165 42.9909 95.3125 43.752 95.4082L43.2871 96.4473C42.3027 96.3105 41.4163 96.0257 40.6279 95.5928C39.8395 95.1553 39.2471 94.6243 38.8506 94C38.4541 94.6289 37.8594 95.1598 37.0664 95.5928C36.278 96.0257 35.3893 96.3105 34.4004 96.4473L33.9219 95.4082C34.6875 95.3125 35.3916 95.1165 36.0342 94.8203C36.6768 94.5241 37.1917 94.1686 37.5791 93.7539C37.9665 93.3346 38.1738 92.8971 38.2012 92.4414H34.3184V91.3887H38.2012V89.9121H39.4863V91.3887H43.3691V92.4414ZM49.6582 92.8242C49.6582 93.3392 49.779 93.8314 50.0205 94.3008C50.2666 94.7702 50.6175 95.1872 51.0732 95.5518C51.5335 95.9118 52.0736 96.1875 52.6934 96.3789L52.0645 97.4043C51.3672 97.1855 50.7565 96.8529 50.2324 96.4062C49.7129 95.9596 49.3141 95.4355 49.0361 94.834C48.7627 95.4857 48.3662 96.0508 47.8467 96.5293C47.3271 97.0033 46.7096 97.3587 45.9941 97.5957L45.3652 96.584C45.9805 96.388 46.5137 96.1009 46.9648 95.7227C47.4206 95.3398 47.7692 94.9001 48.0107 94.4033C48.2523 93.902 48.373 93.3757 48.373 92.8242V92.5371H45.707V91.4844H48.373V89.9941H49.6719V91.4844H52.3242V92.5371H49.6582V92.8242ZM55.5781 99.0449H54.2793V94.6836H51.9004V93.6309H54.2793V89.9258H55.5781V99.0449ZM55.9062 101.902H47.6211V98.2383H48.9199V100.85H55.9062V101.902ZM63.5215 92.9883H57.4375V91.9355H59.8438V90.2676H61.1289V91.9355H63.5215V92.9883ZM60.4863 93.7266C61.0013 93.7266 61.4593 93.8473 61.8604 94.0889C62.2614 94.3258 62.5758 94.6585 62.8037 95.0869C63.0316 95.5107 63.1478 95.9961 63.1523 96.543C63.1478 97.0944 63.0316 97.5866 62.8037 98.0195C62.5758 98.4479 62.2614 98.7829 61.8604 99.0244C61.4593 99.266 61.0013 99.3867 60.4863 99.3867C59.9805 99.3867 59.5247 99.266 59.1191 99.0244C58.7135 98.7829 58.3968 98.4456 58.1689 98.0127C57.9411 97.5798 57.8294 97.0898 57.834 96.543C57.8294 96.0007 57.9411 95.5153 58.1689 95.0869C58.3968 94.6585 58.7135 94.3258 59.1191 94.0889C59.5247 93.8473 59.9805 93.7266 60.4863 93.7266ZM60.4863 94.8066C60.1947 94.8066 59.9349 94.8818 59.707 95.0322C59.4792 95.1781 59.3014 95.3831 59.1738 95.6475C59.0462 95.9118 58.9824 96.2103 58.9824 96.543C58.9824 96.8848 59.0462 97.1878 59.1738 97.4521C59.3014 97.7119 59.4792 97.9147 59.707 98.0605C59.9349 98.2064 60.1947 98.2793 60.4863 98.2793C60.778 98.2793 61.0378 98.2064 61.2656 98.0605C61.498 97.9147 61.6781 97.7119 61.8057 97.4521C61.9378 97.1878 62.0039 96.8848 62.0039 96.543C62.0039 96.2103 61.9378 95.9118 61.8057 95.6475C61.6781 95.3831 61.498 95.1781 61.2656 95.0322C61.0332 94.8818 60.7734 94.8066 60.4863 94.8066ZM67.9512 102.162H66.7207V96.0781H65.3125V101.588H64.082V90.1855H65.3125V95.0117H66.7207V89.9121H67.9512V102.162ZM80.7344 97.8691H75.7578V102.148H74.4863V97.8691H69.5645V96.8164H80.7344V97.8691ZM79.6816 91.6758H75.8945C75.8991 92.1725 76.0905 92.6465 76.4688 93.0977C76.8516 93.5443 77.3643 93.9248 78.0068 94.2393C78.6494 94.5492 79.3535 94.7565 80.1191 94.8613L79.6406 95.8867C78.9707 95.7819 78.3395 95.6064 77.7471 95.3604C77.1546 95.1097 76.6351 94.7998 76.1885 94.4307C75.7419 94.057 75.3955 93.64 75.1494 93.1797C74.7803 93.8724 74.1947 94.458 73.3926 94.9365C72.5951 95.4105 71.6927 95.7272 70.6855 95.8867L70.1934 94.8613C70.9499 94.7565 71.6471 94.5492 72.2852 94.2393C72.9277 93.9248 73.4404 93.5443 73.8232 93.0977C74.2061 92.6465 74.4043 92.1725 74.418 91.6758H70.6035V90.6367H79.6816V91.6758ZM91.5762 94.5332H83.1406V90.3496H84.4258V93.4941H91.5762V94.5332ZM92.8613 97.1172H81.6504V96.0781H92.8613V97.1172ZM91.6582 101.875H83.0449V98.2793H84.3438V100.809H91.6582V101.875ZM107.066 92.1953V92.4277C107.062 93.0885 107.048 93.6628 107.025 94.1504C107.007 94.638 106.959 95.2031 106.882 95.8457C106.809 96.4883 106.697 97.181 106.547 97.9238L105.275 97.7871C105.485 96.821 105.626 95.889 105.699 94.9912L98.3301 95.4219L98.1387 94.3008L105.768 94C105.786 93.5625 105.795 92.9609 105.795 92.1953V92.1133H98.5078V91.0469H107.066V92.1953ZM108.352 100.576H97.1816V99.4961H101.434V96.3926H102.719V99.4961H108.352V100.576ZM119.426 102.189H118.127V89.9121H119.426V102.189ZM115.926 92.127H111.373V98.0742C112.626 98.0697 113.656 98.0423 114.463 97.9922C115.274 97.9421 116.09 97.8418 116.91 97.6914L117.047 98.7715C116.163 98.931 115.276 99.0404 114.388 99.0996C113.504 99.1543 112.398 99.1816 111.072 99.1816H110.061V91.0469H115.926V92.127ZM131.266 95.7227H125.441V90.6914H131.266V95.7227ZM126.713 94.7109H129.98V91.7305H126.713V94.7109ZM134.943 96.9121H133.658V89.9121H134.943V96.9121ZM135.23 98.6895H131.648C131.676 99.0449 131.869 99.3958 132.229 99.7422C132.59 100.084 133.07 100.38 133.672 100.631C134.278 100.877 134.943 101.041 135.668 101.123L135.23 102.121C134.283 102.012 133.433 101.766 132.681 101.383C131.929 101 131.364 100.535 130.985 99.9883C130.612 100.535 130.044 100.998 129.283 101.376C128.527 101.754 127.665 102.003 126.699 102.121L126.248 101.123C126.973 101.055 127.64 100.897 128.251 100.651C128.862 100.405 129.349 100.109 129.714 99.7627C130.083 99.4118 130.281 99.054 130.309 98.6895H126.74V97.7051H130.336V96.5566H131.621V97.7051H135.23V98.6895ZM149.859 94.793H151.76V95.873H149.859V102.148H148.561V89.9121H149.859V94.793ZM146.66 91.1973C146.651 93.0658 146.198 94.7428 145.3 96.2285C144.402 97.7142 142.987 98.9355 141.055 99.8926L140.33 98.8809C141.861 98.1152 143.044 97.181 143.878 96.0781C144.716 94.9753 145.202 93.7083 145.334 92.2773H140.945V91.1973H146.66ZM156.641 91.8672C156.641 92.4049 156.759 92.9199 156.996 93.4121C157.238 93.9043 157.579 94.3395 158.021 94.7178C158.468 95.0915 158.992 95.3763 159.594 95.5723L158.896 96.5977C158.236 96.3652 157.657 96.0212 157.16 95.5654C156.668 95.1051 156.287 94.5697 156.019 93.959C155.75 94.6562 155.358 95.2624 154.843 95.7773C154.332 96.2878 153.724 96.6751 153.018 96.9395L152.32 95.9004C152.949 95.6771 153.489 95.3581 153.94 94.9434C154.396 94.5241 154.745 94.041 154.986 93.4941C155.228 92.9473 155.351 92.3685 155.355 91.7578V90.5547H156.641V91.8672ZM162.041 92.9883H163.818V94.082H162.041V97.3086H160.742V89.9121H162.041V92.9883ZM158.09 97.5957C158.924 97.5957 159.646 97.6868 160.257 97.8691C160.868 98.0469 161.335 98.3066 161.658 98.6484C161.986 98.9857 162.15 99.3913 162.15 99.8652C162.15 100.344 161.986 100.754 161.658 101.096C161.335 101.438 160.868 101.697 160.257 101.875C159.646 102.053 158.924 102.139 158.09 102.135C157.247 102.139 156.515 102.053 155.896 101.875C155.276 101.697 154.799 101.438 154.467 101.096C154.139 100.754 153.975 100.344 153.975 99.8652C153.975 99.3913 154.139 98.9857 154.467 98.6484C154.799 98.3066 155.276 98.0469 155.896 97.8691C156.515 97.6868 157.247 97.5957 158.09 97.5957ZM158.09 98.6211C157.502 98.6211 156.996 98.6712 156.572 98.7715C156.148 98.8672 155.825 99.0085 155.602 99.1953C155.378 99.3822 155.269 99.6055 155.273 99.8652C155.269 100.266 155.513 100.574 156.005 100.788C156.497 101.002 157.192 101.114 158.09 101.123C158.979 101.114 159.664 101.002 160.147 100.788C160.635 100.574 160.879 100.266 160.879 99.8652C160.879 99.4733 160.633 99.168 160.141 98.9492C159.653 98.7305 158.969 98.6211 158.09 98.6211ZM178.119 102.162H176.807V89.9121H178.119V102.162ZM175.207 92.2363H173.936V97.9307C174.646 97.876 175.271 97.819 175.809 97.7598L175.877 98.7168C174.701 98.9036 173.484 99.029 172.227 99.0928C170.969 99.152 169.579 99.1862 168.057 99.1953L167.906 98.1152L169.52 98.1016V92.2363H168.234V91.1699H175.207V92.2363ZM170.777 98.0742C171.475 98.0605 172.104 98.0378 172.664 98.0059V92.2363H170.777V98.0742ZM186.623 91.8398H182.043V93.1934H186.281V94.2188H182.043V95.6133H182.781C183.857 95.6133 184.75 95.5928 185.461 95.5518C186.172 95.5062 186.878 95.4219 187.58 95.2988L187.717 96.3516C186.878 96.4883 186.035 96.5771 185.188 96.6182C184.344 96.6592 183.196 96.6797 181.742 96.6797H180.73V90.8008H186.623V91.8398ZM190.191 97.459H188.893V89.9258H190.191V97.459ZM186.09 97.623C186.942 97.623 187.68 97.7119 188.305 97.8896C188.934 98.0674 189.417 98.3271 189.754 98.6689C190.091 99.0062 190.26 99.4095 190.26 99.8789C190.26 100.353 190.091 100.758 189.754 101.096C189.417 101.438 188.934 101.697 188.305 101.875C187.68 102.053 186.942 102.139 186.09 102.135C185.229 102.139 184.483 102.053 183.854 101.875C183.23 101.697 182.752 101.438 182.419 101.096C182.086 100.758 181.92 100.353 181.92 99.8789C181.92 99.4095 182.086 99.0062 182.419 98.6689C182.752 98.3271 183.23 98.0674 183.854 97.8896C184.483 97.7119 185.229 97.623 186.09 97.623ZM186.09 98.6484C185.174 98.6484 184.465 98.7555 183.964 98.9697C183.467 99.1839 183.219 99.487 183.219 99.8789C183.219 100.28 183.467 100.59 183.964 100.809C184.465 101.027 185.174 101.137 186.09 101.137C186.992 101.137 187.696 101.027 188.202 100.809C188.708 100.59 188.961 100.28 188.961 99.8789C188.961 99.4915 188.706 99.1908 188.195 98.9766C187.689 98.7578 186.988 98.6484 186.09 98.6484ZM199.967 93.0293C199.967 93.7721 200.097 94.499 200.356 95.21C200.621 95.9209 200.99 96.5521 201.464 97.1035C201.938 97.6549 202.482 98.0697 203.098 98.3477L202.305 99.3867C201.617 99.0449 201.015 98.5459 200.5 97.8896C199.99 97.2334 199.598 96.4792 199.324 95.627C199.051 96.5247 198.652 97.3245 198.128 98.0264C197.604 98.7236 196.995 99.2546 196.303 99.6191L195.482 98.5664C196.102 98.2702 196.651 97.8327 197.13 97.2539C197.613 96.6706 197.987 96.0098 198.251 95.2715C198.52 94.5286 198.654 93.7812 198.654 93.0293V90.9375H199.967V93.0293ZM205.764 102.189H204.479V95.0391H201.744V93.9863H204.479V89.9121H205.764V102.189ZM217.795 102.189H216.496V89.9121H217.795V102.189ZM209.633 94.082H212.928V90.9375H214.213V99.25H208.334V90.9375H209.633V94.082ZM212.928 98.1836V95.1074H209.633V98.1836H212.928ZM225.971 91.6484C225.971 92.2956 226.178 92.9245 226.593 93.5352C227.012 94.1458 227.566 94.6676 228.254 95.1006C228.942 95.529 229.676 95.8138 230.455 95.9551L229.854 97.0352C229.202 96.8939 228.577 96.6615 227.98 96.3379C227.383 96.0143 226.85 95.6201 226.381 95.1553C225.916 94.6859 225.554 94.1686 225.294 93.6035C225.03 94.1641 224.665 94.679 224.2 95.1484C223.74 95.6133 223.211 96.0075 222.614 96.3311C222.017 96.6546 221.391 96.8893 220.734 97.0352L220.16 95.9551C220.93 95.8092 221.657 95.5221 222.341 95.0938C223.024 94.6608 223.571 94.1413 223.981 93.5352C224.396 92.9245 224.604 92.2956 224.604 91.6484V90.7188H225.971V91.6484ZM230.961 100.549H219.75V99.4688H230.961V100.549Z" fill="#7B7B7B"/>
</svg>
