<svg width="128" height="36" viewBox="0 0 128 36" fill="none" xmlns="http://www.w3.org/2000/svg">
<g filter="url(#filter0_d_345_28)">
<path d="M22.5 28.5C27.5683 28.5 32.176 26.9599 35.5279 24.4459C38.88 21.9319 41 18.4206 41 14.5C41 10.5794 38.88 7.06811 35.5279 4.55406C32.176 2.04012 27.5683 0.5 22.5 0.5C17.4317 0.5 12.824 2.04012 9.47208 4.55406C6.12001 7.06811 4 10.5794 4 14.5C4 18.4206 6.12001 21.9319 9.47208 24.4459C12.824 26.9599 17.4317 28.5 22.5 28.5Z" fill="#89CEFA" stroke="#7B7B7B"/>
<path d="M29 14.5C29 15.5322 28.3962 16.52 27.3116 17.2709C26.2289 18.0204 24.7061 18.5 23 18.5C21.2939 18.5 19.7711 18.0204 18.6884 17.2709C17.6038 16.52 17 15.5322 17 14.5C17 13.4678 17.6038 12.48 18.6884 11.7291C19.7711 10.9796 21.2939 10.5 23 10.5C24.7061 10.5 26.2289 10.9796 27.3116 11.7291C28.3962 12.48 29 13.4678 29 14.5Z" fill="white" stroke="#7B7B7B"/>
</g>
<g filter="url(#filter1_d_345_28)">
<path d="M46.5 1H82.5V28H51.5C48.7386 28 46.5 25.7614 46.5 23V1Z" fill="#89CEFA" shape-rendering="crispEdges"/>
<path d="M47 1.5H82V27.5H51.5C49.0147 27.5 47 25.4853 47 23V1.5Z" stroke="#7B7B7B" shape-rendering="crispEdges"/>
<rect x="59" y="11" width="11" height="7" fill="white" stroke="#7B7B7B"/>
</g>
<g filter="url(#filter2_d_345_28)">
<path d="M105.5 28.5C110.568 28.5 115.176 26.9599 118.528 24.4459C121.88 21.9319 124 18.4206 124 14.5C124 10.5794 121.88 7.06811 118.528 4.55406C115.176 2.04012 110.568 0.5 105.5 0.5C100.432 0.5 95.824 2.04012 92.4721 4.55406C89.12 7.06811 87 10.5794 87 14.5C87 18.4206 89.12 21.9319 92.4721 24.4459C95.824 26.9599 100.432 28.5 105.5 28.5Z" fill="#89CEFA" stroke="#7B7B7B"/>
<path d="M112 14.5C112 15.5322 111.396 16.52 110.312 17.2709C109.229 18.0204 107.706 18.5 106 18.5C104.294 18.5 102.771 18.0204 101.688 17.2709C100.604 16.52 100 15.5322 100 14.5C100 13.4678 100.604 12.48 101.688 11.7291C102.771 10.9796 104.294 10.5 106 10.5C107.706 10.5 109.229 10.9796 110.312 11.7291C111.396 12.48 112 13.4678 112 14.5Z" fill="white" stroke="#7B7B7B"/>
</g>
<defs>
<filter id="filter0_d_345_28" x="0.5" y="0" width="44" height="36" filterUnits="userSpaceOnUse" color-interpolation-filters="sRGB">
<feFlood flood-opacity="0" result="BackgroundImageFix"/>
<feColorMatrix in="SourceAlpha" type="matrix" values="0 0 0 0 0 0 0 0 0 0 0 0 0 0 0 0 0 0 127 0" result="hardAlpha"/>
<feOffset dy="4"/>
<feGaussianBlur stdDeviation="1.5"/>
<feComposite in2="hardAlpha" operator="out"/>
<feColorMatrix type="matrix" values="0 0 0 0 0 0 0 0 0 0 0 0 0 0 0 0 0 0 0.15 0"/>
<feBlend mode="normal" in2="BackgroundImageFix" result="effect1_dropShadow_345_28"/>
<feBlend mode="normal" in="SourceGraphic" in2="effect1_dropShadow_345_28" result="shape"/>
</filter>
<filter id="filter1_d_345_28" x="43.5" y="1" width="42" height="34" filterUnits="userSpaceOnUse" color-interpolation-filters="sRGB">
<feFlood flood-opacity="0" result="BackgroundImageFix"/>
<feColorMatrix in="SourceAlpha" type="matrix" values="0 0 0 0 0 0 0 0 0 0 0 0 0 0 0 0 0 0 127 0" result="hardAlpha"/>
<feOffset dy="4"/>
<feGaussianBlur stdDeviation="1.5"/>
<feComposite in2="hardAlpha" operator="out"/>
<feColorMatrix type="matrix" values="0 0 0 0 0 0 0 0 0 0 0 0 0 0 0 0 0 0 0.15 0"/>
<feBlend mode="normal" in2="BackgroundImageFix" result="effect1_dropShadow_345_28"/>
<feBlend mode="normal" in="SourceGraphic" in2="effect1_dropShadow_345_28" result="shape"/>
</filter>
<filter id="filter2_d_345_28" x="83.5" y="0" width="44" height="36" filterUnits="userSpaceOnUse" color-interpolation-filters="sRGB">
<feFlood flood-opacity="0" result="BackgroundImageFix"/>
<feColorMatrix in="SourceAlpha" type="matrix" values="0 0 0 0 0 0 0 0 0 0 0 0 0 0 0 0 0 0 127 0" result="hardAlpha"/>
<feOffset dy="4"/>
<feGaussianBlur stdDeviation="1.5"/>
<feComposite in2="hardAlpha" operator="out"/>
<feColorMatrix type="matrix" values="0 0 0 0 0 0 0 0 0 0 0 0 0 0 0 0 0 0 0.15 0"/>
<feBlend mode="normal" in2="BackgroundImageFix" result="effect1_dropShadow_345_28"/>
<feBlend mode="normal" in="SourceGraphic" in2="effect1_dropShadow_345_28" result="shape"/>
</filter>
</defs>
</svg>
